<svg width="24" height="25" viewBox="0 0 24 25" fill="none" xmlns="http://www.w3.org/2000/svg">
<path d="M12.2637 4.38379C16.8911 4.38405 20.6426 8.13617 20.6426 12.7637C20.637 17.3887 16.8887 21.137 12.2637 21.1426C7.63617 21.1426 3.88405 17.3911 3.88379 12.7637C3.88379 8.13601 7.63601 4.38379 12.2637 4.38379ZM12.2627 5.44238C8.21969 5.44265 4.94238 8.7206 4.94238 12.7637C4.94265 16.8067 8.2206 20.084 12.2637 20.084C16.3065 20.0837 19.5837 16.8065 19.584 12.7637C19.5796 8.72221 16.3042 5.4468 12.2627 5.44238ZM12.2344 15.4541C12.5834 15.4543 12.8662 15.7378 12.8662 16.0869C12.8662 16.436 12.5835 16.7195 12.2344 16.7197C11.8851 16.7197 11.6016 16.4362 11.6016 16.0869C11.6016 15.7377 11.8851 15.4541 12.2344 15.4541ZM12.7637 14.4346C12.7637 14.7267 12.5261 14.9636 12.2344 14.9639C11.9422 14.9641 11.7052 14.7267 11.7051 14.4346V13.915C11.6916 13.3349 12.0476 12.8096 12.5918 12.6074L12.5957 12.6064C13.184 12.4102 13.5018 11.774 13.3057 11.1855C13.1095 10.5971 12.4733 10.2794 11.8848 10.4756C11.523 10.5963 11.2472 10.8924 11.1523 11.2617C11.0792 11.5445 10.7906 11.7143 10.5078 11.6416C10.2248 11.5686 10.0541 11.2801 10.127 10.9971C10.4288 9.83141 11.6185 9.13085 12.7842 9.43262C13.9498 9.73448 14.6505 10.9242 14.3486 12.0898C14.1648 12.7998 13.6361 13.3695 12.9424 13.6064C12.8263 13.6604 12.7546 13.7801 12.7627 13.9082L12.7637 13.915V14.4346Z" fill="black"/>
<path d="M12.2637 4.38379C16.8911 4.38405 20.6426 8.13617 20.6426 12.7637C20.637 17.3887 16.8887 21.137 12.2637 21.1426C7.63617 21.1426 3.88405 17.3911 3.88379 12.7637C3.88379 8.13601 7.63601 4.38379 12.2637 4.38379ZM12.2627 5.44238C8.21969 5.44265 4.94238 8.7206 4.94238 12.7637C4.94265 16.8067 8.2206 20.084 12.2637 20.084C16.3065 20.0837 19.5837 16.8065 19.584 12.7637C19.5796 8.72221 16.3042 5.4468 12.2627 5.44238ZM12.2344 15.4541C12.5834 15.4543 12.8662 15.7378 12.8662 16.0869C12.8662 16.436 12.5835 16.7195 12.2344 16.7197C11.8851 16.7197 11.6016 16.4362 11.6016 16.0869C11.6016 15.7377 11.8851 15.4541 12.2344 15.4541ZM12.7637 14.4346C12.7637 14.7267 12.5261 14.9636 12.2344 14.9639C11.9422 14.9641 11.7052 14.7267 11.7051 14.4346V13.915C11.6916 13.3349 12.0476 12.8096 12.5918 12.6074L12.5957 12.6064C13.184 12.4102 13.5018 11.774 13.3057 11.1855C13.1095 10.5971 12.4733 10.2794 11.8848 10.4756C11.523 10.5963 11.2472 10.8924 11.1523 11.2617C11.0792 11.5445 10.7906 11.7143 10.5078 11.6416C10.2248 11.5686 10.0541 11.2801 10.127 10.9971C10.4288 9.83141 11.6185 9.13085 12.7842 9.43262C13.9498 9.73448 14.6505 10.9242 14.3486 12.0898C14.1648 12.7998 13.6361 13.3695 12.9424 13.6064C12.8263 13.6604 12.7546 13.7801 12.7627 13.9082L12.7637 13.915V14.4346Z" fill="black" fill-opacity="0.2"/>
<path d="M12.2637 4.38379C16.8911 4.38405 20.6426 8.13617 20.6426 12.7637C20.637 17.3887 16.8887 21.137 12.2637 21.1426C7.63617 21.1426 3.88405 17.3911 3.88379 12.7637C3.88379 8.13601 7.63601 4.38379 12.2637 4.38379ZM12.2627 5.44238C8.21969 5.44265 4.94238 8.7206 4.94238 12.7637C4.94265 16.8067 8.2206 20.084 12.2637 20.084C16.3065 20.0837 19.5837 16.8065 19.584 12.7637C19.5796 8.72221 16.3042 5.4468 12.2627 5.44238ZM12.2344 15.4541C12.5834 15.4543 12.8662 15.7378 12.8662 16.0869C12.8662 16.436 12.5835 16.7195 12.2344 16.7197C11.8851 16.7197 11.6016 16.4362 11.6016 16.0869C11.6016 15.7377 11.8851 15.4541 12.2344 15.4541ZM12.7637 14.4346C12.7637 14.7267 12.5261 14.9636 12.2344 14.9639C11.9422 14.9641 11.7052 14.7267 11.7051 14.4346V13.915C11.6916 13.3349 12.0476 12.8096 12.5918 12.6074L12.5957 12.6064C13.184 12.4102 13.5018 11.774 13.3057 11.1855C13.1095 10.5971 12.4733 10.2794 11.8848 10.4756C11.523 10.5963 11.2472 10.8924 11.1523 11.2617C11.0792 11.5445 10.7906 11.7143 10.5078 11.6416C10.2248 11.5686 10.0541 11.2801 10.127 10.9971C10.4288 9.83141 11.6185 9.13085 12.7842 9.43262C13.9498 9.73448 14.6505 10.9242 14.3486 12.0898C14.1648 12.7998 13.6361 13.3695 12.9424 13.6064C12.8263 13.6604 12.7546 13.7801 12.7627 13.9082L12.7637 13.915V14.4346Z" fill="black" fill-opacity="0.2"/>
<path d="M12.2637 4.38379C16.8911 4.38405 20.6426 8.13617 20.6426 12.7637C20.637 17.3887 16.8887 21.137 12.2637 21.1426C7.63617 21.1426 3.88405 17.3911 3.88379 12.7637C3.88379 8.13601 7.63601 4.38379 12.2637 4.38379ZM12.2627 5.44238C8.21969 5.44265 4.94238 8.7206 4.94238 12.7637C4.94265 16.8067 8.2206 20.084 12.2637 20.084C16.3065 20.0837 19.5837 16.8065 19.584 12.7637C19.5796 8.72221 16.3042 5.4468 12.2627 5.44238ZM12.2344 15.4541C12.5834 15.4543 12.8662 15.7378 12.8662 16.0869C12.8662 16.436 12.5835 16.7195 12.2344 16.7197C11.8851 16.7197 11.6016 16.4362 11.6016 16.0869C11.6016 15.7377 11.8851 15.4541 12.2344 15.4541ZM12.7637 14.4346C12.7637 14.7267 12.5261 14.9636 12.2344 14.9639C11.9422 14.9641 11.7052 14.7267 11.7051 14.4346V13.915C11.6916 13.3349 12.0476 12.8096 12.5918 12.6074L12.5957 12.6064C13.184 12.4102 13.5018 11.774 13.3057 11.1855C13.1095 10.5971 12.4733 10.2794 11.8848 10.4756C11.523 10.5963 11.2472 10.8924 11.1523 11.2617C11.0792 11.5445 10.7906 11.7143 10.5078 11.6416C10.2248 11.5686 10.0541 11.2801 10.127 10.9971C10.4288 9.83141 11.6185 9.13085 12.7842 9.43262C13.9498 9.73448 14.6505 10.9242 14.3486 12.0898C14.1648 12.7998 13.6361 13.3695 12.9424 13.6064C12.8263 13.6604 12.7546 13.7801 12.7627 13.9082L12.7637 13.915V14.4346Z" fill="black" fill-opacity="0.2"/>
<path d="M12.2637 4.38379C16.8911 4.38405 20.6426 8.13617 20.6426 12.7637C20.637 17.3887 16.8887 21.137 12.2637 21.1426C7.63617 21.1426 3.88405 17.3911 3.88379 12.7637C3.88379 8.13601 7.63601 4.38379 12.2637 4.38379ZM12.2627 5.44238C8.21969 5.44265 4.94238 8.7206 4.94238 12.7637C4.94265 16.8067 8.2206 20.084 12.2637 20.084C16.3065 20.0837 19.5837 16.8065 19.584 12.7637C19.5796 8.72221 16.3042 5.4468 12.2627 5.44238ZM12.2344 15.4541C12.5834 15.4543 12.8662 15.7378 12.8662 16.0869C12.8662 16.436 12.5835 16.7195 12.2344 16.7197C11.8851 16.7197 11.6016 16.4362 11.6016 16.0869C11.6016 15.7377 11.8851 15.4541 12.2344 15.4541ZM12.7637 14.4346C12.7637 14.7267 12.5261 14.9636 12.2344 14.9639C11.9422 14.9641 11.7052 14.7267 11.7051 14.4346V13.915C11.6916 13.3349 12.0476 12.8096 12.5918 12.6074L12.5957 12.6064C13.184 12.4102 13.5018 11.774 13.3057 11.1855C13.1095 10.5971 12.4733 10.2794 11.8848 10.4756C11.523 10.5963 11.2472 10.8924 11.1523 11.2617C11.0792 11.5445 10.7906 11.7143 10.5078 11.6416C10.2248 11.5686 10.0541 11.2801 10.127 10.9971C10.4288 9.83141 11.6185 9.13085 12.7842 9.43262C13.9498 9.73448 14.6505 10.9242 14.3486 12.0898C14.1648 12.7998 13.6361 13.3695 12.9424 13.6064C12.8263 13.6604 12.7546 13.7801 12.7627 13.9082L12.7637 13.915V14.4346Z" fill="black" fill-opacity="0.2"/>
<path d="M12.2637 4.38379C16.8911 4.38405 20.6426 8.13617 20.6426 12.7637C20.637 17.3887 16.8887 21.137 12.2637 21.1426C7.63617 21.1426 3.88405 17.3911 3.88379 12.7637C3.88379 8.13601 7.63601 4.38379 12.2637 4.38379ZM12.2627 5.44238C8.21969 5.44265 4.94238 8.7206 4.94238 12.7637C4.94265 16.8067 8.2206 20.084 12.2637 20.084C16.3065 20.0837 19.5837 16.8065 19.584 12.7637C19.5796 8.72221 16.3042 5.4468 12.2627 5.44238ZM12.2344 15.4541C12.5834 15.4543 12.8662 15.7378 12.8662 16.0869C12.8662 16.436 12.5835 16.7195 12.2344 16.7197C11.8851 16.7197 11.6016 16.4362 11.6016 16.0869C11.6016 15.7377 11.8851 15.4541 12.2344 15.4541ZM12.7637 14.4346C12.7637 14.7267 12.5261 14.9636 12.2344 14.9639C11.9422 14.9641 11.7052 14.7267 11.7051 14.4346V13.915C11.6916 13.3349 12.0476 12.8096 12.5918 12.6074L12.5957 12.6064C13.184 12.4102 13.5018 11.774 13.3057 11.1855C13.1095 10.5971 12.4733 10.2794 11.8848 10.4756C11.523 10.5963 11.2472 10.8924 11.1523 11.2617C11.0792 11.5445 10.7906 11.7143 10.5078 11.6416C10.2248 11.5686 10.0541 11.2801 10.127 10.9971C10.4288 9.83141 11.6185 9.13085 12.7842 9.43262C13.9498 9.73448 14.6505 10.9242 14.3486 12.0898C14.1648 12.7998 13.6361 13.3695 12.9424 13.6064C12.8263 13.6604 12.7546 13.7801 12.7627 13.9082L12.7637 13.915V14.4346Z" fill="black" fill-opacity="0.2"/>
<path d="M12.2637 4.38379C16.8911 4.38405 20.6426 8.13617 20.6426 12.7637C20.637 17.3887 16.8887 21.137 12.2637 21.1426C7.63617 21.1426 3.88405 17.3911 3.88379 12.7637C3.88379 8.13601 7.63601 4.38379 12.2637 4.38379ZM12.2627 5.44238C8.21969 5.44265 4.94238 8.7206 4.94238 12.7637C4.94265 16.8067 8.2206 20.084 12.2637 20.084C16.3065 20.0837 19.5837 16.8065 19.584 12.7637C19.5796 8.72221 16.3042 5.4468 12.2627 5.44238ZM12.2344 15.4541C12.5834 15.4543 12.8662 15.7378 12.8662 16.0869C12.8662 16.436 12.5835 16.7195 12.2344 16.7197C11.8851 16.7197 11.6016 16.4362 11.6016 16.0869C11.6016 15.7377 11.8851 15.4541 12.2344 15.4541ZM12.7637 14.4346C12.7637 14.7267 12.5261 14.9636 12.2344 14.9639C11.9422 14.9641 11.7052 14.7267 11.7051 14.4346V13.915C11.6916 13.3349 12.0476 12.8096 12.5918 12.6074L12.5957 12.6064C13.184 12.4102 13.5018 11.774 13.3057 11.1855C13.1095 10.5971 12.4733 10.2794 11.8848 10.4756C11.523 10.5963 11.2472 10.8924 11.1523 11.2617C11.0792 11.5445 10.7906 11.7143 10.5078 11.6416C10.2248 11.5686 10.0541 11.2801 10.127 10.9971C10.4288 9.83141 11.6185 9.13085 12.7842 9.43262C13.9498 9.73448 14.6505 10.9242 14.3486 12.0898C14.1648 12.7998 13.6361 13.3695 12.9424 13.6064C12.8263 13.6604 12.7546 13.7801 12.7627 13.9082L12.7637 13.915V14.4346Z" stroke="black" stroke-width="0.231949"/>
<path d="M12.2637 4.38379C16.8911 4.38405 20.6426 8.13617 20.6426 12.7637C20.637 17.3887 16.8887 21.137 12.2637 21.1426C7.63617 21.1426 3.88405 17.3911 3.88379 12.7637C3.88379 8.13601 7.63601 4.38379 12.2637 4.38379ZM12.2627 5.44238C8.21969 5.44265 4.94238 8.7206 4.94238 12.7637C4.94265 16.8067 8.2206 20.084 12.2637 20.084C16.3065 20.0837 19.5837 16.8065 19.584 12.7637C19.5796 8.72221 16.3042 5.4468 12.2627 5.44238ZM12.2344 15.4541C12.5834 15.4543 12.8662 15.7378 12.8662 16.0869C12.8662 16.436 12.5835 16.7195 12.2344 16.7197C11.8851 16.7197 11.6016 16.4362 11.6016 16.0869C11.6016 15.7377 11.8851 15.4541 12.2344 15.4541ZM12.7637 14.4346C12.7637 14.7267 12.5261 14.9636 12.2344 14.9639C11.9422 14.9641 11.7052 14.7267 11.7051 14.4346V13.915C11.6916 13.3349 12.0476 12.8096 12.5918 12.6074L12.5957 12.6064C13.184 12.4102 13.5018 11.774 13.3057 11.1855C13.1095 10.5971 12.4733 10.2794 11.8848 10.4756C11.523 10.5963 11.2472 10.8924 11.1523 11.2617C11.0792 11.5445 10.7906 11.7143 10.5078 11.6416C10.2248 11.5686 10.0541 11.2801 10.127 10.9971C10.4288 9.83141 11.6185 9.13085 12.7842 9.43262C13.9498 9.73448 14.6505 10.9242 14.3486 12.0898C14.1648 12.7998 13.6361 13.3695 12.9424 13.6064C12.8263 13.6604 12.7546 13.7801 12.7627 13.9082L12.7637 13.915V14.4346Z" stroke="black" stroke-opacity="0.2" stroke-width="0.231949"/>
<path d="M12.2637 4.38379C16.8911 4.38405 20.6426 8.13617 20.6426 12.7637C20.637 17.3887 16.8887 21.137 12.2637 21.1426C7.63617 21.1426 3.88405 17.3911 3.88379 12.7637C3.88379 8.13601 7.63601 4.38379 12.2637 4.38379ZM12.2627 5.44238C8.21969 5.44265 4.94238 8.7206 4.94238 12.7637C4.94265 16.8067 8.2206 20.084 12.2637 20.084C16.3065 20.0837 19.5837 16.8065 19.584 12.7637C19.5796 8.72221 16.3042 5.4468 12.2627 5.44238ZM12.2344 15.4541C12.5834 15.4543 12.8662 15.7378 12.8662 16.0869C12.8662 16.436 12.5835 16.7195 12.2344 16.7197C11.8851 16.7197 11.6016 16.4362 11.6016 16.0869C11.6016 15.7377 11.8851 15.4541 12.2344 15.4541ZM12.7637 14.4346C12.7637 14.7267 12.5261 14.9636 12.2344 14.9639C11.9422 14.9641 11.7052 14.7267 11.7051 14.4346V13.915C11.6916 13.3349 12.0476 12.8096 12.5918 12.6074L12.5957 12.6064C13.184 12.4102 13.5018 11.774 13.3057 11.1855C13.1095 10.5971 12.4733 10.2794 11.8848 10.4756C11.523 10.5963 11.2472 10.8924 11.1523 11.2617C11.0792 11.5445 10.7906 11.7143 10.5078 11.6416C10.2248 11.5686 10.0541 11.2801 10.127 10.9971C10.4288 9.83141 11.6185 9.13085 12.7842 9.43262C13.9498 9.73448 14.6505 10.9242 14.3486 12.0898C14.1648 12.7998 13.6361 13.3695 12.9424 13.6064C12.8263 13.6604 12.7546 13.7801 12.7627 13.9082L12.7637 13.915V14.4346Z" stroke="black" stroke-opacity="0.2" stroke-width="0.231949"/>
<path d="M12.2637 4.38379C16.8911 4.38405 20.6426 8.13617 20.6426 12.7637C20.637 17.3887 16.8887 21.137 12.2637 21.1426C7.63617 21.1426 3.88405 17.3911 3.88379 12.7637C3.88379 8.13601 7.63601 4.38379 12.2637 4.38379ZM12.2627 5.44238C8.21969 5.44265 4.94238 8.7206 4.94238 12.7637C4.94265 16.8067 8.2206 20.084 12.2637 20.084C16.3065 20.0837 19.5837 16.8065 19.584 12.7637C19.5796 8.72221 16.3042 5.4468 12.2627 5.44238ZM12.2344 15.4541C12.5834 15.4543 12.8662 15.7378 12.8662 16.0869C12.8662 16.436 12.5835 16.7195 12.2344 16.7197C11.8851 16.7197 11.6016 16.4362 11.6016 16.0869C11.6016 15.7377 11.8851 15.4541 12.2344 15.4541ZM12.7637 14.4346C12.7637 14.7267 12.5261 14.9636 12.2344 14.9639C11.9422 14.9641 11.7052 14.7267 11.7051 14.4346V13.915C11.6916 13.3349 12.0476 12.8096 12.5918 12.6074L12.5957 12.6064C13.184 12.4102 13.5018 11.774 13.3057 11.1855C13.1095 10.5971 12.4733 10.2794 11.8848 10.4756C11.523 10.5963 11.2472 10.8924 11.1523 11.2617C11.0792 11.5445 10.7906 11.7143 10.5078 11.6416C10.2248 11.5686 10.0541 11.2801 10.127 10.9971C10.4288 9.83141 11.6185 9.13085 12.7842 9.43262C13.9498 9.73448 14.6505 10.9242 14.3486 12.0898C14.1648 12.7998 13.6361 13.3695 12.9424 13.6064C12.8263 13.6604 12.7546 13.7801 12.7627 13.9082L12.7637 13.915V14.4346Z" stroke="black" stroke-opacity="0.2" stroke-width="0.231949"/>
<path d="M12.2637 4.38379C16.8911 4.38405 20.6426 8.13617 20.6426 12.7637C20.637 17.3887 16.8887 21.137 12.2637 21.1426C7.63617 21.1426 3.88405 17.3911 3.88379 12.7637C3.88379 8.13601 7.63601 4.38379 12.2637 4.38379ZM12.2627 5.44238C8.21969 5.44265 4.94238 8.7206 4.94238 12.7637C4.94265 16.8067 8.2206 20.084 12.2637 20.084C16.3065 20.0837 19.5837 16.8065 19.584 12.7637C19.5796 8.72221 16.3042 5.4468 12.2627 5.44238ZM12.2344 15.4541C12.5834 15.4543 12.8662 15.7378 12.8662 16.0869C12.8662 16.436 12.5835 16.7195 12.2344 16.7197C11.8851 16.7197 11.6016 16.4362 11.6016 16.0869C11.6016 15.7377 11.8851 15.4541 12.2344 15.4541ZM12.7637 14.4346C12.7637 14.7267 12.5261 14.9636 12.2344 14.9639C11.9422 14.9641 11.7052 14.7267 11.7051 14.4346V13.915C11.6916 13.3349 12.0476 12.8096 12.5918 12.6074L12.5957 12.6064C13.184 12.4102 13.5018 11.774 13.3057 11.1855C13.1095 10.5971 12.4733 10.2794 11.8848 10.4756C11.523 10.5963 11.2472 10.8924 11.1523 11.2617C11.0792 11.5445 10.7906 11.7143 10.5078 11.6416C10.2248 11.5686 10.0541 11.2801 10.127 10.9971C10.4288 9.83141 11.6185 9.13085 12.7842 9.43262C13.9498 9.73448 14.6505 10.9242 14.3486 12.0898C14.1648 12.7998 13.6361 13.3695 12.9424 13.6064C12.8263 13.6604 12.7546 13.7801 12.7627 13.9082L12.7637 13.915V14.4346Z" stroke="black" stroke-opacity="0.2" stroke-width="0.231949"/>
<path d="M12.2637 4.38379C16.8911 4.38405 20.6426 8.13617 20.6426 12.7637C20.637 17.3887 16.8887 21.137 12.2637 21.1426C7.63617 21.1426 3.88405 17.3911 3.88379 12.7637C3.88379 8.13601 7.63601 4.38379 12.2637 4.38379ZM12.2627 5.44238C8.21969 5.44265 4.94238 8.7206 4.94238 12.7637C4.94265 16.8067 8.2206 20.084 12.2637 20.084C16.3065 20.0837 19.5837 16.8065 19.584 12.7637C19.5796 8.72221 16.3042 5.4468 12.2627 5.44238ZM12.2344 15.4541C12.5834 15.4543 12.8662 15.7378 12.8662 16.0869C12.8662 16.436 12.5835 16.7195 12.2344 16.7197C11.8851 16.7197 11.6016 16.4362 11.6016 16.0869C11.6016 15.7377 11.8851 15.4541 12.2344 15.4541ZM12.7637 14.4346C12.7637 14.7267 12.5261 14.9636 12.2344 14.9639C11.9422 14.9641 11.7052 14.7267 11.7051 14.4346V13.915C11.6916 13.3349 12.0476 12.8096 12.5918 12.6074L12.5957 12.6064C13.184 12.4102 13.5018 11.774 13.3057 11.1855C13.1095 10.5971 12.4733 10.2794 11.8848 10.4756C11.523 10.5963 11.2472 10.8924 11.1523 11.2617C11.0792 11.5445 10.7906 11.7143 10.5078 11.6416C10.2248 11.5686 10.0541 11.2801 10.127 10.9971C10.4288 9.83141 11.6185 9.13085 12.7842 9.43262C13.9498 9.73448 14.6505 10.9242 14.3486 12.0898C14.1648 12.7998 13.6361 13.3695 12.9424 13.6064C12.8263 13.6604 12.7546 13.7801 12.7627 13.9082L12.7637 13.915V14.4346Z" stroke="black" stroke-opacity="0.2" stroke-width="0.231949"/>
</svg>
