<svg width="79" height="31" viewBox="0 0 79 31" fill="none" xmlns="http://www.w3.org/2000/svg">
<path d="M14.3587 3.98858C13.4379 5.03883 11.9646 5.86486 10.4913 5.74686C10.3071 4.33079 11.0315 2.82033 11.8786 1.89989C12.7994 0.826038 14.4078 0.0590027 15.7214 0C15.8688 1.46327 15.2672 2.91473 14.3587 3.98858ZM15.6969 6.01827C13.5606 5.90027 11.7313 7.18652 10.7246 7.18652C9.69328 7.18652 8.14634 6.07727 6.45206 6.11268C4.25442 6.14808 2.21638 7.33993 1.09914 9.23982C-1.20899 13.0514 0.497555 18.6802 2.73203 21.7838C3.82471 23.3179 5.12611 25.0053 6.84494 24.9463C8.47782 24.8873 9.11624 23.9315 11.0806 23.9315C13.0573 23.9315 13.6343 24.9463 15.3531 24.9227C17.1333 24.8873 18.2506 23.3887 19.3433 21.8546C20.5833 20.1081 21.0989 18.4206 21.1235 18.3262C21.0866 18.2908 17.6858 17.04 17.649 13.2638C17.6122 10.1013 20.3377 8.60259 20.4605 8.50818C18.9258 6.31328 16.5318 6.07727 15.6969 6.01827ZM28.0233 1.74648V24.7457H31.7434V16.8866H36.8876C41.5898 16.8866 44.8801 13.783 44.8801 9.29882C44.8801 4.81462 41.6389 1.74648 37.0103 1.74648H28.0233ZM31.7434 4.75561H36.0282C39.2571 4.75561 41.0987 6.40769 41.0987 9.31062C41.0987 12.2136 39.2571 13.8892 36.0159 13.8892H31.7434V4.75561ZM51.6572 24.9227C53.9899 24.9227 56.1507 23.7899 57.1329 21.9844H57.2066V24.7457H60.6442V13.2992C60.6442 9.98325 57.8818 7.83555 53.6339 7.83555C49.6928 7.83555 46.7708 10.0069 46.6603 12.9806H50.012C50.2944 11.5645 51.6572 10.6323 53.5234 10.6323C55.7947 10.6323 57.0715 11.6471 57.0715 13.5234V14.7979L52.4307 15.0693C48.1213 15.3171 45.7886 17.0164 45.7886 19.9665C45.8009 22.9402 48.2073 24.9227 51.6572 24.9227ZM52.6639 22.1968C50.6873 22.1968 49.4227 21.2764 49.4227 19.8839C49.4227 18.4324 50.6382 17.5946 52.9586 17.4648L57.0838 17.217V18.515C57.0838 20.6627 55.1808 22.1968 52.6639 22.1968ZM65.2482 31C68.87 31 70.5766 29.6665 72.0621 25.6426L78.5814 8.05976H74.8L70.4292 21.6422H70.3556L65.9849 8.05976H62.1052L68.3912 24.8047L68.0474 25.8196C67.4827 27.5424 66.5619 28.2151 64.9167 28.2151C64.6221 28.2151 64.0573 28.1797 63.824 28.1561V30.9174C64.045 30.9646 64.9658 31 65.2482 31Z" fill="black"/>
</svg>
