<svg width="24" height="25" viewBox="0 0 24 25" fill="none" xmlns="http://www.w3.org/2000/svg">
<path d="M6.85 15.75C6.69087 15.75 6.53826 15.8027 6.42574 15.8964C6.31321 15.9902 6.25 16.1174 6.25 16.25C6.25 16.3826 6.31321 16.5098 6.42574 16.6036C6.53826 16.6973 6.69087 16.75 6.85 16.75H11.65C11.8091 16.75 11.9617 16.6973 12.0743 16.6036C12.1868 16.5098 12.25 16.3826 12.25 16.25C12.25 16.1174 12.1868 15.9902 12.0743 15.8964C11.9617 15.8027 11.8091 15.75 11.65 15.75H6.85Z" fill="black"/>
<path d="M6.85 15.75C6.69087 15.75 6.53826 15.8027 6.42574 15.8964C6.31321 15.9902 6.25 16.1174 6.25 16.25C6.25 16.3826 6.31321 16.5098 6.42574 16.6036C6.53826 16.6973 6.69087 16.75 6.85 16.75H11.65C11.8091 16.75 11.9617 16.6973 12.0743 16.6036C12.1868 16.5098 12.25 16.3826 12.25 16.25C12.25 16.1174 12.1868 15.9902 12.0743 15.8964C11.9617 15.8027 11.8091 15.75 11.65 15.75H6.85Z" fill="black" fill-opacity="0.2"/>
<path d="M6.85 15.75C6.69087 15.75 6.53826 15.8027 6.42574 15.8964C6.31321 15.9902 6.25 16.1174 6.25 16.25C6.25 16.3826 6.31321 16.5098 6.42574 16.6036C6.53826 16.6973 6.69087 16.75 6.85 16.75H11.65C11.8091 16.75 11.9617 16.6973 12.0743 16.6036C12.1868 16.5098 12.25 16.3826 12.25 16.25C12.25 16.1174 12.1868 15.9902 12.0743 15.8964C11.9617 15.8027 11.8091 15.75 11.65 15.75H6.85Z" fill="black" fill-opacity="0.2"/>
<path d="M6.85 15.75C6.69087 15.75 6.53826 15.8027 6.42574 15.8964C6.31321 15.9902 6.25 16.1174 6.25 16.25C6.25 16.3826 6.31321 16.5098 6.42574 16.6036C6.53826 16.6973 6.69087 16.75 6.85 16.75H11.65C11.8091 16.75 11.9617 16.6973 12.0743 16.6036C12.1868 16.5098 12.25 16.3826 12.25 16.25C12.25 16.1174 12.1868 15.9902 12.0743 15.8964C11.9617 15.8027 11.8091 15.75 11.65 15.75H6.85Z" fill="black" fill-opacity="0.2"/>
<path d="M6.85 15.75C6.69087 15.75 6.53826 15.8027 6.42574 15.8964C6.31321 15.9902 6.25 16.1174 6.25 16.25C6.25 16.3826 6.31321 16.5098 6.42574 16.6036C6.53826 16.6973 6.69087 16.75 6.85 16.75H11.65C11.8091 16.75 11.9617 16.6973 12.0743 16.6036C12.1868 16.5098 12.25 16.3826 12.25 16.25C12.25 16.1174 12.1868 15.9902 12.0743 15.8964C11.9617 15.8027 11.8091 15.75 11.65 15.75H6.85Z" fill="black" fill-opacity="0.2"/>
<path d="M6.85 15.75C6.69087 15.75 6.53826 15.8027 6.42574 15.8964C6.31321 15.9902 6.25 16.1174 6.25 16.25C6.25 16.3826 6.31321 16.5098 6.42574 16.6036C6.53826 16.6973 6.69087 16.75 6.85 16.75H11.65C11.8091 16.75 11.9617 16.6973 12.0743 16.6036C12.1868 16.5098 12.25 16.3826 12.25 16.25C12.25 16.1174 12.1868 15.9902 12.0743 15.8964C11.9617 15.8027 11.8091 15.75 11.65 15.75H6.85Z" fill="black" fill-opacity="0.2"/>
<path fill-rule="evenodd" clip-rule="evenodd" d="M5.7 5.5C4.98392 5.5 4.29716 5.77656 3.79081 6.26884C3.28446 6.76113 3 7.42881 3 8.125V16.875C3 17.5712 3.28446 18.2389 3.79081 18.7312C4.29716 19.2234 4.98392 19.5 5.7 19.5H18.3C19.0161 19.5 19.7028 19.2234 20.2092 18.7312C20.7155 18.2389 21 17.5712 21 16.875V8.125C21 7.42881 20.7155 6.76113 20.2092 6.26884C19.7028 5.77656 19.0161 5.5 18.3 5.5H5.7ZM18.3 6.8125H5.7C5.34196 6.8125 4.99858 6.95078 4.74541 7.19692C4.49223 7.44306 4.35 7.7769 4.35 8.125V9.21875H19.65V8.125C19.65 7.7769 19.5078 7.44306 19.2546 7.19692C19.0014 6.95078 18.658 6.8125 18.3 6.8125ZM4.35 16.875V10.5312H19.65V16.875C19.65 17.2231 19.5078 17.5569 19.2546 17.8031C19.0014 18.0492 18.658 18.1875 18.3 18.1875H5.7C5.34196 18.1875 4.99858 18.0492 4.74541 17.8031C4.49223 17.5569 4.35 17.2231 4.35 16.875Z" fill="black"/>
<path fill-rule="evenodd" clip-rule="evenodd" d="M5.7 5.5C4.98392 5.5 4.29716 5.77656 3.79081 6.26884C3.28446 6.76113 3 7.42881 3 8.125V16.875C3 17.5712 3.28446 18.2389 3.79081 18.7312C4.29716 19.2234 4.98392 19.5 5.7 19.5H18.3C19.0161 19.5 19.7028 19.2234 20.2092 18.7312C20.7155 18.2389 21 17.5712 21 16.875V8.125C21 7.42881 20.7155 6.76113 20.2092 6.26884C19.7028 5.77656 19.0161 5.5 18.3 5.5H5.7ZM18.3 6.8125H5.7C5.34196 6.8125 4.99858 6.95078 4.74541 7.19692C4.49223 7.44306 4.35 7.7769 4.35 8.125V9.21875H19.65V8.125C19.65 7.7769 19.5078 7.44306 19.2546 7.19692C19.0014 6.95078 18.658 6.8125 18.3 6.8125ZM4.35 16.875V10.5312H19.65V16.875C19.65 17.2231 19.5078 17.5569 19.2546 17.8031C19.0014 18.0492 18.658 18.1875 18.3 18.1875H5.7C5.34196 18.1875 4.99858 18.0492 4.74541 17.8031C4.49223 17.5569 4.35 17.2231 4.35 16.875Z" fill="black" fill-opacity="0.2"/>
<path fill-rule="evenodd" clip-rule="evenodd" d="M5.7 5.5C4.98392 5.5 4.29716 5.77656 3.79081 6.26884C3.28446 6.76113 3 7.42881 3 8.125V16.875C3 17.5712 3.28446 18.2389 3.79081 18.7312C4.29716 19.2234 4.98392 19.5 5.7 19.5H18.3C19.0161 19.5 19.7028 19.2234 20.2092 18.7312C20.7155 18.2389 21 17.5712 21 16.875V8.125C21 7.42881 20.7155 6.76113 20.2092 6.26884C19.7028 5.77656 19.0161 5.5 18.3 5.5H5.7ZM18.3 6.8125H5.7C5.34196 6.8125 4.99858 6.95078 4.74541 7.19692C4.49223 7.44306 4.35 7.7769 4.35 8.125V9.21875H19.65V8.125C19.65 7.7769 19.5078 7.44306 19.2546 7.19692C19.0014 6.95078 18.658 6.8125 18.3 6.8125ZM4.35 16.875V10.5312H19.65V16.875C19.65 17.2231 19.5078 17.5569 19.2546 17.8031C19.0014 18.0492 18.658 18.1875 18.3 18.1875H5.7C5.34196 18.1875 4.99858 18.0492 4.74541 17.8031C4.49223 17.5569 4.35 17.2231 4.35 16.875Z" fill="black" fill-opacity="0.2"/>
<path fill-rule="evenodd" clip-rule="evenodd" d="M5.7 5.5C4.98392 5.5 4.29716 5.77656 3.79081 6.26884C3.28446 6.76113 3 7.42881 3 8.125V16.875C3 17.5712 3.28446 18.2389 3.79081 18.7312C4.29716 19.2234 4.98392 19.5 5.7 19.5H18.3C19.0161 19.5 19.7028 19.2234 20.2092 18.7312C20.7155 18.2389 21 17.5712 21 16.875V8.125C21 7.42881 20.7155 6.76113 20.2092 6.26884C19.7028 5.77656 19.0161 5.5 18.3 5.5H5.7ZM18.3 6.8125H5.7C5.34196 6.8125 4.99858 6.95078 4.74541 7.19692C4.49223 7.44306 4.35 7.7769 4.35 8.125V9.21875H19.65V8.125C19.65 7.7769 19.5078 7.44306 19.2546 7.19692C19.0014 6.95078 18.658 6.8125 18.3 6.8125ZM4.35 16.875V10.5312H19.65V16.875C19.65 17.2231 19.5078 17.5569 19.2546 17.8031C19.0014 18.0492 18.658 18.1875 18.3 18.1875H5.7C5.34196 18.1875 4.99858 18.0492 4.74541 17.8031C4.49223 17.5569 4.35 17.2231 4.35 16.875Z" fill="black" fill-opacity="0.2"/>
<path fill-rule="evenodd" clip-rule="evenodd" d="M5.7 5.5C4.98392 5.5 4.29716 5.77656 3.79081 6.26884C3.28446 6.76113 3 7.42881 3 8.125V16.875C3 17.5712 3.28446 18.2389 3.79081 18.7312C4.29716 19.2234 4.98392 19.5 5.7 19.5H18.3C19.0161 19.5 19.7028 19.2234 20.2092 18.7312C20.7155 18.2389 21 17.5712 21 16.875V8.125C21 7.42881 20.7155 6.76113 20.2092 6.26884C19.7028 5.77656 19.0161 5.5 18.3 5.5H5.7ZM18.3 6.8125H5.7C5.34196 6.8125 4.99858 6.95078 4.74541 7.19692C4.49223 7.44306 4.35 7.7769 4.35 8.125V9.21875H19.65V8.125C19.65 7.7769 19.5078 7.44306 19.2546 7.19692C19.0014 6.95078 18.658 6.8125 18.3 6.8125ZM4.35 16.875V10.5312H19.65V16.875C19.65 17.2231 19.5078 17.5569 19.2546 17.8031C19.0014 18.0492 18.658 18.1875 18.3 18.1875H5.7C5.34196 18.1875 4.99858 18.0492 4.74541 17.8031C4.49223 17.5569 4.35 17.2231 4.35 16.875Z" fill="black" fill-opacity="0.2"/>
<path fill-rule="evenodd" clip-rule="evenodd" d="M5.7 5.5C4.98392 5.5 4.29716 5.77656 3.79081 6.26884C3.28446 6.76113 3 7.42881 3 8.125V16.875C3 17.5712 3.28446 18.2389 3.79081 18.7312C4.29716 19.2234 4.98392 19.5 5.7 19.5H18.3C19.0161 19.5 19.7028 19.2234 20.2092 18.7312C20.7155 18.2389 21 17.5712 21 16.875V8.125C21 7.42881 20.7155 6.76113 20.2092 6.26884C19.7028 5.77656 19.0161 5.5 18.3 5.5H5.7ZM18.3 6.8125H5.7C5.34196 6.8125 4.99858 6.95078 4.74541 7.19692C4.49223 7.44306 4.35 7.7769 4.35 8.125V9.21875H19.65V8.125C19.65 7.7769 19.5078 7.44306 19.2546 7.19692C19.0014 6.95078 18.658 6.8125 18.3 6.8125ZM4.35 16.875V10.5312H19.65V16.875C19.65 17.2231 19.5078 17.5569 19.2546 17.8031C19.0014 18.0492 18.658 18.1875 18.3 18.1875H5.7C5.34196 18.1875 4.99858 18.0492 4.74541 17.8031C4.49223 17.5569 4.35 17.2231 4.35 16.875Z" fill="black" fill-opacity="0.2"/>
</svg>
