<svg width="22" height="22" viewBox="0 0 22 22" fill="none" xmlns="http://www.w3.org/2000/svg">
<path d="M13.5954 15.0333H14.9633C15.6978 15.0333 16.3856 14.6433 16.8037 13.9896L19.6351 9.56295C19.8276 9.26201 19.8532 8.87154 19.702 8.54421C19.4118 7.91584 18.6298 7.7973 18.1912 8.31518L15.9436 10.9689C15.0401 12.0358 13.6209 12.386 12.3795 11.8486L9.31038 10.5199C8.54672 10.1892 7.68163 10.2867 6.99728 10.7805L3.74781 13.1252C3.32574 13.4298 3.17925 14.0268 3.40611 14.5179C3.65453 15.0557 4.25871 15.2737 4.75557 15.0048L7.45335 13.5449C7.97885 13.2604 8.55268 13.8244 8.34177 14.4179L6.82012 18.7M7.24357 3.57501H4.70284M6.39666 6.32501H4.70284M16.5596 5.86668C16.5596 7.89172 15.0429 9.53335 13.1719 9.53335C11.301 9.53335 9.78428 7.89172 9.78428 5.86668C9.78428 3.84163 11.301 2.20001 13.1719 2.20001C15.0429 2.20001 16.5596 3.84163 16.5596 5.86668Z" stroke="black" stroke-width="1.54" stroke-linecap="round" stroke-linejoin="round"/>
<path d="M13.5954 15.0333H14.9633C15.6978 15.0333 16.3856 14.6433 16.8037 13.9896L19.6351 9.56295C19.8276 9.26201 19.8532 8.87154 19.702 8.54421C19.4118 7.91584 18.6298 7.7973 18.1912 8.31518L15.9436 10.9689C15.0401 12.0358 13.6209 12.386 12.3795 11.8486L9.31038 10.5199C8.54672 10.1892 7.68163 10.2867 6.99728 10.7805L3.74781 13.1252C3.32574 13.4298 3.17925 14.0268 3.40611 14.5179C3.65453 15.0557 4.25871 15.2737 4.75557 15.0048L7.45335 13.5449C7.97885 13.2604 8.55268 13.8244 8.34177 14.4179L6.82012 18.7M7.24357 3.57501H4.70284M6.39666 6.32501H4.70284M16.5596 5.86668C16.5596 7.89172 15.0429 9.53335 13.1719 9.53335C11.301 9.53335 9.78428 7.89172 9.78428 5.86668C9.78428 3.84163 11.301 2.20001 13.1719 2.20001C15.0429 2.20001 16.5596 3.84163 16.5596 5.86668Z" stroke="black" stroke-opacity="0.2" stroke-width="1.54" stroke-linecap="round" stroke-linejoin="round"/>
<path d="M13.5954 15.0333H14.9633C15.6978 15.0333 16.3856 14.6433 16.8037 13.9896L19.6351 9.56295C19.8276 9.26201 19.8532 8.87154 19.702 8.54421C19.4118 7.91584 18.6298 7.7973 18.1912 8.31518L15.9436 10.9689C15.0401 12.0358 13.6209 12.386 12.3795 11.8486L9.31038 10.5199C8.54672 10.1892 7.68163 10.2867 6.99728 10.7805L3.74781 13.1252C3.32574 13.4298 3.17925 14.0268 3.40611 14.5179C3.65453 15.0557 4.25871 15.2737 4.75557 15.0048L7.45335 13.5449C7.97885 13.2604 8.55268 13.8244 8.34177 14.4179L6.82012 18.7M7.24357 3.57501H4.70284M6.39666 6.32501H4.70284M16.5596 5.86668C16.5596 7.89172 15.0429 9.53335 13.1719 9.53335C11.301 9.53335 9.78428 7.89172 9.78428 5.86668C9.78428 3.84163 11.301 2.20001 13.1719 2.20001C15.0429 2.20001 16.5596 3.84163 16.5596 5.86668Z" stroke="black" stroke-opacity="0.2" stroke-width="1.54" stroke-linecap="round" stroke-linejoin="round"/>
<path d="M13.5954 15.0333H14.9633C15.6978 15.0333 16.3856 14.6433 16.8037 13.9896L19.6351 9.56295C19.8276 9.26201 19.8532 8.87154 19.702 8.54421C19.4118 7.91584 18.6298 7.7973 18.1912 8.31518L15.9436 10.9689C15.0401 12.0358 13.6209 12.386 12.3795 11.8486L9.31038 10.5199C8.54672 10.1892 7.68163 10.2867 6.99728 10.7805L3.74781 13.1252C3.32574 13.4298 3.17925 14.0268 3.40611 14.5179C3.65453 15.0557 4.25871 15.2737 4.75557 15.0048L7.45335 13.5449C7.97885 13.2604 8.55268 13.8244 8.34177 14.4179L6.82012 18.7M7.24357 3.57501H4.70284M6.39666 6.32501H4.70284M16.5596 5.86668C16.5596 7.89172 15.0429 9.53335 13.1719 9.53335C11.301 9.53335 9.78428 7.89172 9.78428 5.86668C9.78428 3.84163 11.301 2.20001 13.1719 2.20001C15.0429 2.20001 16.5596 3.84163 16.5596 5.86668Z" stroke="black" stroke-opacity="0.2" stroke-width="1.54" stroke-linecap="round" stroke-linejoin="round"/>
<path d="M13.5954 15.0333H14.9633C15.6978 15.0333 16.3856 14.6433 16.8037 13.9896L19.6351 9.56295C19.8276 9.26201 19.8532 8.87154 19.702 8.54421C19.4118 7.91584 18.6298 7.7973 18.1912 8.31518L15.9436 10.9689C15.0401 12.0358 13.6209 12.386 12.3795 11.8486L9.31038 10.5199C8.54672 10.1892 7.68163 10.2867 6.99728 10.7805L3.74781 13.1252C3.32574 13.4298 3.17925 14.0268 3.40611 14.5179C3.65453 15.0557 4.25871 15.2737 4.75557 15.0048L7.45335 13.5449C7.97885 13.2604 8.55268 13.8244 8.34177 14.4179L6.82012 18.7M7.24357 3.57501H4.70284M6.39666 6.32501H4.70284M16.5596 5.86668C16.5596 7.89172 15.0429 9.53335 13.1719 9.53335C11.301 9.53335 9.78428 7.89172 9.78428 5.86668C9.78428 3.84163 11.301 2.20001 13.1719 2.20001C15.0429 2.20001 16.5596 3.84163 16.5596 5.86668Z" stroke="black" stroke-opacity="0.2" stroke-width="1.54" stroke-linecap="round" stroke-linejoin="round"/>
<path d="M13.5954 15.0333H14.9633C15.6978 15.0333 16.3856 14.6433 16.8037 13.9896L19.6351 9.56295C19.8276 9.26201 19.8532 8.87154 19.702 8.54421C19.4118 7.91584 18.6298 7.7973 18.1912 8.31518L15.9436 10.9689C15.0401 12.0358 13.6209 12.386 12.3795 11.8486L9.31038 10.5199C8.54672 10.1892 7.68163 10.2867 6.99728 10.7805L3.74781 13.1252C3.32574 13.4298 3.17925 14.0268 3.40611 14.5179C3.65453 15.0557 4.25871 15.2737 4.75557 15.0048L7.45335 13.5449C7.97885 13.2604 8.55268 13.8244 8.34177 14.4179L6.82012 18.7M7.24357 3.57501H4.70284M6.39666 6.32501H4.70284M16.5596 5.86668C16.5596 7.89172 15.0429 9.53335 13.1719 9.53335C11.301 9.53335 9.78428 7.89172 9.78428 5.86668C9.78428 3.84163 11.301 2.20001 13.1719 2.20001C15.0429 2.20001 16.5596 3.84163 16.5596 5.86668Z" stroke="black" stroke-opacity="0.2" stroke-width="1.54" stroke-linecap="round" stroke-linejoin="round"/>
</svg>
