<svg width="10" height="10" viewBox="0 0 10 10" fill="none" xmlns="http://www.w3.org/2000/svg">
<g clip-path="url(#clip0_220_425)">
<path d="M5.00041 9.16665C7.30159 9.16665 9.16707 7.30117 9.16707 4.99998C9.16707 2.69879 7.30159 0.833313 5.00041 0.833313C2.69922 0.833313 0.83374 2.69879 0.83374 4.99998C0.83374 7.30117 2.69922 9.16665 5.00041 9.16665Z" stroke="black"/>
<path d="M5.00041 9.16665C7.30159 9.16665 9.16707 7.30117 9.16707 4.99998C9.16707 2.69879 7.30159 0.833313 5.00041 0.833313C2.69922 0.833313 0.83374 2.69879 0.83374 4.99998C0.83374 7.30117 2.69922 9.16665 5.00041 9.16665Z" stroke="black" stroke-opacity="0.2"/>
<path d="M5.00041 9.16665C7.30159 9.16665 9.16707 7.30117 9.16707 4.99998C9.16707 2.69879 7.30159 0.833313 5.00041 0.833313C2.69922 0.833313 0.83374 2.69879 0.83374 4.99998C0.83374 7.30117 2.69922 9.16665 5.00041 9.16665Z" stroke="black" stroke-opacity="0.2"/>
<path d="M5.00041 9.16665C7.30159 9.16665 9.16707 7.30117 9.16707 4.99998C9.16707 2.69879 7.30159 0.833313 5.00041 0.833313C2.69922 0.833313 0.83374 2.69879 0.83374 4.99998C0.83374 7.30117 2.69922 9.16665 5.00041 9.16665Z" stroke="black" stroke-opacity="0.2"/>
<path d="M5.00041 9.16665C7.30159 9.16665 9.16707 7.30117 9.16707 4.99998C9.16707 2.69879 7.30159 0.833313 5.00041 0.833313C2.69922 0.833313 0.83374 2.69879 0.83374 4.99998C0.83374 7.30117 2.69922 9.16665 5.00041 9.16665Z" stroke="black" stroke-opacity="0.2"/>
<path d="M5.00041 9.16665C7.30159 9.16665 9.16707 7.30117 9.16707 4.99998C9.16707 2.69879 7.30159 0.833313 5.00041 0.833313C2.69922 0.833313 0.83374 2.69879 0.83374 4.99998C0.83374 7.30117 2.69922 9.16665 5.00041 9.16665Z" stroke="black" stroke-opacity="0.2"/>
<path d="M3.54126 5.20831L4.37459 6.04165L6.45793 3.95831" stroke="black" stroke-linecap="round" stroke-linejoin="round"/>
<path d="M3.54126 5.20831L4.37459 6.04165L6.45793 3.95831" stroke="black" stroke-opacity="0.2" stroke-linecap="round" stroke-linejoin="round"/>
<path d="M3.54126 5.20831L4.37459 6.04165L6.45793 3.95831" stroke="black" stroke-opacity="0.2" stroke-linecap="round" stroke-linejoin="round"/>
<path d="M3.54126 5.20831L4.37459 6.04165L6.45793 3.95831" stroke="black" stroke-opacity="0.2" stroke-linecap="round" stroke-linejoin="round"/>
<path d="M3.54126 5.20831L4.37459 6.04165L6.45793 3.95831" stroke="black" stroke-opacity="0.2" stroke-linecap="round" stroke-linejoin="round"/>
<path d="M3.54126 5.20831L4.37459 6.04165L6.45793 3.95831" stroke="black" stroke-opacity="0.2" stroke-linecap="round" stroke-linejoin="round"/>
</g>
<defs>
<clipPath id="clip0_220_425">
<rect width="10" height="10" fill="white"/>
</clipPath>
</defs>
</svg>
