<svg width="24" height="25" viewBox="0 0 24 25" fill="none" xmlns="http://www.w3.org/2000/svg">
<path d="M6.6107 21.506C6.3695 21.506 6.1691 21.3176 6.1553 21.0758L5.3273 6.46762H3.4499C3.1985 6.46762 2.9939 6.26242 2.9939 6.01162C2.9939 5.76022 3.1985 5.55502 3.4499 5.55502H5.6039L5.6969 5.57002L5.7599 5.55562H8.8625V3.95002C8.8625 3.69862 9.0665 3.49402 9.3185 3.49402H14.6819C14.9333 3.49402 15.1379 3.69862 15.1379 3.95002V5.55562H18.2423L18.3473 5.57242L18.4181 5.55562H20.5505C20.8019 5.55562 21.0065 5.76082 21.0065 6.01222C21.0065 6.26302 20.8019 6.46822 20.5505 6.46822H18.6737L17.8577 21.0758C17.8439 21.317 17.6441 21.5066 17.4023 21.5066H6.6107V21.506ZM7.0409 20.594H16.9703L17.7599 6.46762H6.2399L7.0409 20.594ZM9.7739 5.55562H14.2259V4.40602H9.7739V5.55562Z" fill="black"/>
<path d="M8.58118 7.82068C8.43178 7.82788 8.32018 7.88188 8.23918 7.97188C8.15818 8.06308 8.11738 8.18068 8.12398 8.30248L8.72278 18.8673C8.73718 19.1079 8.93698 19.2969 9.17818 19.2969V19.4109L9.20518 19.2969C9.45538 19.2825 9.64738 19.0659 9.63418 18.8145L9.03478 8.25088C9.02038 8.00968 8.82118 7.82068 8.58118 7.82068Z" fill="black"/>
<path d="M15.4254 7.82117C15.1584 7.82117 14.9598 8.00957 14.9454 8.25077L14.3454 18.8144C14.3322 19.0658 14.5242 19.2818 14.7756 19.2968L14.802 19.4108V19.2968C15.0432 19.2968 15.243 19.1084 15.2562 18.8672L15.8568 8.30237C15.8634 8.18057 15.822 8.06357 15.7416 7.97177C15.66 7.88177 15.549 7.82777 15.4278 7.82117C15.4266 7.82117 15.4254 7.82117 15.4254 7.82117Z" fill="black"/>
<path d="M11.9999 7.82068C11.7485 7.82068 11.5439 8.02528 11.5439 8.27668V18.8409C11.5439 19.0923 11.7485 19.2969 11.9999 19.2969C12.2513 19.2969 12.4559 19.0923 12.4559 18.8409V8.27668C12.4559 8.02528 12.2513 7.82068 11.9999 7.82068Z" fill="black"/>
</svg>
