<svg width="20" height="20" viewBox="0 0 20 20" fill="none" xmlns="http://www.w3.org/2000/svg">
<g clip-path="url(#clip0_279_3729)">
<path d="M17.1875 16.5625V3.43749H13.75V0.507996L3.4375 2.286V16.5625H0.625V17.8125H4.01953L13.75 19.1546V4.68749H15.9375V17.8125H19.375V16.5625H17.1875ZM12.5 17.7204L4.6875 16.6428V3.33897L12.5 1.99218V17.7204Z" fill="black"/>
<path d="M17.1875 16.5625V3.43749H13.75V0.507996L3.4375 2.286V16.5625H0.625V17.8125H4.01953L13.75 19.1546V4.68749H15.9375V17.8125H19.375V16.5625H17.1875ZM12.5 17.7204L4.6875 16.6428V3.33897L12.5 1.99218V17.7204Z" fill="black" fill-opacity="0.2"/>
<path d="M17.1875 16.5625V3.43749H13.75V0.507996L3.4375 2.286V16.5625H0.625V17.8125H4.01953L13.75 19.1546V4.68749H15.9375V17.8125H19.375V16.5625H17.1875ZM12.5 17.7204L4.6875 16.6428V3.33897L12.5 1.99218V17.7204Z" fill="black" fill-opacity="0.2"/>
<path d="M17.1875 16.5625V3.43749H13.75V0.507996L3.4375 2.286V16.5625H0.625V17.8125H4.01953L13.75 19.1546V4.68749H15.9375V17.8125H19.375V16.5625H17.1875ZM12.5 17.7204L4.6875 16.6428V3.33897L12.5 1.99218V17.7204Z" fill="black" fill-opacity="0.2"/>
<path d="M17.1875 16.5625V3.43749H13.75V0.507996L3.4375 2.286V16.5625H0.625V17.8125H4.01953L13.75 19.1546V4.68749H15.9375V17.8125H19.375V16.5625H17.1875ZM12.5 17.7204L4.6875 16.6428V3.33897L12.5 1.99218V17.7204Z" fill="black" fill-opacity="0.2"/>
<path d="M17.1875 16.5625V3.43749H13.75V0.507996L3.4375 2.286V16.5625H0.625V17.8125H4.01953L13.75 19.1546V4.68749H15.9375V17.8125H19.375V16.5625H17.1875ZM12.5 17.7204L4.6875 16.6428V3.33897L12.5 1.99218V17.7204Z" fill="black" fill-opacity="0.2"/>
<path d="M11.25 9.0625H10V11.5625H11.25V9.0625Z" fill="black"/>
<path d="M11.25 9.0625H10V11.5625H11.25V9.0625Z" fill="black" fill-opacity="0.2"/>
<path d="M11.25 9.0625H10V11.5625H11.25V9.0625Z" fill="black" fill-opacity="0.2"/>
<path d="M11.25 9.0625H10V11.5625H11.25V9.0625Z" fill="black" fill-opacity="0.2"/>
<path d="M11.25 9.0625H10V11.5625H11.25V9.0625Z" fill="black" fill-opacity="0.2"/>
<path d="M11.25 9.0625H10V11.5625H11.25V9.0625Z" fill="black" fill-opacity="0.2"/>
</g>
<defs>
<clipPath id="clip0_279_3729">
<rect width="20" height="20" fill="white"/>
</clipPath>
</defs>
</svg>
