<svg width="13" height="12" viewBox="0 0 13 12" fill="none" xmlns="http://www.w3.org/2000/svg">
<path d="M1.76562 10.5H3.64062L9.17062 4.97L7.29563 3.095L1.76562 8.625V10.5ZM2.76562 9.04L7.29563 4.51L7.75562 4.97L3.22563 9.5H2.76562V9.04ZM9.45063 1.645C9.40437 1.59865 9.34942 1.56188 9.28894 1.53679C9.22845 1.51169 9.16361 1.49878 9.09813 1.49878C9.03264 1.49878 8.9678 1.51169 8.90731 1.53679C8.84683 1.56188 8.79188 1.59865 8.74562 1.645L7.83063 2.56L9.70562 4.435L10.6206 3.52C10.667 3.47374 10.7037 3.4188 10.7288 3.35831C10.7539 3.29783 10.7668 3.23299 10.7668 3.1675C10.7668 3.10202 10.7539 3.03718 10.7288 2.97669C10.7037 2.9162 10.667 2.86126 10.6206 2.815L9.45063 1.645Z" fill="white"/>
</svg>
