<svg width="80" height="80" viewBox="0 0 80 80" fill="none" xmlns="http://www.w3.org/2000/svg">
<path d="M35.4766 10.453C37.0015 7.95448 40.2632 7.16446 42.7617 8.68933C43.4811 9.12842 44.0853 9.73357 44.5244 10.453L77.5713 64.5985C79.0962 67.097 78.3069 70.3587 75.8086 71.8837C74.9772 72.3911 74.0219 72.6599 73.0479 72.66H6.95312C4.02622 72.6599 1.65346 70.2871 1.65332 67.3602L1.66602 66.996C1.72433 66.149 1.98559 65.3262 2.42969 64.5985L35.4766 10.453ZM40.1562 12.9579C40.0149 12.8717 39.8304 12.9162 39.7441 13.0575L6.69727 67.204C6.66862 67.251 6.65331 67.3052 6.65332 67.3602C6.65342 67.5257 6.78766 67.6599 6.95312 67.66H73.0479C73.1028 67.66 73.157 67.6448 73.2041 67.6161L73.252 67.579C73.3539 67.4839 73.3791 67.3276 73.3037 67.204L40.2871 13.1073L40.2852 13.1053L40.2568 13.0575C40.232 13.0168 40.1969 12.9827 40.1562 12.9579ZM40 53.9003C42.0433 53.9003 43.6999 55.5562 43.7002 57.5995C43.7002 59.643 42.0435 61.2997 40 61.2997C37.9567 61.2995 36.3008 59.6429 36.3008 57.5995C36.301 55.5563 37.9568 53.9005 40 53.9003ZM40 25.9003C42.0433 25.9003 43.6999 27.5562 43.7002 29.5995V47.2001C43.7001 49.2435 42.0434 50.9003 40 50.9003C37.9567 50.9001 36.3008 49.2434 36.3008 47.2001V29.5995C36.301 27.5563 37.9568 25.9005 40 25.9003Z" fill="#A6A6A6" stroke="#A6A6A6"/>
</svg>
