<svg width="24" height="25" viewBox="0 0 24 25" fill="none" xmlns="http://www.w3.org/2000/svg">
<path d="M17.961 8.35382L14.2859 4.85353C14.0624 4.63959 13.7574 4.51777 13.4434 4.51777L6.52198 4.49994C5.68248 4.49994 5 5.16553 5 5.98563V18.2218C5 19.027 5.70362 19.7104 6.53708 19.7104H16.7742C17.5926 19.7104 18.257 19.0419 18.257 18.2188V9.06398C18.257 8.78764 18.1513 8.53508 17.961 8.35382ZM14.2708 6.49374L16.1703 8.30034H14.6C14.4248 8.30034 14.2708 8.16662 14.2708 8.01508V6.49374ZM16.7742 18.5219H6.53708C6.36797 18.5219 6.20792 18.3763 6.20792 18.2188V5.98563C6.20792 5.82815 6.35589 5.68849 6.52198 5.68849L13.0629 5.70632V8.01508C13.0629 8.82627 13.7514 9.48889 14.6 9.48889H17.049V18.2188C17.049 18.3674 16.9464 18.5219 16.7742 18.5219Z" fill="black"/>
<path d="M17.961 8.35382L14.2859 4.85353C14.0624 4.63959 13.7574 4.51777 13.4434 4.51777L6.52198 4.49994C5.68248 4.49994 5 5.16553 5 5.98563V18.2218C5 19.027 5.70362 19.7104 6.53708 19.7104H16.7742C17.5926 19.7104 18.257 19.0419 18.257 18.2188V9.06398C18.257 8.78764 18.1513 8.53508 17.961 8.35382ZM14.2708 6.49374L16.1703 8.30034H14.6C14.4248 8.30034 14.2708 8.16662 14.2708 8.01508V6.49374ZM16.7742 18.5219H6.53708C6.36797 18.5219 6.20792 18.3763 6.20792 18.2188V5.98563C6.20792 5.82815 6.35589 5.68849 6.52198 5.68849L13.0629 5.70632V8.01508C13.0629 8.82627 13.7514 9.48889 14.6 9.48889H17.049V18.2188C17.049 18.3674 16.9464 18.5219 16.7742 18.5219Z" fill="black" fill-opacity="0.2"/>
<path d="M17.961 8.35382L14.2859 4.85353C14.0624 4.63959 13.7574 4.51777 13.4434 4.51777L6.52198 4.49994C5.68248 4.49994 5 5.16553 5 5.98563V18.2218C5 19.027 5.70362 19.7104 6.53708 19.7104H16.7742C17.5926 19.7104 18.257 19.0419 18.257 18.2188V9.06398C18.257 8.78764 18.1513 8.53508 17.961 8.35382ZM14.2708 6.49374L16.1703 8.30034H14.6C14.4248 8.30034 14.2708 8.16662 14.2708 8.01508V6.49374ZM16.7742 18.5219H6.53708C6.36797 18.5219 6.20792 18.3763 6.20792 18.2188V5.98563C6.20792 5.82815 6.35589 5.68849 6.52198 5.68849L13.0629 5.70632V8.01508C13.0629 8.82627 13.7514 9.48889 14.6 9.48889H17.049V18.2188C17.049 18.3674 16.9464 18.5219 16.7742 18.5219Z" fill="black" fill-opacity="0.2"/>
<path d="M17.961 8.35382L14.2859 4.85353C14.0624 4.63959 13.7574 4.51777 13.4434 4.51777L6.52198 4.49994C5.68248 4.49994 5 5.16553 5 5.98563V18.2218C5 19.027 5.70362 19.7104 6.53708 19.7104H16.7742C17.5926 19.7104 18.257 19.0419 18.257 18.2188V9.06398C18.257 8.78764 18.1513 8.53508 17.961 8.35382ZM14.2708 6.49374L16.1703 8.30034H14.6C14.4248 8.30034 14.2708 8.16662 14.2708 8.01508V6.49374ZM16.7742 18.5219H6.53708C6.36797 18.5219 6.20792 18.3763 6.20792 18.2188V5.98563C6.20792 5.82815 6.35589 5.68849 6.52198 5.68849L13.0629 5.70632V8.01508C13.0629 8.82627 13.7514 9.48889 14.6 9.48889H17.049V18.2188C17.049 18.3674 16.9464 18.5219 16.7742 18.5219Z" fill="black" fill-opacity="0.2"/>
<path d="M17.961 8.35382L14.2859 4.85353C14.0624 4.63959 13.7574 4.51777 13.4434 4.51777L6.52198 4.49994C5.68248 4.49994 5 5.16553 5 5.98563V18.2218C5 19.027 5.70362 19.7104 6.53708 19.7104H16.7742C17.5926 19.7104 18.257 19.0419 18.257 18.2188V9.06398C18.257 8.78764 18.1513 8.53508 17.961 8.35382ZM14.2708 6.49374L16.1703 8.30034H14.6C14.4248 8.30034 14.2708 8.16662 14.2708 8.01508V6.49374ZM16.7742 18.5219H6.53708C6.36797 18.5219 6.20792 18.3763 6.20792 18.2188V5.98563C6.20792 5.82815 6.35589 5.68849 6.52198 5.68849L13.0629 5.70632V8.01508C13.0629 8.82627 13.7514 9.48889 14.6 9.48889H17.049V18.2188C17.049 18.3674 16.9464 18.5219 16.7742 18.5219Z" fill="black" fill-opacity="0.2"/>
<path d="M17.961 8.35382L14.2859 4.85353C14.0624 4.63959 13.7574 4.51777 13.4434 4.51777L6.52198 4.49994C5.68248 4.49994 5 5.16553 5 5.98563V18.2218C5 19.027 5.70362 19.7104 6.53708 19.7104H16.7742C17.5926 19.7104 18.257 19.0419 18.257 18.2188V9.06398C18.257 8.78764 18.1513 8.53508 17.961 8.35382ZM14.2708 6.49374L16.1703 8.30034H14.6C14.4248 8.30034 14.2708 8.16662 14.2708 8.01508V6.49374ZM16.7742 18.5219H6.53708C6.36797 18.5219 6.20792 18.3763 6.20792 18.2188V5.98563C6.20792 5.82815 6.35589 5.68849 6.52198 5.68849L13.0629 5.70632V8.01508C13.0629 8.82627 13.7514 9.48889 14.6 9.48889H17.049V18.2188C17.049 18.3674 16.9464 18.5219 16.7742 18.5219Z" fill="black" fill-opacity="0.2"/>
<path d="M7.6272 12.4305C7.6272 12.7573 7.89898 13.0247 8.23116 13.0247H13.5158C13.848 13.0247 14.1198 12.7573 14.1198 12.4305C14.1198 12.1036 13.848 11.8362 13.5158 11.8362H8.23116C7.89898 11.8362 7.6272 12.1036 7.6272 12.4305Z" fill="black"/>
<path d="M7.6272 12.4305C7.6272 12.7573 7.89898 13.0247 8.23116 13.0247H13.5158C13.848 13.0247 14.1198 12.7573 14.1198 12.4305C14.1198 12.1036 13.848 11.8362 13.5158 11.8362H8.23116C7.89898 11.8362 7.6272 12.1036 7.6272 12.4305Z" fill="black" fill-opacity="0.2"/>
<path d="M7.6272 12.4305C7.6272 12.7573 7.89898 13.0247 8.23116 13.0247H13.5158C13.848 13.0247 14.1198 12.7573 14.1198 12.4305C14.1198 12.1036 13.848 11.8362 13.5158 11.8362H8.23116C7.89898 11.8362 7.6272 12.1036 7.6272 12.4305Z" fill="black" fill-opacity="0.2"/>
<path d="M7.6272 12.4305C7.6272 12.7573 7.89898 13.0247 8.23116 13.0247H13.5158C13.848 13.0247 14.1198 12.7573 14.1198 12.4305C14.1198 12.1036 13.848 11.8362 13.5158 11.8362H8.23116C7.89898 11.8362 7.6272 12.1036 7.6272 12.4305Z" fill="black" fill-opacity="0.2"/>
<path d="M7.6272 12.4305C7.6272 12.7573 7.89898 13.0247 8.23116 13.0247H13.5158C13.848 13.0247 14.1198 12.7573 14.1198 12.4305C14.1198 12.1036 13.848 11.8362 13.5158 11.8362H8.23116C7.89898 11.8362 7.6272 12.1036 7.6272 12.4305Z" fill="black" fill-opacity="0.2"/>
<path d="M7.6272 12.4305C7.6272 12.7573 7.89898 13.0247 8.23116 13.0247H13.5158C13.848 13.0247 14.1198 12.7573 14.1198 12.4305C14.1198 12.1036 13.848 11.8362 13.5158 11.8362H8.23116C7.89898 11.8362 7.6272 12.1036 7.6272 12.4305Z" fill="black" fill-opacity="0.2"/>
<path d="M8.20113 10.6477H11.7041C12.0363 10.6477 12.3081 10.3803 12.3081 10.0534C12.3081 9.72659 12.0363 9.45917 11.7041 9.45917H8.20113C7.86895 9.45917 7.59717 9.72659 7.59717 10.0534C7.59717 10.3803 7.86895 10.6477 8.20113 10.6477Z" fill="black"/>
<path d="M8.20113 10.6477H11.7041C12.0363 10.6477 12.3081 10.3803 12.3081 10.0534C12.3081 9.72659 12.0363 9.45917 11.7041 9.45917H8.20113C7.86895 9.45917 7.59717 9.72659 7.59717 10.0534C7.59717 10.3803 7.86895 10.6477 8.20113 10.6477Z" fill="black" fill-opacity="0.2"/>
<path d="M8.20113 10.6477H11.7041C12.0363 10.6477 12.3081 10.3803 12.3081 10.0534C12.3081 9.72659 12.0363 9.45917 11.7041 9.45917H8.20113C7.86895 9.45917 7.59717 9.72659 7.59717 10.0534C7.59717 10.3803 7.86895 10.6477 8.20113 10.6477Z" fill="black" fill-opacity="0.2"/>
<path d="M8.20113 10.6477H11.7041C12.0363 10.6477 12.3081 10.3803 12.3081 10.0534C12.3081 9.72659 12.0363 9.45917 11.7041 9.45917H8.20113C7.86895 9.45917 7.59717 9.72659 7.59717 10.0534C7.59717 10.3803 7.86895 10.6477 8.20113 10.6477Z" fill="black" fill-opacity="0.2"/>
<path d="M8.20113 10.6477H11.7041C12.0363 10.6477 12.3081 10.3803 12.3081 10.0534C12.3081 9.72659 12.0363 9.45917 11.7041 9.45917H8.20113C7.86895 9.45917 7.59717 9.72659 7.59717 10.0534C7.59717 10.3803 7.86895 10.6477 8.20113 10.6477Z" fill="black" fill-opacity="0.2"/>
<path d="M8.20113 10.6477H11.7041C12.0363 10.6477 12.3081 10.3803 12.3081 10.0534C12.3081 9.72659 12.0363 9.45917 11.7041 9.45917H8.20113C7.86895 9.45917 7.59717 9.72659 7.59717 10.0534C7.59717 10.3803 7.86895 10.6477 8.20113 10.6477Z" fill="black" fill-opacity="0.2"/>
<path d="M15.0257 14.2134H8.23116C7.89898 14.2134 7.6272 14.4808 7.6272 14.8077C7.6272 15.1345 7.89898 15.4019 8.23116 15.4019H15.0257C15.3579 15.4019 15.6297 15.1345 15.6297 14.8077C15.6297 14.4808 15.3579 14.2134 15.0257 14.2134Z" fill="black"/>
<path d="M15.0257 14.2134H8.23116C7.89898 14.2134 7.6272 14.4808 7.6272 14.8077C7.6272 15.1345 7.89898 15.4019 8.23116 15.4019H15.0257C15.3579 15.4019 15.6297 15.1345 15.6297 14.8077C15.6297 14.4808 15.3579 14.2134 15.0257 14.2134Z" fill="black" fill-opacity="0.2"/>
<path d="M15.0257 14.2134H8.23116C7.89898 14.2134 7.6272 14.4808 7.6272 14.8077C7.6272 15.1345 7.89898 15.4019 8.23116 15.4019H15.0257C15.3579 15.4019 15.6297 15.1345 15.6297 14.8077C15.6297 14.4808 15.3579 14.2134 15.0257 14.2134Z" fill="black" fill-opacity="0.2"/>
<path d="M15.0257 14.2134H8.23116C7.89898 14.2134 7.6272 14.4808 7.6272 14.8077C7.6272 15.1345 7.89898 15.4019 8.23116 15.4019H15.0257C15.3579 15.4019 15.6297 15.1345 15.6297 14.8077C15.6297 14.4808 15.3579 14.2134 15.0257 14.2134Z" fill="black" fill-opacity="0.2"/>
<path d="M15.0257 14.2134H8.23116C7.89898 14.2134 7.6272 14.4808 7.6272 14.8077C7.6272 15.1345 7.89898 15.4019 8.23116 15.4019H15.0257C15.3579 15.4019 15.6297 15.1345 15.6297 14.8077C15.6297 14.4808 15.3579 14.2134 15.0257 14.2134Z" fill="black" fill-opacity="0.2"/>
<path d="M15.0257 14.2134H8.23116C7.89898 14.2134 7.6272 14.4808 7.6272 14.8077C7.6272 15.1345 7.89898 15.4019 8.23116 15.4019H15.0257C15.3579 15.4019 15.6297 15.1345 15.6297 14.8077C15.6297 14.4808 15.3579 14.2134 15.0257 14.2134Z" fill="black" fill-opacity="0.2"/>
</svg>
