<svg width="24" height="24" viewBox="0 0 24 24" fill="none" xmlns="http://www.w3.org/2000/svg">
<path d="M18.8369 7.61051L13.4703 3.07919C12.9783 2.65538 12.3414 2.42108 11.6814 2.42108C11.0213 2.42108 10.3845 2.65538 9.8925 3.07919L4.52587 7.61051C4.24177 7.85523 4.01506 8.15544 3.86083 8.49115C3.7066 8.82685 3.6284 9.19035 3.63143 9.55743V17.0867C3.63143 17.7721 3.91414 18.4295 4.41736 18.9141C4.92058 19.3988 5.60309 19.6711 6.31475 19.6711H17.048C17.7597 19.6711 18.4422 19.3988 18.9454 18.9141C19.4486 18.4295 19.7313 17.7721 19.7313 17.0867V9.54882C19.7331 9.18318 19.6543 8.82134 19.5001 8.48721C19.3459 8.15309 19.1198 7.85427 18.8369 7.61051ZM13.4703 17.9481H9.8925V13.6408C9.8925 13.4123 9.98673 13.1932 10.1545 13.0316C10.3222 12.8701 10.5497 12.7793 10.7869 12.7793H12.5758C12.813 12.7793 13.0405 12.8701 13.2083 13.0316C13.376 13.1932 13.4703 13.4123 13.4703 13.6408V17.9481ZM17.9424 17.0867C17.9424 17.3152 17.8482 17.5343 17.6805 17.6958C17.5127 17.8574 17.2852 17.9481 17.048 17.9481H15.2591V13.6408C15.2591 12.9554 14.9764 12.298 14.4732 11.8133C13.97 11.3287 13.2875 11.0564 12.5758 11.0564H10.7869C10.0753 11.0564 9.39277 11.3287 8.88955 11.8133C8.38633 12.298 8.10362 12.9554 8.10362 13.6408V17.9481H6.31475C6.07753 17.9481 5.85002 17.8574 5.68228 17.6958C5.51454 17.5343 5.42031 17.3152 5.42031 17.0867V9.54882C5.42047 9.4265 5.44767 9.30562 5.50011 9.19422C5.55254 9.08282 5.62901 8.98345 5.72442 8.90272L11.091 4.38C11.2543 4.24189 11.4641 4.16573 11.6814 4.16573C11.8986 4.16573 12.1085 4.24189 12.2717 4.38L17.6383 8.90272C17.7337 8.98345 17.8102 9.08282 17.8626 9.19422C17.9151 9.30562 17.9423 9.4265 17.9424 9.54882V17.0867Z" fill="white"/>
</svg>
