<svg width="18" height="19" viewBox="0 0 18 19" fill="none" xmlns="http://www.w3.org/2000/svg">
<path d="M15.75 3.70831H2.25C1.95163 3.70831 1.66548 3.82684 1.4545 4.03782C1.24353 4.2488 1.125 4.53494 1.125 4.83331V13.8333C1.125 14.1317 1.24353 14.4178 1.4545 14.6288C1.66548 14.8398 1.95163 14.9583 2.25 14.9583H15.75C16.0484 14.9583 16.3345 14.8398 16.5455 14.6288C16.7565 14.4178 16.875 14.1317 16.875 13.8333V4.83331C16.875 4.53494 16.7565 4.2488 16.5455 4.03782C16.3345 3.82684 16.0484 3.70831 15.75 3.70831ZM15.75 13.8333H2.25V4.83331H15.75V13.8333Z" fill="white"/>
<path d="M10.125 8.20831H14.0625C14.2117 8.20831 14.3548 8.14905 14.4602 8.04356C14.5657 7.93807 14.625 7.795 14.625 7.64581C14.625 7.49663 14.5657 7.35355 14.4602 7.24807C14.3548 7.14258 14.2117 7.08331 14.0625 7.08331H10.125C9.97582 7.08331 9.83274 7.14258 9.72725 7.24807C9.62176 7.35355 9.5625 7.49663 9.5625 7.64581C9.5625 7.795 9.62176 7.93807 9.72725 8.04356C9.83274 8.14905 9.97582 8.20831 10.125 8.20831Z" fill="white"/>
<path d="M10.125 10.4583H12.375C12.5242 10.4583 12.6673 10.3991 12.7727 10.2936C12.8782 10.1881 12.9375 10.045 12.9375 9.89581C12.9375 9.74663 12.8782 9.60355 12.7727 9.49806C12.6673 9.39258 12.5242 9.33331 12.375 9.33331H10.125C9.97582 9.33331 9.83274 9.39258 9.72725 9.49806C9.62176 9.60355 9.5625 9.74663 9.5625 9.89581C9.5625 10.045 9.62176 10.1881 9.72725 10.2936C9.83274 10.3991 9.97582 10.4583 10.125 10.4583Z" fill="white"/>
<path d="M3.876 11.4959C4.00888 11.4959 4.13631 11.4435 4.23026 11.3502C4.32422 11.2569 4.377 11.1304 4.377 10.9984C4.377 10.8591 4.81789 10.5556 5.01829 10.5009H5.0734C5.28029 10.4568 5.47096 10.357 5.6245 10.2124C5.78929 10.2505 5.96071 10.2505 6.1255 10.2124C6.27904 10.357 6.46971 10.4568 6.6766 10.5009H6.71167C6.9271 10.5805 7.35296 10.884 7.373 11.0233C7.373 11.1552 7.42578 11.2818 7.51974 11.3751C7.61369 11.4684 7.74112 11.5208 7.874 11.5208C8.00687 11.5208 8.1343 11.4684 8.22826 11.3751C8.32222 11.2818 8.375 11.1552 8.375 11.0233C8.375 10.1427 7.18763 9.60041 7.01227 9.53076C7.29666 9.07758 7.42664 8.54556 7.38302 8.01335C7.36361 7.62373 7.19902 7.2552 6.92125 6.97936C6.64348 6.70352 6.27236 6.54009 5.88001 6.52081C5.48766 6.54009 5.11654 6.70352 4.83877 6.97936C4.561 7.2552 4.39641 7.62373 4.377 8.01335C4.3388 8.53726 4.46858 9.05972 4.74775 9.50589C4.56237 9.57554 3.375 10.1178 3.375 10.9984C3.375 11.1304 3.42778 11.2569 3.52174 11.3502C3.6157 11.4435 3.74313 11.4959 3.876 11.4959ZM5.88001 7.51584C6.00675 7.53312 6.12432 7.59109 6.21477 7.68092C6.30523 7.77075 6.36361 7.88749 6.38101 8.01335C6.41447 8.21764 6.39977 8.42684 6.33804 8.62453C6.27632 8.82222 6.16927 9.003 6.0253 9.15265C6.00623 9.17161 5.98358 9.18664 5.95865 9.1969C5.93372 9.20716 5.907 9.21244 5.88001 9.21244C5.85302 9.21244 5.8263 9.20716 5.80137 9.1969C5.77645 9.18664 5.7538 9.17161 5.73472 9.15265C5.59042 9.00321 5.48316 8.82246 5.42141 8.6247C5.35967 8.42695 5.34515 8.21764 5.37901 8.01335C5.39641 7.88749 5.45479 7.77075 5.54525 7.68092C5.6357 7.59109 5.75327 7.53312 5.88001 7.51584Z" fill="white"/>
</svg>
