<svg width="24" height="25" viewBox="0 0 24 25" fill="none" xmlns="http://www.w3.org/2000/svg">
<path d="M11.9999 4.09998C7.37145 4.09998 3.59985 7.87158 3.59985 12.5C3.59985 17.1284 7.37145 20.9 11.9999 20.9C16.6283 20.9 20.3999 17.1284 20.3999 12.5C20.3999 7.87158 16.6283 4.09998 11.9999 4.09998ZM19.5599 12.5C19.5599 13.382 19.4003 14.2304 19.1231 15.02H15.9731C16.1579 13.9532 16.1999 13.0712 16.1999 12.5C16.1999 11.6096 16.1159 10.7696 15.9815 9.97998H19.1231C19.4003 10.7696 19.5599 11.618 19.5599 12.5ZM18.7619 9.13998H15.8135C15.4691 7.63638 14.9231 6.36798 14.3687 5.32638C16.2923 5.96478 17.8715 7.35078 18.7703 9.13998H18.7619ZM15.3599 12.5C15.3599 12.9452 15.3347 13.8524 15.1247 15.02H8.86665C8.72385 14.2388 8.63985 13.3988 8.63985 12.5C8.63985 12.0548 8.66505 11.1476 8.87505 9.97998H15.1331C15.2759 10.7612 15.3599 11.6012 15.3599 12.5ZM13.2599 5.05758C13.8731 6.08238 14.5367 7.44318 14.9567 9.13998H9.05145C9.34545 7.91358 9.87465 6.49398 10.7483 5.04918C11.1599 4.98198 11.5715 4.93998 11.9999 4.93998C12.4283 4.93998 12.8483 4.98198 13.2599 5.05758ZM9.62265 5.32638C8.90865 6.67038 8.45505 7.98078 8.18625 9.13998H5.22945C6.11985 7.35078 7.69905 5.96478 9.62265 5.32638ZM8.00985 15.02H4.86825C4.59105 14.2304 4.43145 13.382 4.43145 12.5C4.43145 11.618 4.59105 10.7696 4.86825 9.97998H8.01825C7.83345 11.0468 7.79145 11.9288 7.79145 12.5C7.79145 13.3904 7.87545 14.2304 8.00985 15.02ZM5.22945 15.86H8.17785C8.52225 17.3636 9.06825 18.632 9.62265 19.6736C7.69905 19.0352 6.11985 17.6492 5.22105 15.86H5.22945ZM10.7315 19.9424C10.1183 18.9176 9.45465 17.5568 9.03465 15.86H14.9399C14.6459 17.0864 14.1167 18.506 13.2431 19.9508C12.8315 20.018 12.4199 20.06 11.9915 20.06C11.5631 20.06 11.1431 20.018 10.7315 19.9424ZM14.3687 19.6736C15.0827 18.3296 15.5363 17.0192 15.8051 15.86H18.7619C17.8715 17.6492 16.2923 19.0352 14.3687 19.6736Z" fill="black"/>
<path d="M11.9999 4.09998C7.37145 4.09998 3.59985 7.87158 3.59985 12.5C3.59985 17.1284 7.37145 20.9 11.9999 20.9C16.6283 20.9 20.3999 17.1284 20.3999 12.5C20.3999 7.87158 16.6283 4.09998 11.9999 4.09998ZM19.5599 12.5C19.5599 13.382 19.4003 14.2304 19.1231 15.02H15.9731C16.1579 13.9532 16.1999 13.0712 16.1999 12.5C16.1999 11.6096 16.1159 10.7696 15.9815 9.97998H19.1231C19.4003 10.7696 19.5599 11.618 19.5599 12.5ZM18.7619 9.13998H15.8135C15.4691 7.63638 14.9231 6.36798 14.3687 5.32638C16.2923 5.96478 17.8715 7.35078 18.7703 9.13998H18.7619ZM15.3599 12.5C15.3599 12.9452 15.3347 13.8524 15.1247 15.02H8.86665C8.72385 14.2388 8.63985 13.3988 8.63985 12.5C8.63985 12.0548 8.66505 11.1476 8.87505 9.97998H15.1331C15.2759 10.7612 15.3599 11.6012 15.3599 12.5ZM13.2599 5.05758C13.8731 6.08238 14.5367 7.44318 14.9567 9.13998H9.05145C9.34545 7.91358 9.87465 6.49398 10.7483 5.04918C11.1599 4.98198 11.5715 4.93998 11.9999 4.93998C12.4283 4.93998 12.8483 4.98198 13.2599 5.05758ZM9.62265 5.32638C8.90865 6.67038 8.45505 7.98078 8.18625 9.13998H5.22945C6.11985 7.35078 7.69905 5.96478 9.62265 5.32638ZM8.00985 15.02H4.86825C4.59105 14.2304 4.43145 13.382 4.43145 12.5C4.43145 11.618 4.59105 10.7696 4.86825 9.97998H8.01825C7.83345 11.0468 7.79145 11.9288 7.79145 12.5C7.79145 13.3904 7.87545 14.2304 8.00985 15.02ZM5.22945 15.86H8.17785C8.52225 17.3636 9.06825 18.632 9.62265 19.6736C7.69905 19.0352 6.11985 17.6492 5.22105 15.86H5.22945ZM10.7315 19.9424C10.1183 18.9176 9.45465 17.5568 9.03465 15.86H14.9399C14.6459 17.0864 14.1167 18.506 13.2431 19.9508C12.8315 20.018 12.4199 20.06 11.9915 20.06C11.5631 20.06 11.1431 20.018 10.7315 19.9424ZM14.3687 19.6736C15.0827 18.3296 15.5363 17.0192 15.8051 15.86H18.7619C17.8715 17.6492 16.2923 19.0352 14.3687 19.6736Z" fill="black" fill-opacity="0.2"/>
<path d="M11.9999 4.09998C7.37145 4.09998 3.59985 7.87158 3.59985 12.5C3.59985 17.1284 7.37145 20.9 11.9999 20.9C16.6283 20.9 20.3999 17.1284 20.3999 12.5C20.3999 7.87158 16.6283 4.09998 11.9999 4.09998ZM19.5599 12.5C19.5599 13.382 19.4003 14.2304 19.1231 15.02H15.9731C16.1579 13.9532 16.1999 13.0712 16.1999 12.5C16.1999 11.6096 16.1159 10.7696 15.9815 9.97998H19.1231C19.4003 10.7696 19.5599 11.618 19.5599 12.5ZM18.7619 9.13998H15.8135C15.4691 7.63638 14.9231 6.36798 14.3687 5.32638C16.2923 5.96478 17.8715 7.35078 18.7703 9.13998H18.7619ZM15.3599 12.5C15.3599 12.9452 15.3347 13.8524 15.1247 15.02H8.86665C8.72385 14.2388 8.63985 13.3988 8.63985 12.5C8.63985 12.0548 8.66505 11.1476 8.87505 9.97998H15.1331C15.2759 10.7612 15.3599 11.6012 15.3599 12.5ZM13.2599 5.05758C13.8731 6.08238 14.5367 7.44318 14.9567 9.13998H9.05145C9.34545 7.91358 9.87465 6.49398 10.7483 5.04918C11.1599 4.98198 11.5715 4.93998 11.9999 4.93998C12.4283 4.93998 12.8483 4.98198 13.2599 5.05758ZM9.62265 5.32638C8.90865 6.67038 8.45505 7.98078 8.18625 9.13998H5.22945C6.11985 7.35078 7.69905 5.96478 9.62265 5.32638ZM8.00985 15.02H4.86825C4.59105 14.2304 4.43145 13.382 4.43145 12.5C4.43145 11.618 4.59105 10.7696 4.86825 9.97998H8.01825C7.83345 11.0468 7.79145 11.9288 7.79145 12.5C7.79145 13.3904 7.87545 14.2304 8.00985 15.02ZM5.22945 15.86H8.17785C8.52225 17.3636 9.06825 18.632 9.62265 19.6736C7.69905 19.0352 6.11985 17.6492 5.22105 15.86H5.22945ZM10.7315 19.9424C10.1183 18.9176 9.45465 17.5568 9.03465 15.86H14.9399C14.6459 17.0864 14.1167 18.506 13.2431 19.9508C12.8315 20.018 12.4199 20.06 11.9915 20.06C11.5631 20.06 11.1431 20.018 10.7315 19.9424ZM14.3687 19.6736C15.0827 18.3296 15.5363 17.0192 15.8051 15.86H18.7619C17.8715 17.6492 16.2923 19.0352 14.3687 19.6736Z" fill="black" fill-opacity="0.2"/>
<path d="M11.9999 4.09998C7.37145 4.09998 3.59985 7.87158 3.59985 12.5C3.59985 17.1284 7.37145 20.9 11.9999 20.9C16.6283 20.9 20.3999 17.1284 20.3999 12.5C20.3999 7.87158 16.6283 4.09998 11.9999 4.09998ZM19.5599 12.5C19.5599 13.382 19.4003 14.2304 19.1231 15.02H15.9731C16.1579 13.9532 16.1999 13.0712 16.1999 12.5C16.1999 11.6096 16.1159 10.7696 15.9815 9.97998H19.1231C19.4003 10.7696 19.5599 11.618 19.5599 12.5ZM18.7619 9.13998H15.8135C15.4691 7.63638 14.9231 6.36798 14.3687 5.32638C16.2923 5.96478 17.8715 7.35078 18.7703 9.13998H18.7619ZM15.3599 12.5C15.3599 12.9452 15.3347 13.8524 15.1247 15.02H8.86665C8.72385 14.2388 8.63985 13.3988 8.63985 12.5C8.63985 12.0548 8.66505 11.1476 8.87505 9.97998H15.1331C15.2759 10.7612 15.3599 11.6012 15.3599 12.5ZM13.2599 5.05758C13.8731 6.08238 14.5367 7.44318 14.9567 9.13998H9.05145C9.34545 7.91358 9.87465 6.49398 10.7483 5.04918C11.1599 4.98198 11.5715 4.93998 11.9999 4.93998C12.4283 4.93998 12.8483 4.98198 13.2599 5.05758ZM9.62265 5.32638C8.90865 6.67038 8.45505 7.98078 8.18625 9.13998H5.22945C6.11985 7.35078 7.69905 5.96478 9.62265 5.32638ZM8.00985 15.02H4.86825C4.59105 14.2304 4.43145 13.382 4.43145 12.5C4.43145 11.618 4.59105 10.7696 4.86825 9.97998H8.01825C7.83345 11.0468 7.79145 11.9288 7.79145 12.5C7.79145 13.3904 7.87545 14.2304 8.00985 15.02ZM5.22945 15.86H8.17785C8.52225 17.3636 9.06825 18.632 9.62265 19.6736C7.69905 19.0352 6.11985 17.6492 5.22105 15.86H5.22945ZM10.7315 19.9424C10.1183 18.9176 9.45465 17.5568 9.03465 15.86H14.9399C14.6459 17.0864 14.1167 18.506 13.2431 19.9508C12.8315 20.018 12.4199 20.06 11.9915 20.06C11.5631 20.06 11.1431 20.018 10.7315 19.9424ZM14.3687 19.6736C15.0827 18.3296 15.5363 17.0192 15.8051 15.86H18.7619C17.8715 17.6492 16.2923 19.0352 14.3687 19.6736Z" fill="black" fill-opacity="0.2"/>
<path d="M11.9999 4.09998C7.37145 4.09998 3.59985 7.87158 3.59985 12.5C3.59985 17.1284 7.37145 20.9 11.9999 20.9C16.6283 20.9 20.3999 17.1284 20.3999 12.5C20.3999 7.87158 16.6283 4.09998 11.9999 4.09998ZM19.5599 12.5C19.5599 13.382 19.4003 14.2304 19.1231 15.02H15.9731C16.1579 13.9532 16.1999 13.0712 16.1999 12.5C16.1999 11.6096 16.1159 10.7696 15.9815 9.97998H19.1231C19.4003 10.7696 19.5599 11.618 19.5599 12.5ZM18.7619 9.13998H15.8135C15.4691 7.63638 14.9231 6.36798 14.3687 5.32638C16.2923 5.96478 17.8715 7.35078 18.7703 9.13998H18.7619ZM15.3599 12.5C15.3599 12.9452 15.3347 13.8524 15.1247 15.02H8.86665C8.72385 14.2388 8.63985 13.3988 8.63985 12.5C8.63985 12.0548 8.66505 11.1476 8.87505 9.97998H15.1331C15.2759 10.7612 15.3599 11.6012 15.3599 12.5ZM13.2599 5.05758C13.8731 6.08238 14.5367 7.44318 14.9567 9.13998H9.05145C9.34545 7.91358 9.87465 6.49398 10.7483 5.04918C11.1599 4.98198 11.5715 4.93998 11.9999 4.93998C12.4283 4.93998 12.8483 4.98198 13.2599 5.05758ZM9.62265 5.32638C8.90865 6.67038 8.45505 7.98078 8.18625 9.13998H5.22945C6.11985 7.35078 7.69905 5.96478 9.62265 5.32638ZM8.00985 15.02H4.86825C4.59105 14.2304 4.43145 13.382 4.43145 12.5C4.43145 11.618 4.59105 10.7696 4.86825 9.97998H8.01825C7.83345 11.0468 7.79145 11.9288 7.79145 12.5C7.79145 13.3904 7.87545 14.2304 8.00985 15.02ZM5.22945 15.86H8.17785C8.52225 17.3636 9.06825 18.632 9.62265 19.6736C7.69905 19.0352 6.11985 17.6492 5.22105 15.86H5.22945ZM10.7315 19.9424C10.1183 18.9176 9.45465 17.5568 9.03465 15.86H14.9399C14.6459 17.0864 14.1167 18.506 13.2431 19.9508C12.8315 20.018 12.4199 20.06 11.9915 20.06C11.5631 20.06 11.1431 20.018 10.7315 19.9424ZM14.3687 19.6736C15.0827 18.3296 15.5363 17.0192 15.8051 15.86H18.7619C17.8715 17.6492 16.2923 19.0352 14.3687 19.6736Z" fill="black" fill-opacity="0.2"/>
<path d="M11.9999 4.09998C7.37145 4.09998 3.59985 7.87158 3.59985 12.5C3.59985 17.1284 7.37145 20.9 11.9999 20.9C16.6283 20.9 20.3999 17.1284 20.3999 12.5C20.3999 7.87158 16.6283 4.09998 11.9999 4.09998ZM19.5599 12.5C19.5599 13.382 19.4003 14.2304 19.1231 15.02H15.9731C16.1579 13.9532 16.1999 13.0712 16.1999 12.5C16.1999 11.6096 16.1159 10.7696 15.9815 9.97998H19.1231C19.4003 10.7696 19.5599 11.618 19.5599 12.5ZM18.7619 9.13998H15.8135C15.4691 7.63638 14.9231 6.36798 14.3687 5.32638C16.2923 5.96478 17.8715 7.35078 18.7703 9.13998H18.7619ZM15.3599 12.5C15.3599 12.9452 15.3347 13.8524 15.1247 15.02H8.86665C8.72385 14.2388 8.63985 13.3988 8.63985 12.5C8.63985 12.0548 8.66505 11.1476 8.87505 9.97998H15.1331C15.2759 10.7612 15.3599 11.6012 15.3599 12.5ZM13.2599 5.05758C13.8731 6.08238 14.5367 7.44318 14.9567 9.13998H9.05145C9.34545 7.91358 9.87465 6.49398 10.7483 5.04918C11.1599 4.98198 11.5715 4.93998 11.9999 4.93998C12.4283 4.93998 12.8483 4.98198 13.2599 5.05758ZM9.62265 5.32638C8.90865 6.67038 8.45505 7.98078 8.18625 9.13998H5.22945C6.11985 7.35078 7.69905 5.96478 9.62265 5.32638ZM8.00985 15.02H4.86825C4.59105 14.2304 4.43145 13.382 4.43145 12.5C4.43145 11.618 4.59105 10.7696 4.86825 9.97998H8.01825C7.83345 11.0468 7.79145 11.9288 7.79145 12.5C7.79145 13.3904 7.87545 14.2304 8.00985 15.02ZM5.22945 15.86H8.17785C8.52225 17.3636 9.06825 18.632 9.62265 19.6736C7.69905 19.0352 6.11985 17.6492 5.22105 15.86H5.22945ZM10.7315 19.9424C10.1183 18.9176 9.45465 17.5568 9.03465 15.86H14.9399C14.6459 17.0864 14.1167 18.506 13.2431 19.9508C12.8315 20.018 12.4199 20.06 11.9915 20.06C11.5631 20.06 11.1431 20.018 10.7315 19.9424ZM14.3687 19.6736C15.0827 18.3296 15.5363 17.0192 15.8051 15.86H18.7619C17.8715 17.6492 16.2923 19.0352 14.3687 19.6736Z" fill="black" fill-opacity="0.2"/>
</svg>
