<svg width="24" height="25" viewBox="0 0 24 25" fill="none" xmlns="http://www.w3.org/2000/svg">
<g clip-path="url(#clip0_529_6766)">
<g clip-path="url(#clip1_529_6766)">
<path d="M12.4004 4.06702C15.7038 4.06723 18.3838 6.74699 18.3838 10.0504C18.3837 11.1623 18.0086 12.4579 17.4023 13.8112C16.7999 15.1558 15.9905 16.5089 15.1719 17.7223C14.3546 18.9336 13.5367 19.994 12.9219 20.7516C12.7246 20.9947 12.5473 21.2055 12.3994 21.3805C12.2517 21.2056 12.0759 20.9943 11.8789 20.7516C11.2641 19.994 10.4453 18.9338 9.62793 17.7223C8.80927 16.5089 7.99987 15.1558 7.39746 13.8112C6.79123 12.4579 6.41708 11.1623 6.41699 10.0504C6.41699 6.74686 9.09683 4.06702 12.4004 4.06702ZM12.4004 7.00842C10.7212 7.00842 9.3584 8.37123 9.3584 10.0504C9.35861 11.7294 10.7213 13.0914 12.4004 13.0914C14.0793 13.0912 15.4412 11.7293 15.4414 10.0504C15.4414 8.37136 14.0794 7.00863 12.4004 7.00842Z" stroke="black" stroke-width="1.33333"/>
<path d="M12.4004 4.06702C15.7038 4.06723 18.3838 6.74699 18.3838 10.0504C18.3837 11.1623 18.0086 12.4579 17.4023 13.8112C16.7999 15.1558 15.9905 16.5089 15.1719 17.7223C14.3546 18.9336 13.5367 19.994 12.9219 20.7516C12.7246 20.9947 12.5473 21.2055 12.3994 21.3805C12.2517 21.2056 12.0759 20.9943 11.8789 20.7516C11.2641 19.994 10.4453 18.9338 9.62793 17.7223C8.80927 16.5089 7.99987 15.1558 7.39746 13.8112C6.79123 12.4579 6.41708 11.1623 6.41699 10.0504C6.41699 6.74686 9.09683 4.06702 12.4004 4.06702ZM12.4004 7.00842C10.7212 7.00842 9.3584 8.37123 9.3584 10.0504C9.35861 11.7294 10.7213 13.0914 12.4004 13.0914C14.0793 13.0912 15.4412 11.7293 15.4414 10.0504C15.4414 8.37136 14.0794 7.00863 12.4004 7.00842Z" stroke="black" stroke-opacity="0.2" stroke-width="1.33333"/>
<path d="M12.4004 4.06702C15.7038 4.06723 18.3838 6.74699 18.3838 10.0504C18.3837 11.1623 18.0086 12.4579 17.4023 13.8112C16.7999 15.1558 15.9905 16.5089 15.1719 17.7223C14.3546 18.9336 13.5367 19.994 12.9219 20.7516C12.7246 20.9947 12.5473 21.2055 12.3994 21.3805C12.2517 21.2056 12.0759 20.9943 11.8789 20.7516C11.2641 19.994 10.4453 18.9338 9.62793 17.7223C8.80927 16.5089 7.99987 15.1558 7.39746 13.8112C6.79123 12.4579 6.41708 11.1623 6.41699 10.0504C6.41699 6.74686 9.09683 4.06702 12.4004 4.06702ZM12.4004 7.00842C10.7212 7.00842 9.3584 8.37123 9.3584 10.0504C9.35861 11.7294 10.7213 13.0914 12.4004 13.0914C14.0793 13.0912 15.4412 11.7293 15.4414 10.0504C15.4414 8.37136 14.0794 7.00863 12.4004 7.00842Z" stroke="black" stroke-opacity="0.2" stroke-width="1.33333"/>
<path d="M12.4004 4.06702C15.7038 4.06723 18.3838 6.74699 18.3838 10.0504C18.3837 11.1623 18.0086 12.4579 17.4023 13.8112C16.7999 15.1558 15.9905 16.5089 15.1719 17.7223C14.3546 18.9336 13.5367 19.994 12.9219 20.7516C12.7246 20.9947 12.5473 21.2055 12.3994 21.3805C12.2517 21.2056 12.0759 20.9943 11.8789 20.7516C11.2641 19.994 10.4453 18.9338 9.62793 17.7223C8.80927 16.5089 7.99987 15.1558 7.39746 13.8112C6.79123 12.4579 6.41708 11.1623 6.41699 10.0504C6.41699 6.74686 9.09683 4.06702 12.4004 4.06702ZM12.4004 7.00842C10.7212 7.00842 9.3584 8.37123 9.3584 10.0504C9.35861 11.7294 10.7213 13.0914 12.4004 13.0914C14.0793 13.0912 15.4412 11.7293 15.4414 10.0504C15.4414 8.37136 14.0794 7.00863 12.4004 7.00842Z" stroke="black" stroke-opacity="0.2" stroke-width="1.33333"/>
<path d="M12.4004 4.06702C15.7038 4.06723 18.3838 6.74699 18.3838 10.0504C18.3837 11.1623 18.0086 12.4579 17.4023 13.8112C16.7999 15.1558 15.9905 16.5089 15.1719 17.7223C14.3546 18.9336 13.5367 19.994 12.9219 20.7516C12.7246 20.9947 12.5473 21.2055 12.3994 21.3805C12.2517 21.2056 12.0759 20.9943 11.8789 20.7516C11.2641 19.994 10.4453 18.9338 9.62793 17.7223C8.80927 16.5089 7.99987 15.1558 7.39746 13.8112C6.79123 12.4579 6.41708 11.1623 6.41699 10.0504C6.41699 6.74686 9.09683 4.06702 12.4004 4.06702ZM12.4004 7.00842C10.7212 7.00842 9.3584 8.37123 9.3584 10.0504C9.35861 11.7294 10.7213 13.0914 12.4004 13.0914C14.0793 13.0912 15.4412 11.7293 15.4414 10.0504C15.4414 8.37136 14.0794 7.00863 12.4004 7.00842Z" stroke="black" stroke-opacity="0.2" stroke-width="1.33333"/>
<path d="M12.4004 4.06702C15.7038 4.06723 18.3838 6.74699 18.3838 10.0504C18.3837 11.1623 18.0086 12.4579 17.4023 13.8112C16.7999 15.1558 15.9905 16.5089 15.1719 17.7223C14.3546 18.9336 13.5367 19.994 12.9219 20.7516C12.7246 20.9947 12.5473 21.2055 12.3994 21.3805C12.2517 21.2056 12.0759 20.9943 11.8789 20.7516C11.2641 19.994 10.4453 18.9338 9.62793 17.7223C8.80927 16.5089 7.99987 15.1558 7.39746 13.8112C6.79123 12.4579 6.41708 11.1623 6.41699 10.0504C6.41699 6.74686 9.09683 4.06702 12.4004 4.06702ZM12.4004 7.00842C10.7212 7.00842 9.3584 8.37123 9.3584 10.0504C9.35861 11.7294 10.7213 13.0914 12.4004 13.0914C14.0793 13.0912 15.4412 11.7293 15.4414 10.0504C15.4414 8.37136 14.0794 7.00863 12.4004 7.00842Z" stroke="black" stroke-opacity="0.2" stroke-width="1.33333"/>
</g>
</g>
<defs>
<clipPath id="clip0_529_6766">
<rect width="24" height="24" fill="white" transform="translate(0 0.5)"/>
</clipPath>
<clipPath id="clip1_529_6766">
<rect width="22.8" height="22.8" fill="white" transform="translate(1 1.49994)"/>
</clipPath>
</defs>
</svg>
