<svg width="24" height="24" viewBox="0 0 24 24" fill="none" xmlns="http://www.w3.org/2000/svg">
<g clip-path="url(#clip0_174_2270)">
<path d="M8.44298 1.33337C8.01067 1.33511 7.66063 1.68513 7.65891 2.11745L7.65277 9.20642C7.62896 10.2795 9.25088 10.2795 9.22707 9.20642V2.90768H20.2502V21.7993H9.22706V16.2908C9.25087 15.2177 7.62895 15.2177 7.65276 16.2908L7.6589 22.5895C7.66063 23.0218 8.01067 23.3719 8.44298 23.3736H21.0405C21.4728 23.3719 21.8228 23.0218 21.8245 22.5895V2.11745C21.8228 1.68513 21.4728 1.3351 21.0405 1.33337H8.44298ZM11.8237 8.1902L14.3651 10.7315C8.76783 11.0176 3.84833 13.2323 1.41705 18.3586C0.959544 19.3584 2.51326 19.9839 2.87604 18.9459C5.31021 14.5839 10.4159 12.2263 14.6679 12.3074L11.7715 15.785C11.0981 16.5916 12.308 17.6017 12.9814 16.795L16.9202 12.0721C17.1834 11.7593 17.1634 11.2971 16.8741 11.0083L12.9337 7.07404C12.0908 6.23105 11.0091 7.37553 11.8237 8.1902Z" fill="#FF7878"/>
</g>
<defs>
<clipPath id="clip0_174_2270">
<rect width="24" height="24" fill="white"/>
</clipPath>
</defs>
</svg>
