<svg width="80" height="80" viewBox="0 0 80 80" fill="none" xmlns="http://www.w3.org/2000/svg">
<path d="M46.4514 58.3855H51.8452C54.7415 58.3855 57.4534 56.8475 59.1021 54.2701L70.2664 36.8155C71.0255 35.6289 71.1263 34.0892 70.5302 32.7985C69.3858 30.3209 66.3022 29.8534 64.5727 31.8955L55.7106 42.3593C52.1481 46.5662 46.5519 47.9469 41.657 45.8278L29.5554 40.5886C26.5443 39.2849 23.1332 39.6691 20.4348 41.6162L7.62197 50.8616C5.95774 52.0627 5.38013 54.4168 6.27462 56.3531C7.25417 58.4737 9.63647 59.3332 11.5956 58.2731L22.2331 52.5163C24.3051 51.3948 26.5678 53.6184 25.7362 55.9587L19.7362 72.8433M21.4059 13.2048H11.3877M18.0665 24.0481H11.3877M58.1394 22.2409C58.1394 30.2258 52.1591 36.6987 44.7817 36.6987C37.4046 36.6987 31.4241 30.2258 31.4241 22.2409C31.4241 14.2561 37.4046 7.78308 44.7817 7.78308C52.1591 7.78308 58.1394 14.2561 58.1394 22.2409Z" stroke="#A6A6A6" stroke-width="4.87952" stroke-linecap="round" stroke-linejoin="round"/>
<path d="M77.065 5.92682L67.1699 20.2747" stroke="#A6A6A6" stroke-width="2.96341" stroke-linecap="round"/>
<path d="M67.1699 5.92682L77.065 20.2747" stroke="#A6A6A6" stroke-width="2.96341" stroke-linecap="round"/>
</svg>
