<svg width="18" height="19" viewBox="0 0 18 19" fill="none" xmlns="http://www.w3.org/2000/svg">
<path d="M16.082 13.1506C15.9245 12.8694 15.7332 12.5881 15.5195 12.29C15.0109 11.6548 14.6583 10.9093 14.4901 10.1131L14.2539 6.79437C14.1132 4.22375 12.6114 1.625 9.62449 1.625H8.37574C5.38887 1.625 3.87574 4.22375 3.72387 6.78875L3.48762 10.1131C3.32016 10.9163 2.9677 11.6694 2.45824 12.3125C2.26699 12.605 2.07574 12.875 1.94637 13.1281C1.80752 13.3145 1.72343 13.5359 1.70355 13.7674C1.68368 13.999 1.72881 14.2315 1.83387 14.4388C1.95644 14.6564 2.13702 14.8358 2.3555 14.957C2.57398 15.0782 2.8218 15.1363 3.07137 15.125H7.41387C7.32135 15.3799 7.29163 15.6533 7.3272 15.9221C7.36278 16.1909 7.4626 16.4472 7.61823 16.6693C7.77386 16.8913 7.98071 17.0726 8.22125 17.1977C8.4618 17.3229 8.72896 17.3882 9.00012 17.3882C9.27127 17.3882 9.53843 17.3229 9.77898 17.1977C10.0195 17.0726 10.2264 16.8913 10.382 16.6693C10.5376 16.4472 10.6375 16.1909 10.673 15.9221C10.7086 15.6533 10.6789 15.3799 10.5864 15.125H14.9289C15.1807 15.1342 15.4301 15.0726 15.6488 14.9474C15.8675 14.8221 16.0468 14.6381 16.1664 14.4163C16.2715 14.2183 16.3193 13.995 16.3044 13.7714C16.2895 13.5478 16.2125 13.3328 16.082 13.1506ZM9.56262 15.6875C9.56262 15.7988 9.52963 15.9075 9.46782 16C9.40601 16.0925 9.31816 16.1646 9.21537 16.2072C9.11259 16.2498 8.99949 16.2609 8.89038 16.2392C8.78126 16.2175 8.68104 16.1639 8.60237 16.0852C8.5237 16.0066 8.47013 15.9064 8.44842 15.7972C8.42672 15.6881 8.43786 15.575 8.48043 15.4722C8.52301 15.3695 8.5951 15.2816 8.68761 15.2198C8.78011 15.158 8.88886 15.125 9.00012 15.125C9.1493 15.125 9.29237 15.1843 9.39786 15.2898C9.50335 15.3952 9.56262 15.5383 9.56262 15.6875ZM15.1876 13.9044C15.1876 13.9494 15.092 14 14.9514 14H3.07137C2.93074 14 2.85762 13.9494 2.83512 13.9044C2.81262 13.8594 2.83512 13.7975 2.89137 13.7075C3.04324 13.4487 3.21762 13.1788 3.39762 12.9087C3.96012 12.0988 4.52262 11.1762 4.60699 10.1919L4.84887 6.8675C4.96699 4.96625 5.96262 2.75 8.37574 2.75H9.62449C12.0376 2.75 13.0332 4.96625 13.1514 6.87313L13.3932 10.1919C13.4607 11.1875 14.0626 12.0988 14.6251 12.9087C14.8051 13.1788 14.9795 13.4712 15.1595 13.7581C15.1774 13.7774 15.1895 13.8014 15.1945 13.8272C15.1995 13.8531 15.1971 13.8798 15.1876 13.9044Z" fill="white"/>
</svg>
