<svg width="35" height="35" viewBox="0 0 35 35" fill="none" xmlns="http://www.w3.org/2000/svg">
<path d="M17.2515 31.6248C25.1906 31.6248 31.6265 25.1888 31.6265 17.2498C31.6265 9.31066 25.1906 2.87476 17.2515 2.87476C9.31237 2.87476 2.87646 9.31066 2.87646 17.2498C2.87646 25.1888 9.31237 31.6248 17.2515 31.6248Z" stroke="black" stroke-width="3"/>
<path d="M17.2515 31.6248C25.1906 31.6248 31.6265 25.1888 31.6265 17.2498C31.6265 9.31066 25.1906 2.87476 17.2515 2.87476C9.31237 2.87476 2.87646 9.31066 2.87646 17.2498C2.87646 25.1888 9.31237 31.6248 17.2515 31.6248Z" stroke="black" stroke-opacity="0.2" stroke-width="3"/>
<path d="M17.2515 31.6248C25.1906 31.6248 31.6265 25.1888 31.6265 17.2498C31.6265 9.31066 25.1906 2.87476 17.2515 2.87476C9.31237 2.87476 2.87646 9.31066 2.87646 17.2498C2.87646 25.1888 9.31237 31.6248 17.2515 31.6248Z" stroke="black" stroke-opacity="0.2" stroke-width="3"/>
<path d="M17.2515 31.6248C25.1906 31.6248 31.6265 25.1888 31.6265 17.2498C31.6265 9.31066 25.1906 2.87476 17.2515 2.87476C9.31237 2.87476 2.87646 9.31066 2.87646 17.2498C2.87646 25.1888 9.31237 31.6248 17.2515 31.6248Z" stroke="black" stroke-opacity="0.2" stroke-width="3"/>
<path d="M17.2515 31.6248C25.1906 31.6248 31.6265 25.1888 31.6265 17.2498C31.6265 9.31066 25.1906 2.87476 17.2515 2.87476C9.31237 2.87476 2.87646 9.31066 2.87646 17.2498C2.87646 25.1888 9.31237 31.6248 17.2515 31.6248Z" stroke="black" stroke-opacity="0.2" stroke-width="3"/>
<path d="M17.2515 31.6248C25.1906 31.6248 31.6265 25.1888 31.6265 17.2498C31.6265 9.31066 25.1906 2.87476 17.2515 2.87476C9.31237 2.87476 2.87646 9.31066 2.87646 17.2498C2.87646 25.1888 9.31237 31.6248 17.2515 31.6248Z" stroke="black" stroke-opacity="0.2" stroke-width="3"/>
<path d="M12.2173 17.9685L15.0923 20.8435L22.2798 13.656" stroke="black" stroke-width="3" stroke-linecap="round" stroke-linejoin="round"/>
<path d="M12.2173 17.9685L15.0923 20.8435L22.2798 13.656" stroke="black" stroke-opacity="0.2" stroke-width="3" stroke-linecap="round" stroke-linejoin="round"/>
<path d="M12.2173 17.9685L15.0923 20.8435L22.2798 13.656" stroke="black" stroke-opacity="0.2" stroke-width="3" stroke-linecap="round" stroke-linejoin="round"/>
<path d="M12.2173 17.9685L15.0923 20.8435L22.2798 13.656" stroke="black" stroke-opacity="0.2" stroke-width="3" stroke-linecap="round" stroke-linejoin="round"/>
<path d="M12.2173 17.9685L15.0923 20.8435L22.2798 13.656" stroke="black" stroke-opacity="0.2" stroke-width="3" stroke-linecap="round" stroke-linejoin="round"/>
<path d="M12.2173 17.9685L15.0923 20.8435L22.2798 13.656" stroke="black" stroke-opacity="0.2" stroke-width="3" stroke-linecap="round" stroke-linejoin="round"/>
</svg>
