<svg width="24" height="24" viewBox="0 0 24 24" fill="none" xmlns="http://www.w3.org/2000/svg">
<g clip-path="url(#clip0_174_1942)">
<mask id="mask0_174_1942" style="mask-type:luminance" maskUnits="userSpaceOnUse" x="0" y="0" width="24" height="24">
<path d="M0 0H24V24H0V0Z" fill="white"/>
</mask>
<g mask="url(#mask0_174_1942)">
<path d="M14.3115 21.127C14.5143 21.1268 14.8926 20.9993 15.4023 20.5391C15.893 20.0961 16.4169 19.4227 16.8984 18.5499C17.8605 16.8062 18.5938 14.3723 18.5938 11.6885C18.5937 10.1167 18.0459 9.22483 17.3809 8.70221C16.6795 8.15111 15.7315 7.92194 14.8262 7.92194C14.1852 7.92199 13.8987 8.02048 13.5557 8.13483C13.1255 8.2782 12.6384 8.43755 11.7334 8.43756C10.8284 8.43756 10.3412 8.27819 9.91113 8.13483C9.56802 8.02045 9.28101 7.92194 8.63965 7.92194C7.73439 7.92199 6.78725 8.15118 6.08594 8.70221C5.42086 9.22482 4.87314 10.1166 4.87305 11.6885C4.87305 14.3723 5.60634 16.8062 6.56836 18.5499C7.04994 19.4227 7.57376 20.0961 8.06445 20.5391C8.57433 20.9994 8.95256 21.1269 9.15527 21.127C9.80182 21.127 10.0787 21.0256 10.3135 20.9317C10.6199 20.8091 11.0265 20.6124 11.7334 20.6124C12.4403 20.6124 12.8469 20.8091 13.1533 20.9317C13.3881 21.0256 13.6651 21.127 14.3115 21.127Z" stroke="white" stroke-width="1.74512"/>
<path d="M15.8574 6.98245C16.4744 6.98245 17.2665 6.6607 17.9639 6.2803C18.1278 6.19088 18.2809 6.10097 18.4189 6.01663C17.9742 5.79655 17.294 5.56839 16.373 5.56839C15.2446 5.5685 14.3311 6.01954 13.6865 6.48831C13.5878 6.56014 13.4968 6.63306 13.4121 6.70316C13.4658 6.71334 13.5208 6.72416 13.5771 6.73441C14.2755 6.86138 15.1371 6.9824 15.8574 6.98245Z" stroke="white" stroke-width="1.16341"/>
<path d="M11.8359 8.17441C12.0901 8.17441 12.3521 8.10193 12.5742 7.9498L12.667 7.87949L12.7549 7.79843C12.9509 7.59838 13.082 7.32333 13.082 7.01035C13.082 6.02366 13.4815 5.15989 14.1357 4.61484H14.1367C14.2569 4.51456 14.3611 4.38781 14.4355 4.23788C14.5104 4.08716 14.5518 3.91888 14.5518 3.74472C14.5517 3.57077 14.5103 3.40303 14.4355 3.25253C14.3609 3.10259 14.2561 2.97581 14.1357 2.87558C14.0156 2.77555 13.8799 2.70141 13.7393 2.65292C13.5988 2.60453 13.4518 2.58065 13.3057 2.58066C13.1593 2.5807 13.0117 2.6053 12.8711 2.6539C12.7306 2.70248 12.5946 2.77548 12.4746 2.87558C11.2671 3.88162 10.5908 5.39534 10.5908 7.01035C10.5908 7.3681 10.7621 7.67624 11.0059 7.87949L11.0986 7.9498C11.3206 8.10182 11.582 8.17432 11.8359 8.17441Z" stroke="white" stroke-width="1.51244"/>
</g>
</g>
<defs>
<clipPath id="clip0_174_1942">
<rect width="24" height="24" fill="white"/>
</clipPath>
</defs>
</svg>
