<svg width="10" height="10" viewBox="0 0 10 10" fill="none" xmlns="http://www.w3.org/2000/svg">
<path fill-rule="evenodd" clip-rule="evenodd" d="M5 5C4.1176 5 3.4 4.2824 3.4 3.4C3.4 2.5176 4.1176 1.8 5 1.8C5.8824 1.8 6.6 2.5176 6.6 3.4C6.6 4.2824 5.8824 5 5 5ZM6.5032 5.26919C7.0496 4.82959 7.4 4.156 7.4 3.4C7.4 2.0744 6.3256 1 5 1C3.6744 1 2.6 2.0744 2.6 3.4C2.6 4.156 2.9504 4.82959 3.4968 5.26919C2.0332 5.81919 1 7.178 1 9H1.8C1.8 7 3.2356 5.8 5 5.8C6.7644 5.8 8.2 7 8.2 9H9C9 7.178 7.9668 5.81919 6.5032 5.26919Z" fill="black"/>
<path fill-rule="evenodd" clip-rule="evenodd" d="M5 5C4.1176 5 3.4 4.2824 3.4 3.4C3.4 2.5176 4.1176 1.8 5 1.8C5.8824 1.8 6.6 2.5176 6.6 3.4C6.6 4.2824 5.8824 5 5 5ZM6.5032 5.26919C7.0496 4.82959 7.4 4.156 7.4 3.4C7.4 2.0744 6.3256 1 5 1C3.6744 1 2.6 2.0744 2.6 3.4C2.6 4.156 2.9504 4.82959 3.4968 5.26919C2.0332 5.81919 1 7.178 1 9H1.8C1.8 7 3.2356 5.8 5 5.8C6.7644 5.8 8.2 7 8.2 9H9C9 7.178 7.9668 5.81919 6.5032 5.26919Z" fill="black" fill-opacity="0.2"/>
<path fill-rule="evenodd" clip-rule="evenodd" d="M5 5C4.1176 5 3.4 4.2824 3.4 3.4C3.4 2.5176 4.1176 1.8 5 1.8C5.8824 1.8 6.6 2.5176 6.6 3.4C6.6 4.2824 5.8824 5 5 5ZM6.5032 5.26919C7.0496 4.82959 7.4 4.156 7.4 3.4C7.4 2.0744 6.3256 1 5 1C3.6744 1 2.6 2.0744 2.6 3.4C2.6 4.156 2.9504 4.82959 3.4968 5.26919C2.0332 5.81919 1 7.178 1 9H1.8C1.8 7 3.2356 5.8 5 5.8C6.7644 5.8 8.2 7 8.2 9H9C9 7.178 7.9668 5.81919 6.5032 5.26919Z" fill="black" fill-opacity="0.2"/>
<path fill-rule="evenodd" clip-rule="evenodd" d="M5 5C4.1176 5 3.4 4.2824 3.4 3.4C3.4 2.5176 4.1176 1.8 5 1.8C5.8824 1.8 6.6 2.5176 6.6 3.4C6.6 4.2824 5.8824 5 5 5ZM6.5032 5.26919C7.0496 4.82959 7.4 4.156 7.4 3.4C7.4 2.0744 6.3256 1 5 1C3.6744 1 2.6 2.0744 2.6 3.4C2.6 4.156 2.9504 4.82959 3.4968 5.26919C2.0332 5.81919 1 7.178 1 9H1.8C1.8 7 3.2356 5.8 5 5.8C6.7644 5.8 8.2 7 8.2 9H9C9 7.178 7.9668 5.81919 6.5032 5.26919Z" fill="black" fill-opacity="0.2"/>
<path fill-rule="evenodd" clip-rule="evenodd" d="M5 5C4.1176 5 3.4 4.2824 3.4 3.4C3.4 2.5176 4.1176 1.8 5 1.8C5.8824 1.8 6.6 2.5176 6.6 3.4C6.6 4.2824 5.8824 5 5 5ZM6.5032 5.26919C7.0496 4.82959 7.4 4.156 7.4 3.4C7.4 2.0744 6.3256 1 5 1C3.6744 1 2.6 2.0744 2.6 3.4C2.6 4.156 2.9504 4.82959 3.4968 5.26919C2.0332 5.81919 1 7.178 1 9H1.8C1.8 7 3.2356 5.8 5 5.8C6.7644 5.8 8.2 7 8.2 9H9C9 7.178 7.9668 5.81919 6.5032 5.26919Z" fill="black" fill-opacity="0.2"/>
<path fill-rule="evenodd" clip-rule="evenodd" d="M5 5C4.1176 5 3.4 4.2824 3.4 3.4C3.4 2.5176 4.1176 1.8 5 1.8C5.8824 1.8 6.6 2.5176 6.6 3.4C6.6 4.2824 5.8824 5 5 5ZM6.5032 5.26919C7.0496 4.82959 7.4 4.156 7.4 3.4C7.4 2.0744 6.3256 1 5 1C3.6744 1 2.6 2.0744 2.6 3.4C2.6 4.156 2.9504 4.82959 3.4968 5.26919C2.0332 5.81919 1 7.178 1 9H1.8C1.8 7 3.2356 5.8 5 5.8C6.7644 5.8 8.2 7 8.2 9H9C9 7.178 7.9668 5.81919 6.5032 5.26919Z" fill="black" fill-opacity="0.2"/>
</svg>
