<svg width="20" height="20" viewBox="0 0 20 20" fill="none" xmlns="http://www.w3.org/2000/svg">
<g clip-path="url(#clip0_45_658)">
<path d="M12.2199 6.78455C12.1526 6.74552 12.0783 6.72022 12.0011 6.71009C11.924 6.69996 11.8456 6.7052 11.7705 6.72552C11.6954 6.74584 11.6251 6.78084 11.5636 6.82848C11.5021 6.87613 11.4506 6.93548 11.4122 7.00311L8.01964 12.8759C7.98062 12.9432 7.95531 13.0176 7.94518 13.0947C7.93505 13.1719 7.9403 13.2502 7.96062 13.3253C7.98094 13.4004 8.01593 13.4708 8.06357 13.5323C8.11122 13.5938 8.17057 13.6452 8.23821 13.6837C8.32669 13.7377 8.42924 13.7641 8.5328 13.7597C8.63653 13.7593 8.73836 13.7319 8.82832 13.6802C8.91827 13.6286 8.99327 13.5545 9.04596 13.4651L12.4385 7.5923C12.4788 7.52533 12.5052 7.45091 12.516 7.37349C12.5269 7.29607 12.5219 7.21726 12.5015 7.14181C12.4811 7.06635 12.4456 6.9958 12.3972 6.93441C12.3488 6.87301 12.2885 6.82204 12.2199 6.78455ZM9.61613 8.74215C9.63676 8.20082 9.44255 7.67328 9.07585 7.27454C8.70915 6.8758 8.19969 6.63818 7.65853 6.61349C7.11655 6.6382 6.60614 6.87549 6.23793 7.27394C5.86971 7.6724 5.67336 8.19991 5.69142 8.74215C5.6708 9.286 5.86601 9.81595 6.23449 10.2165C6.60297 10.617 7.11485 10.8556 7.65853 10.8803C8.2014 10.8556 8.71235 10.6167 9.07932 10.2159C9.44629 9.81507 9.63933 9.28509 9.61613 8.74215ZM7.65853 9.69244C7.43074 9.66609 7.2221 9.55223 7.0767 9.37491C6.9313 9.19759 6.86051 8.97069 6.87929 8.74215C6.85803 8.51309 6.92791 8.28488 7.07377 8.10699C7.21964 7.9291 7.42974 7.81588 7.65853 7.79186C7.88662 7.81581 8.09585 7.92938 8.2402 8.10759C8.38455 8.28581 8.4522 8.51406 8.42827 8.74215C8.44966 8.96973 8.38108 9.19665 8.2372 9.37428C8.09332 9.5519 7.8856 9.66611 7.65853 9.69244ZM12.8091 9.58791C12.268 9.6126 11.7585 9.85021 11.3918 10.249C11.0251 10.6477 10.8309 11.1752 10.8515 11.7166C10.8283 12.2595 11.0214 12.7895 11.3883 13.1903C11.7553 13.5911 12.2662 13.8301 12.8091 13.8547C13.3528 13.83 13.8647 13.5914 14.2332 13.1909C14.6016 12.7904 14.7968 12.2604 14.7762 11.7166C14.7943 11.1743 14.5979 10.6468 14.2297 10.2484C13.8615 9.8499 13.3511 9.61261 12.8091 9.58791ZM12.8091 12.6669C12.582 12.6405 12.3743 12.5263 12.2304 12.3487C12.0866 12.1711 12.018 11.9441 12.0394 11.7166C12.018 11.489 12.0866 11.2621 12.2304 11.0844C12.3743 10.9068 12.582 10.7926 12.8091 10.7663C13.0379 10.7903 13.248 10.9035 13.3939 11.0814C13.5397 11.2593 13.6096 11.4875 13.5884 11.7166C13.6071 11.9451 13.5363 12.172 13.3909 12.3493C13.2455 12.5266 13.0369 12.6405 12.8091 12.6669Z" fill="white"/>
<path d="M10.2339 3.10678C8.28109 3.04528 6.38366 3.7613 4.95828 5.09759C3.5329 6.43388 2.69609 8.28122 2.63159 10.234C2.69609 12.1867 3.5329 14.0341 4.95828 15.3704C6.38366 16.7066 8.28109 17.4227 10.2339 17.3612C12.1868 17.4227 14.0842 16.7066 15.5096 15.3704C16.935 14.0341 17.7718 12.1867 17.8363 10.234C17.7718 8.28122 16.935 6.43388 15.5096 5.09759C14.0842 3.7613 12.1868 3.04528 10.2339 3.10678ZM10.2339 16.1733C8.59674 16.2324 7.00276 15.6408 5.80067 14.5277C4.59858 13.4147 3.88623 11.8709 3.81946 10.234C3.88623 8.59707 4.59858 7.05324 5.80067 5.9402C7.00276 4.82715 8.59674 4.23549 10.2339 4.29464C11.8711 4.23549 13.4651 4.82715 14.6672 5.9402C15.8693 7.05324 16.5816 8.59707 16.6484 10.234C16.5816 11.8709 15.8693 13.4147 14.6672 14.5277C13.4651 15.6408 11.8711 16.2324 10.2339 16.1733Z" fill="white"/>
</g>
<defs>
<clipPath id="clip0_45_658">
<rect width="15.2047" height="15.2047" fill="white" transform="translate(2.63159 2.63165)"/>
</clipPath>
</defs>
</svg>
