<svg width="19" height="20" viewBox="0 0 19 20" fill="none" xmlns="http://www.w3.org/2000/svg">
<g clip-path="url(#clip0_45_618)">
<path d="M11.7345 8.24042L10.0874 9.88748M11.7345 8.24042V6.26395L13.7109 4.28748V6.26395H15.6874L13.7109 8.24042H11.7345Z" stroke="black" stroke-linecap="round" stroke-linejoin="round"/>
<path d="M11.7345 8.24042L10.0874 9.88748M11.7345 8.24042V6.26395L13.7109 4.28748V6.26395H15.6874L13.7109 8.24042H11.7345Z" stroke="black" stroke-opacity="0.2" stroke-linecap="round" stroke-linejoin="round"/>
<path d="M11.7345 8.24042L10.0874 9.88748M11.7345 8.24042V6.26395L13.7109 4.28748V6.26395H15.6874L13.7109 8.24042H11.7345Z" stroke="black" stroke-opacity="0.2" stroke-linecap="round" stroke-linejoin="round"/>
<path d="M11.7345 8.24042L10.0874 9.88748M11.7345 8.24042V6.26395L13.7109 4.28748V6.26395H15.6874L13.7109 8.24042H11.7345Z" stroke="black" stroke-opacity="0.2" stroke-linecap="round" stroke-linejoin="round"/>
<path d="M11.7345 8.24042L10.0874 9.88748M11.7345 8.24042V6.26395L13.7109 4.28748V6.26395H15.6874L13.7109 8.24042H11.7345Z" stroke="black" stroke-opacity="0.2" stroke-linecap="round" stroke-linejoin="round"/>
<path d="M11.7345 8.24042L10.0874 9.88748M11.7345 8.24042V6.26395L13.7109 4.28748V6.26395H15.6874L13.7109 8.24042H11.7345Z" stroke="black" stroke-opacity="0.2" stroke-linecap="round" stroke-linejoin="round"/>
<path d="M9.95577 4.28748H9.7376C8.5608 4.28748 7.41043 4.63644 6.43196 5.29023C5.45348 5.94403 4.69086 6.87329 4.24052 7.96051C3.79018 9.04773 3.67235 10.2441 3.90193 11.3983C4.13151 12.5524 4.69819 13.6126 5.53031 14.4448C6.36244 15.2769 7.42263 15.8436 8.57681 16.0731C9.731 16.3027 10.9273 16.1849 12.0146 15.7346C13.1018 15.2842 14.031 14.5216 14.6848 13.5431C15.3386 12.5646 15.6876 11.4143 15.6876 10.2375C15.6876 10.1648 15.6876 10.092 15.6876 10.0193" stroke="black" stroke-linecap="round" stroke-linejoin="round"/>
<path d="M9.95577 4.28748H9.7376C8.5608 4.28748 7.41043 4.63644 6.43196 5.29023C5.45348 5.94403 4.69086 6.87329 4.24052 7.96051C3.79018 9.04773 3.67235 10.2441 3.90193 11.3983C4.13151 12.5524 4.69819 13.6126 5.53031 14.4448C6.36244 15.2769 7.42263 15.8436 8.57681 16.0731C9.731 16.3027 10.9273 16.1849 12.0146 15.7346C13.1018 15.2842 14.031 14.5216 14.6848 13.5431C15.3386 12.5646 15.6876 11.4143 15.6876 10.2375C15.6876 10.1648 15.6876 10.092 15.6876 10.0193" stroke="black" stroke-opacity="0.2" stroke-linecap="round" stroke-linejoin="round"/>
<path d="M9.95577 4.28748H9.7376C8.5608 4.28748 7.41043 4.63644 6.43196 5.29023C5.45348 5.94403 4.69086 6.87329 4.24052 7.96051C3.79018 9.04773 3.67235 10.2441 3.90193 11.3983C4.13151 12.5524 4.69819 13.6126 5.53031 14.4448C6.36244 15.2769 7.42263 15.8436 8.57681 16.0731C9.731 16.3027 10.9273 16.1849 12.0146 15.7346C13.1018 15.2842 14.031 14.5216 14.6848 13.5431C15.3386 12.5646 15.6876 11.4143 15.6876 10.2375C15.6876 10.1648 15.6876 10.092 15.6876 10.0193" stroke="black" stroke-opacity="0.2" stroke-linecap="round" stroke-linejoin="round"/>
<path d="M9.95577 4.28748H9.7376C8.5608 4.28748 7.41043 4.63644 6.43196 5.29023C5.45348 5.94403 4.69086 6.87329 4.24052 7.96051C3.79018 9.04773 3.67235 10.2441 3.90193 11.3983C4.13151 12.5524 4.69819 13.6126 5.53031 14.4448C6.36244 15.2769 7.42263 15.8436 8.57681 16.0731C9.731 16.3027 10.9273 16.1849 12.0146 15.7346C13.1018 15.2842 14.031 14.5216 14.6848 13.5431C15.3386 12.5646 15.6876 11.4143 15.6876 10.2375C15.6876 10.1648 15.6876 10.092 15.6876 10.0193" stroke="black" stroke-opacity="0.2" stroke-linecap="round" stroke-linejoin="round"/>
<path d="M9.95577 4.28748H9.7376C8.5608 4.28748 7.41043 4.63644 6.43196 5.29023C5.45348 5.94403 4.69086 6.87329 4.24052 7.96051C3.79018 9.04773 3.67235 10.2441 3.90193 11.3983C4.13151 12.5524 4.69819 13.6126 5.53031 14.4448C6.36244 15.2769 7.42263 15.8436 8.57681 16.0731C9.731 16.3027 10.9273 16.1849 12.0146 15.7346C13.1018 15.2842 14.031 14.5216 14.6848 13.5431C15.3386 12.5646 15.6876 11.4143 15.6876 10.2375C15.6876 10.1648 15.6876 10.092 15.6876 10.0193" stroke="black" stroke-opacity="0.2" stroke-linecap="round" stroke-linejoin="round"/>
<path d="M9.95577 4.28748H9.7376C8.5608 4.28748 7.41043 4.63644 6.43196 5.29023C5.45348 5.94403 4.69086 6.87329 4.24052 7.96051C3.79018 9.04773 3.67235 10.2441 3.90193 11.3983C4.13151 12.5524 4.69819 13.6126 5.53031 14.4448C6.36244 15.2769 7.42263 15.8436 8.57681 16.0731C9.731 16.3027 10.9273 16.1849 12.0146 15.7346C13.1018 15.2842 14.031 14.5216 14.6848 13.5431C15.3386 12.5646 15.6876 11.4143 15.6876 10.2375C15.6876 10.1648 15.6876 10.092 15.6876 10.0193" stroke="black" stroke-opacity="0.2" stroke-linecap="round" stroke-linejoin="round"/>
<path d="M12.8874 10.8426C12.7723 11.4058 12.5068 11.9273 12.119 12.3517C11.7313 12.7761 11.2359 13.0875 10.6854 13.2529C10.1348 13.4183 9.54978 13.4315 8.99235 13.2911C8.43492 13.1507 7.92593 12.8619 7.51946 12.4555C7.11298 12.049 6.8242 11.54 6.68379 10.9826C6.54338 10.4251 6.55659 9.8401 6.722 9.28957C6.88742 8.73904 7.19887 8.2436 7.62327 7.85588C8.04767 7.46816 8.56917 7.20264 9.13237 7.08752" stroke="black" stroke-linecap="round" stroke-linejoin="round"/>
<path d="M12.8874 10.8426C12.7723 11.4058 12.5068 11.9273 12.119 12.3517C11.7313 12.7761 11.2359 13.0875 10.6854 13.2529C10.1348 13.4183 9.54978 13.4315 8.99235 13.2911C8.43492 13.1507 7.92593 12.8619 7.51946 12.4555C7.11298 12.049 6.8242 11.54 6.68379 10.9826C6.54338 10.4251 6.55659 9.8401 6.722 9.28957C6.88742 8.73904 7.19887 8.2436 7.62327 7.85588C8.04767 7.46816 8.56917 7.20264 9.13237 7.08752" stroke="black" stroke-opacity="0.2" stroke-linecap="round" stroke-linejoin="round"/>
<path d="M12.8874 10.8426C12.7723 11.4058 12.5068 11.9273 12.119 12.3517C11.7313 12.7761 11.2359 13.0875 10.6854 13.2529C10.1348 13.4183 9.54978 13.4315 8.99235 13.2911C8.43492 13.1507 7.92593 12.8619 7.51946 12.4555C7.11298 12.049 6.8242 11.54 6.68379 10.9826C6.54338 10.4251 6.55659 9.8401 6.722 9.28957C6.88742 8.73904 7.19887 8.2436 7.62327 7.85588C8.04767 7.46816 8.56917 7.20264 9.13237 7.08752" stroke="black" stroke-opacity="0.2" stroke-linecap="round" stroke-linejoin="round"/>
<path d="M12.8874 10.8426C12.7723 11.4058 12.5068 11.9273 12.119 12.3517C11.7313 12.7761 11.2359 13.0875 10.6854 13.2529C10.1348 13.4183 9.54978 13.4315 8.99235 13.2911C8.43492 13.1507 7.92593 12.8619 7.51946 12.4555C7.11298 12.049 6.8242 11.54 6.68379 10.9826C6.54338 10.4251 6.55659 9.8401 6.722 9.28957C6.88742 8.73904 7.19887 8.2436 7.62327 7.85588C8.04767 7.46816 8.56917 7.20264 9.13237 7.08752" stroke="black" stroke-opacity="0.2" stroke-linecap="round" stroke-linejoin="round"/>
<path d="M12.8874 10.8426C12.7723 11.4058 12.5068 11.9273 12.119 12.3517C11.7313 12.7761 11.2359 13.0875 10.6854 13.2529C10.1348 13.4183 9.54978 13.4315 8.99235 13.2911C8.43492 13.1507 7.92593 12.8619 7.51946 12.4555C7.11298 12.049 6.8242 11.54 6.68379 10.9826C6.54338 10.4251 6.55659 9.8401 6.722 9.28957C6.88742 8.73904 7.19887 8.2436 7.62327 7.85588C8.04767 7.46816 8.56917 7.20264 9.13237 7.08752" stroke="black" stroke-opacity="0.2" stroke-linecap="round" stroke-linejoin="round"/>
<path d="M12.8874 10.8426C12.7723 11.4058 12.5068 11.9273 12.119 12.3517C11.7313 12.7761 11.2359 13.0875 10.6854 13.2529C10.1348 13.4183 9.54978 13.4315 8.99235 13.2911C8.43492 13.1507 7.92593 12.8619 7.51946 12.4555C7.11298 12.049 6.8242 11.54 6.68379 10.9826C6.54338 10.4251 6.55659 9.8401 6.722 9.28957C6.88742 8.73904 7.19887 8.2436 7.62327 7.85588C8.04767 7.46816 8.56917 7.20264 9.13237 7.08752" stroke="black" stroke-opacity="0.2" stroke-linecap="round" stroke-linejoin="round"/>
</g>
<defs>
<clipPath id="clip0_45_618">
<rect width="14" height="14" fill="white" transform="translate(3 3.5)"/>
</clipPath>
</defs>
</svg>
