<svg width="24" height="24" viewBox="0 0 24 24" fill="none" xmlns="http://www.w3.org/2000/svg">
<path fill-rule="evenodd" clip-rule="evenodd" d="M19.8451 8.71537L19.275 7.72008C18.7927 6.87791 17.7238 6.58739 16.8855 7.07061C16.4864 7.30709 16.0103 7.37418 15.562 7.25709C15.1137 7.14 14.7302 6.84835 14.4959 6.44645C14.3452 6.19099 14.2642 5.90002 14.2612 5.60298C14.2748 5.12674 14.0962 4.66524 13.766 4.32362C13.4359 3.98199 12.9824 3.78933 12.5088 3.78953H11.3602C10.8962 3.78953 10.4513 3.97552 10.124 4.30636C9.79674 4.6372 9.61399 5.08561 9.61622 5.55237C9.60247 6.51607 8.82193 7.29001 7.86389 7.28991C7.56861 7.28683 7.27938 7.20536 7.02545 7.05374C6.18716 6.57052 5.11824 6.86104 4.6359 7.70321L4.02385 8.71537C3.54209 9.55648 3.82696 10.6311 4.66106 11.1192C5.20324 11.4341 5.53723 12.0161 5.53723 12.6459C5.53723 13.2757 5.20324 13.8577 4.66106 14.1726C3.82802 14.6574 3.54284 15.7295 4.02385 16.568L4.60237 17.5718C4.82836 17.982 5.20754 18.2847 5.656 18.4129C6.10446 18.5412 6.58523 18.4843 6.99191 18.255C7.3917 18.0203 7.86812 17.956 8.31526 18.0764C8.7624 18.1967 9.14322 18.4918 9.37307 18.896C9.52378 19.1515 9.60477 19.4424 9.60783 19.7395C9.60783 20.7131 10.3924 21.5023 11.3602 21.5023H12.5088C13.4733 21.5023 14.2565 20.7182 14.2612 19.7479C14.2589 19.2797 14.4428 18.83 14.7719 18.4989C15.101 18.1678 15.5481 17.9828 16.0135 17.9851C16.3081 17.993 16.5961 18.0741 16.8519 18.2212C17.688 18.7059 18.7563 18.4193 19.2415 17.5802L19.8451 16.568C20.0788 16.1646 20.1429 15.684 20.0233 15.2328C19.9037 14.7816 19.6103 14.397 19.2079 14.1642C18.8056 13.9313 18.5121 13.5467 18.3925 13.0955C18.2729 12.6443 18.3371 12.1638 18.5707 11.7603C18.7227 11.4934 18.9426 11.2721 19.2079 11.1192C20.037 10.6314 20.3212 9.56302 19.8451 8.7238V8.71537Z" stroke="white" stroke-width="1.81579" stroke-linecap="round" stroke-linejoin="round"/>
<path d="M11.9385 15.0748C13.272 15.0748 14.353 13.9873 14.353 12.6458C14.353 11.3043 13.272 10.2168 11.9385 10.2168C10.605 10.2168 9.52393 11.3043 9.52393 12.6458C9.52393 13.9873 10.605 15.0748 11.9385 15.0748Z" stroke="white" stroke-width="1.81579" stroke-linecap="round" stroke-linejoin="round"/>
</svg>
