<svg width="10" height="10" viewBox="0 0 10 10" fill="none" xmlns="http://www.w3.org/2000/svg">
<g clip-path="url(#clip0_174_2054)">
<path d="M4.53955 1.2081C4.68668 0.953725 5.01168 0.866793 5.26611 1.01376C5.3466 1.06026 5.4138 1.12676 5.46045 1.20712L5.46436 1.21396H5.46338L6.4917 3.30966L8.79541 3.64755C9.07772 3.689 9.27315 3.95116 9.23193 4.23349C9.21558 4.3448 9.16367 4.44849 9.0835 4.52744H9.08252L7.41357 6.1622L7.80811 8.47177C7.85591 8.7528 7.66718 9.01938 7.38623 9.06747C7.2738 9.08663 7.15787 9.06814 7.05713 9.01474L4.99951 7.92685L2.94287 9.01474C2.86858 9.05431 2.7858 9.0751 2.70166 9.07529H2.70068C2.415 9.07442 2.18441 8.84238 2.18506 8.55673C2.18512 8.52827 2.18718 8.49972 2.19189 8.47177L2.58545 6.1622L0.91748 4.52744C0.714051 4.32749 0.710912 4.00064 0.910645 3.79697C0.989643 3.71652 1.09298 3.66394 1.20459 3.64755L3.50732 3.30966L4.53564 1.21396L4.53857 1.2081H4.53955ZM3.98975 3.72861C3.95603 3.79697 3.89854 3.84966 3.82959 3.87802L3.75732 3.89755L1.49268 4.22861L3.13232 5.83603C3.18642 5.88916 3.2186 5.95933 3.22412 6.03329L3.22119 6.10751L2.83447 8.37411L4.85596 7.30576H4.85693C4.94674 7.25903 5.05324 7.25909 5.14307 7.30576H5.14404L7.16553 8.37411L6.77979 6.10751C6.76312 6.00803 6.79576 5.90676 6.86768 5.83603L8.50635 4.22861L6.24268 3.89755C6.14231 3.88254 6.05514 3.81966 6.01025 3.72861V3.72763L4.99951 1.66806L3.98975 3.72861Z" fill="black"/>
<path d="M4.53955 1.2081C4.68668 0.953725 5.01168 0.866793 5.26611 1.01376C5.3466 1.06026 5.4138 1.12676 5.46045 1.20712L5.46436 1.21396H5.46338L6.4917 3.30966L8.79541 3.64755C9.07772 3.689 9.27315 3.95116 9.23193 4.23349C9.21558 4.3448 9.16367 4.44849 9.0835 4.52744H9.08252L7.41357 6.1622L7.80811 8.47177C7.85591 8.7528 7.66718 9.01938 7.38623 9.06747C7.2738 9.08663 7.15787 9.06814 7.05713 9.01474L4.99951 7.92685L2.94287 9.01474C2.86858 9.05431 2.7858 9.0751 2.70166 9.07529H2.70068C2.415 9.07442 2.18441 8.84238 2.18506 8.55673C2.18512 8.52827 2.18718 8.49972 2.19189 8.47177L2.58545 6.1622L0.91748 4.52744C0.714051 4.32749 0.710912 4.00064 0.910645 3.79697C0.989643 3.71652 1.09298 3.66394 1.20459 3.64755L3.50732 3.30966L4.53564 1.21396L4.53857 1.2081H4.53955ZM3.98975 3.72861C3.95603 3.79697 3.89854 3.84966 3.82959 3.87802L3.75732 3.89755L1.49268 4.22861L3.13232 5.83603C3.18642 5.88916 3.2186 5.95933 3.22412 6.03329L3.22119 6.10751L2.83447 8.37411L4.85596 7.30576H4.85693C4.94674 7.25903 5.05324 7.25909 5.14307 7.30576H5.14404L7.16553 8.37411L6.77979 6.10751C6.76312 6.00803 6.79576 5.90676 6.86768 5.83603L8.50635 4.22861L6.24268 3.89755C6.14231 3.88254 6.05514 3.81966 6.01025 3.72861V3.72763L4.99951 1.66806L3.98975 3.72861Z" fill="black" fill-opacity="0.2"/>
<path d="M4.53955 1.2081C4.68668 0.953725 5.01168 0.866793 5.26611 1.01376C5.3466 1.06026 5.4138 1.12676 5.46045 1.20712L5.46436 1.21396H5.46338L6.4917 3.30966L8.79541 3.64755C9.07772 3.689 9.27315 3.95116 9.23193 4.23349C9.21558 4.3448 9.16367 4.44849 9.0835 4.52744H9.08252L7.41357 6.1622L7.80811 8.47177C7.85591 8.7528 7.66718 9.01938 7.38623 9.06747C7.2738 9.08663 7.15787 9.06814 7.05713 9.01474L4.99951 7.92685L2.94287 9.01474C2.86858 9.05431 2.7858 9.0751 2.70166 9.07529H2.70068C2.415 9.07442 2.18441 8.84238 2.18506 8.55673C2.18512 8.52827 2.18718 8.49972 2.19189 8.47177L2.58545 6.1622L0.91748 4.52744C0.714051 4.32749 0.710912 4.00064 0.910645 3.79697C0.989643 3.71652 1.09298 3.66394 1.20459 3.64755L3.50732 3.30966L4.53564 1.21396L4.53857 1.2081H4.53955ZM3.98975 3.72861C3.95603 3.79697 3.89854 3.84966 3.82959 3.87802L3.75732 3.89755L1.49268 4.22861L3.13232 5.83603C3.18642 5.88916 3.2186 5.95933 3.22412 6.03329L3.22119 6.10751L2.83447 8.37411L4.85596 7.30576H4.85693C4.94674 7.25903 5.05324 7.25909 5.14307 7.30576H5.14404L7.16553 8.37411L6.77979 6.10751C6.76312 6.00803 6.79576 5.90676 6.86768 5.83603L8.50635 4.22861L6.24268 3.89755C6.14231 3.88254 6.05514 3.81966 6.01025 3.72861V3.72763L4.99951 1.66806L3.98975 3.72861Z" fill="black" fill-opacity="0.2"/>
<path d="M4.53955 1.2081C4.68668 0.953725 5.01168 0.866793 5.26611 1.01376C5.3466 1.06026 5.4138 1.12676 5.46045 1.20712L5.46436 1.21396H5.46338L6.4917 3.30966L8.79541 3.64755C9.07772 3.689 9.27315 3.95116 9.23193 4.23349C9.21558 4.3448 9.16367 4.44849 9.0835 4.52744H9.08252L7.41357 6.1622L7.80811 8.47177C7.85591 8.7528 7.66718 9.01938 7.38623 9.06747C7.2738 9.08663 7.15787 9.06814 7.05713 9.01474L4.99951 7.92685L2.94287 9.01474C2.86858 9.05431 2.7858 9.0751 2.70166 9.07529H2.70068C2.415 9.07442 2.18441 8.84238 2.18506 8.55673C2.18512 8.52827 2.18718 8.49972 2.19189 8.47177L2.58545 6.1622L0.91748 4.52744C0.714051 4.32749 0.710912 4.00064 0.910645 3.79697C0.989643 3.71652 1.09298 3.66394 1.20459 3.64755L3.50732 3.30966L4.53564 1.21396L4.53857 1.2081H4.53955ZM3.98975 3.72861C3.95603 3.79697 3.89854 3.84966 3.82959 3.87802L3.75732 3.89755L1.49268 4.22861L3.13232 5.83603C3.18642 5.88916 3.2186 5.95933 3.22412 6.03329L3.22119 6.10751L2.83447 8.37411L4.85596 7.30576H4.85693C4.94674 7.25903 5.05324 7.25909 5.14307 7.30576H5.14404L7.16553 8.37411L6.77979 6.10751C6.76312 6.00803 6.79576 5.90676 6.86768 5.83603L8.50635 4.22861L6.24268 3.89755C6.14231 3.88254 6.05514 3.81966 6.01025 3.72861V3.72763L4.99951 1.66806L3.98975 3.72861Z" fill="black" fill-opacity="0.2"/>
<path d="M4.53955 1.2081C4.68668 0.953725 5.01168 0.866793 5.26611 1.01376C5.3466 1.06026 5.4138 1.12676 5.46045 1.20712L5.46436 1.21396H5.46338L6.4917 3.30966L8.79541 3.64755C9.07772 3.689 9.27315 3.95116 9.23193 4.23349C9.21558 4.3448 9.16367 4.44849 9.0835 4.52744H9.08252L7.41357 6.1622L7.80811 8.47177C7.85591 8.7528 7.66718 9.01938 7.38623 9.06747C7.2738 9.08663 7.15787 9.06814 7.05713 9.01474L4.99951 7.92685L2.94287 9.01474C2.86858 9.05431 2.7858 9.0751 2.70166 9.07529H2.70068C2.415 9.07442 2.18441 8.84238 2.18506 8.55673C2.18512 8.52827 2.18718 8.49972 2.19189 8.47177L2.58545 6.1622L0.91748 4.52744C0.714051 4.32749 0.710912 4.00064 0.910645 3.79697C0.989643 3.71652 1.09298 3.66394 1.20459 3.64755L3.50732 3.30966L4.53564 1.21396L4.53857 1.2081H4.53955ZM3.98975 3.72861C3.95603 3.79697 3.89854 3.84966 3.82959 3.87802L3.75732 3.89755L1.49268 4.22861L3.13232 5.83603C3.18642 5.88916 3.2186 5.95933 3.22412 6.03329L3.22119 6.10751L2.83447 8.37411L4.85596 7.30576H4.85693C4.94674 7.25903 5.05324 7.25909 5.14307 7.30576H5.14404L7.16553 8.37411L6.77979 6.10751C6.76312 6.00803 6.79576 5.90676 6.86768 5.83603L8.50635 4.22861L6.24268 3.89755C6.14231 3.88254 6.05514 3.81966 6.01025 3.72861V3.72763L4.99951 1.66806L3.98975 3.72861Z" fill="black" fill-opacity="0.2"/>
<path d="M4.53955 1.2081C4.68668 0.953725 5.01168 0.866793 5.26611 1.01376C5.3466 1.06026 5.4138 1.12676 5.46045 1.20712L5.46436 1.21396H5.46338L6.4917 3.30966L8.79541 3.64755C9.07772 3.689 9.27315 3.95116 9.23193 4.23349C9.21558 4.3448 9.16367 4.44849 9.0835 4.52744H9.08252L7.41357 6.1622L7.80811 8.47177C7.85591 8.7528 7.66718 9.01938 7.38623 9.06747C7.2738 9.08663 7.15787 9.06814 7.05713 9.01474L4.99951 7.92685L2.94287 9.01474C2.86858 9.05431 2.7858 9.0751 2.70166 9.07529H2.70068C2.415 9.07442 2.18441 8.84238 2.18506 8.55673C2.18512 8.52827 2.18718 8.49972 2.19189 8.47177L2.58545 6.1622L0.91748 4.52744C0.714051 4.32749 0.710912 4.00064 0.910645 3.79697C0.989643 3.71652 1.09298 3.66394 1.20459 3.64755L3.50732 3.30966L4.53564 1.21396L4.53857 1.2081H4.53955ZM3.98975 3.72861C3.95603 3.79697 3.89854 3.84966 3.82959 3.87802L3.75732 3.89755L1.49268 4.22861L3.13232 5.83603C3.18642 5.88916 3.2186 5.95933 3.22412 6.03329L3.22119 6.10751L2.83447 8.37411L4.85596 7.30576H4.85693C4.94674 7.25903 5.05324 7.25909 5.14307 7.30576H5.14404L7.16553 8.37411L6.77979 6.10751C6.76312 6.00803 6.79576 5.90676 6.86768 5.83603L8.50635 4.22861L6.24268 3.89755C6.14231 3.88254 6.05514 3.81966 6.01025 3.72861V3.72763L4.99951 1.66806L3.98975 3.72861Z" fill="black" fill-opacity="0.2"/>
<path d="M4.53955 1.2081C4.68668 0.953725 5.01168 0.866793 5.26611 1.01376C5.3466 1.06026 5.4138 1.12676 5.46045 1.20712L5.46436 1.21396H5.46338L6.4917 3.30966L8.79541 3.64755C9.07772 3.689 9.27315 3.95116 9.23193 4.23349C9.21558 4.3448 9.16367 4.44849 9.0835 4.52744H9.08252L7.41357 6.1622L7.80811 8.47177C7.85591 8.7528 7.66718 9.01938 7.38623 9.06747C7.2738 9.08663 7.15787 9.06814 7.05713 9.01474L4.99951 7.92685L2.94287 9.01474C2.86858 9.05431 2.7858 9.0751 2.70166 9.07529H2.70068C2.415 9.07442 2.18441 8.84238 2.18506 8.55673C2.18512 8.52827 2.18718 8.49972 2.19189 8.47177L2.58545 6.1622L0.91748 4.52744C0.714051 4.32749 0.710912 4.00064 0.910645 3.79697C0.989643 3.71652 1.09298 3.66394 1.20459 3.64755L3.50732 3.30966L4.53564 1.21396L4.53857 1.2081H4.53955ZM3.98975 3.72861C3.95603 3.79697 3.89854 3.84966 3.82959 3.87802L3.75732 3.89755L1.49268 4.22861L3.13232 5.83603C3.18642 5.88916 3.2186 5.95933 3.22412 6.03329L3.22119 6.10751L2.83447 8.37411L4.85596 7.30576H4.85693C4.94674 7.25903 5.05324 7.25909 5.14307 7.30576H5.14404L7.16553 8.37411L6.77979 6.10751C6.76312 6.00803 6.79576 5.90676 6.86768 5.83603L8.50635 4.22861L6.24268 3.89755C6.14231 3.88254 6.05514 3.81966 6.01025 3.72861V3.72763L4.99951 1.66806L3.98975 3.72861Z" stroke="black" stroke-width="0.2"/>
<path d="M4.53955 1.2081C4.68668 0.953725 5.01168 0.866793 5.26611 1.01376C5.3466 1.06026 5.4138 1.12676 5.46045 1.20712L5.46436 1.21396H5.46338L6.4917 3.30966L8.79541 3.64755C9.07772 3.689 9.27315 3.95116 9.23193 4.23349C9.21558 4.3448 9.16367 4.44849 9.0835 4.52744H9.08252L7.41357 6.1622L7.80811 8.47177C7.85591 8.7528 7.66718 9.01938 7.38623 9.06747C7.2738 9.08663 7.15787 9.06814 7.05713 9.01474L4.99951 7.92685L2.94287 9.01474C2.86858 9.05431 2.7858 9.0751 2.70166 9.07529H2.70068C2.415 9.07442 2.18441 8.84238 2.18506 8.55673C2.18512 8.52827 2.18718 8.49972 2.19189 8.47177L2.58545 6.1622L0.91748 4.52744C0.714051 4.32749 0.710912 4.00064 0.910645 3.79697C0.989643 3.71652 1.09298 3.66394 1.20459 3.64755L3.50732 3.30966L4.53564 1.21396L4.53857 1.2081H4.53955ZM3.98975 3.72861C3.95603 3.79697 3.89854 3.84966 3.82959 3.87802L3.75732 3.89755L1.49268 4.22861L3.13232 5.83603C3.18642 5.88916 3.2186 5.95933 3.22412 6.03329L3.22119 6.10751L2.83447 8.37411L4.85596 7.30576H4.85693C4.94674 7.25903 5.05324 7.25909 5.14307 7.30576H5.14404L7.16553 8.37411L6.77979 6.10751C6.76312 6.00803 6.79576 5.90676 6.86768 5.83603L8.50635 4.22861L6.24268 3.89755C6.14231 3.88254 6.05514 3.81966 6.01025 3.72861V3.72763L4.99951 1.66806L3.98975 3.72861Z" stroke="black" stroke-opacity="0.2" stroke-width="0.2"/>
<path d="M4.53955 1.2081C4.68668 0.953725 5.01168 0.866793 5.26611 1.01376C5.3466 1.06026 5.4138 1.12676 5.46045 1.20712L5.46436 1.21396H5.46338L6.4917 3.30966L8.79541 3.64755C9.07772 3.689 9.27315 3.95116 9.23193 4.23349C9.21558 4.3448 9.16367 4.44849 9.0835 4.52744H9.08252L7.41357 6.1622L7.80811 8.47177C7.85591 8.7528 7.66718 9.01938 7.38623 9.06747C7.2738 9.08663 7.15787 9.06814 7.05713 9.01474L4.99951 7.92685L2.94287 9.01474C2.86858 9.05431 2.7858 9.0751 2.70166 9.07529H2.70068C2.415 9.07442 2.18441 8.84238 2.18506 8.55673C2.18512 8.52827 2.18718 8.49972 2.19189 8.47177L2.58545 6.1622L0.91748 4.52744C0.714051 4.32749 0.710912 4.00064 0.910645 3.79697C0.989643 3.71652 1.09298 3.66394 1.20459 3.64755L3.50732 3.30966L4.53564 1.21396L4.53857 1.2081H4.53955ZM3.98975 3.72861C3.95603 3.79697 3.89854 3.84966 3.82959 3.87802L3.75732 3.89755L1.49268 4.22861L3.13232 5.83603C3.18642 5.88916 3.2186 5.95933 3.22412 6.03329L3.22119 6.10751L2.83447 8.37411L4.85596 7.30576H4.85693C4.94674 7.25903 5.05324 7.25909 5.14307 7.30576H5.14404L7.16553 8.37411L6.77979 6.10751C6.76312 6.00803 6.79576 5.90676 6.86768 5.83603L8.50635 4.22861L6.24268 3.89755C6.14231 3.88254 6.05514 3.81966 6.01025 3.72861V3.72763L4.99951 1.66806L3.98975 3.72861Z" stroke="black" stroke-opacity="0.2" stroke-width="0.2"/>
<path d="M4.53955 1.2081C4.68668 0.953725 5.01168 0.866793 5.26611 1.01376C5.3466 1.06026 5.4138 1.12676 5.46045 1.20712L5.46436 1.21396H5.46338L6.4917 3.30966L8.79541 3.64755C9.07772 3.689 9.27315 3.95116 9.23193 4.23349C9.21558 4.3448 9.16367 4.44849 9.0835 4.52744H9.08252L7.41357 6.1622L7.80811 8.47177C7.85591 8.7528 7.66718 9.01938 7.38623 9.06747C7.2738 9.08663 7.15787 9.06814 7.05713 9.01474L4.99951 7.92685L2.94287 9.01474C2.86858 9.05431 2.7858 9.0751 2.70166 9.07529H2.70068C2.415 9.07442 2.18441 8.84238 2.18506 8.55673C2.18512 8.52827 2.18718 8.49972 2.19189 8.47177L2.58545 6.1622L0.91748 4.52744C0.714051 4.32749 0.710912 4.00064 0.910645 3.79697C0.989643 3.71652 1.09298 3.66394 1.20459 3.64755L3.50732 3.30966L4.53564 1.21396L4.53857 1.2081H4.53955ZM3.98975 3.72861C3.95603 3.79697 3.89854 3.84966 3.82959 3.87802L3.75732 3.89755L1.49268 4.22861L3.13232 5.83603C3.18642 5.88916 3.2186 5.95933 3.22412 6.03329L3.22119 6.10751L2.83447 8.37411L4.85596 7.30576H4.85693C4.94674 7.25903 5.05324 7.25909 5.14307 7.30576H5.14404L7.16553 8.37411L6.77979 6.10751C6.76312 6.00803 6.79576 5.90676 6.86768 5.83603L8.50635 4.22861L6.24268 3.89755C6.14231 3.88254 6.05514 3.81966 6.01025 3.72861V3.72763L4.99951 1.66806L3.98975 3.72861Z" stroke="black" stroke-opacity="0.2" stroke-width="0.2"/>
<path d="M4.53955 1.2081C4.68668 0.953725 5.01168 0.866793 5.26611 1.01376C5.3466 1.06026 5.4138 1.12676 5.46045 1.20712L5.46436 1.21396H5.46338L6.4917 3.30966L8.79541 3.64755C9.07772 3.689 9.27315 3.95116 9.23193 4.23349C9.21558 4.3448 9.16367 4.44849 9.0835 4.52744H9.08252L7.41357 6.1622L7.80811 8.47177C7.85591 8.7528 7.66718 9.01938 7.38623 9.06747C7.2738 9.08663 7.15787 9.06814 7.05713 9.01474L4.99951 7.92685L2.94287 9.01474C2.86858 9.05431 2.7858 9.0751 2.70166 9.07529H2.70068C2.415 9.07442 2.18441 8.84238 2.18506 8.55673C2.18512 8.52827 2.18718 8.49972 2.19189 8.47177L2.58545 6.1622L0.91748 4.52744C0.714051 4.32749 0.710912 4.00064 0.910645 3.79697C0.989643 3.71652 1.09298 3.66394 1.20459 3.64755L3.50732 3.30966L4.53564 1.21396L4.53857 1.2081H4.53955ZM3.98975 3.72861C3.95603 3.79697 3.89854 3.84966 3.82959 3.87802L3.75732 3.89755L1.49268 4.22861L3.13232 5.83603C3.18642 5.88916 3.2186 5.95933 3.22412 6.03329L3.22119 6.10751L2.83447 8.37411L4.85596 7.30576H4.85693C4.94674 7.25903 5.05324 7.25909 5.14307 7.30576H5.14404L7.16553 8.37411L6.77979 6.10751C6.76312 6.00803 6.79576 5.90676 6.86768 5.83603L8.50635 4.22861L6.24268 3.89755C6.14231 3.88254 6.05514 3.81966 6.01025 3.72861V3.72763L4.99951 1.66806L3.98975 3.72861Z" stroke="black" stroke-opacity="0.2" stroke-width="0.2"/>
<path d="M4.53955 1.2081C4.68668 0.953725 5.01168 0.866793 5.26611 1.01376C5.3466 1.06026 5.4138 1.12676 5.46045 1.20712L5.46436 1.21396H5.46338L6.4917 3.30966L8.79541 3.64755C9.07772 3.689 9.27315 3.95116 9.23193 4.23349C9.21558 4.3448 9.16367 4.44849 9.0835 4.52744H9.08252L7.41357 6.1622L7.80811 8.47177C7.85591 8.7528 7.66718 9.01938 7.38623 9.06747C7.2738 9.08663 7.15787 9.06814 7.05713 9.01474L4.99951 7.92685L2.94287 9.01474C2.86858 9.05431 2.7858 9.0751 2.70166 9.07529H2.70068C2.415 9.07442 2.18441 8.84238 2.18506 8.55673C2.18512 8.52827 2.18718 8.49972 2.19189 8.47177L2.58545 6.1622L0.91748 4.52744C0.714051 4.32749 0.710912 4.00064 0.910645 3.79697C0.989643 3.71652 1.09298 3.66394 1.20459 3.64755L3.50732 3.30966L4.53564 1.21396L4.53857 1.2081H4.53955ZM3.98975 3.72861C3.95603 3.79697 3.89854 3.84966 3.82959 3.87802L3.75732 3.89755L1.49268 4.22861L3.13232 5.83603C3.18642 5.88916 3.2186 5.95933 3.22412 6.03329L3.22119 6.10751L2.83447 8.37411L4.85596 7.30576H4.85693C4.94674 7.25903 5.05324 7.25909 5.14307 7.30576H5.14404L7.16553 8.37411L6.77979 6.10751C6.76312 6.00803 6.79576 5.90676 6.86768 5.83603L8.50635 4.22861L6.24268 3.89755C6.14231 3.88254 6.05514 3.81966 6.01025 3.72861V3.72763L4.99951 1.66806L3.98975 3.72861Z" stroke="black" stroke-opacity="0.2" stroke-width="0.2"/>
</g>
<defs>
<clipPath id="clip0_174_2054">
<rect width="10" height="10" fill="white"/>
</clipPath>
</defs>
</svg>
