<svg width="27" height="26" viewBox="0 0 27 26" fill="none" xmlns="http://www.w3.org/2000/svg">
<path d="M0.5 5.80915C0.5 2.60084 3.10084 0 6.30915 0H20.6909C23.8992 0 26.5 2.60084 26.5 5.80915V20.1909C26.5 23.3992 23.8992 26 20.6909 26H6.30915C3.10084 26 0.5 23.3992 0.5 20.1909V5.80915Z" fill="black"/>
<path d="M0.5 5.80915C0.5 2.60084 3.10084 0 6.30915 0H20.6909C23.8992 0 26.5 2.60084 26.5 5.80915V20.1909C26.5 23.3992 23.8992 26 20.6909 26H6.30915C3.10084 26 0.5 23.3992 0.5 20.1909V5.80915Z" fill="black" fill-opacity="0.2"/>
<path d="M0.5 5.80915C0.5 2.60084 3.10084 0 6.30915 0H20.6909C23.8992 0 26.5 2.60084 26.5 5.80915V20.1909C26.5 23.3992 23.8992 26 20.6909 26H6.30915C3.10084 26 0.5 23.3992 0.5 20.1909V5.80915Z" fill="black" fill-opacity="0.2"/>
<path d="M0.5 5.80915C0.5 2.60084 3.10084 0 6.30915 0H20.6909C23.8992 0 26.5 2.60084 26.5 5.80915V20.1909C26.5 23.3992 23.8992 26 20.6909 26H6.30915C3.10084 26 0.5 23.3992 0.5 20.1909V5.80915Z" fill="black" fill-opacity="0.2"/>
<path d="M0.5 5.80915C0.5 2.60084 3.10084 0 6.30915 0H20.6909C23.8992 0 26.5 2.60084 26.5 5.80915V20.1909C26.5 23.3992 23.8992 26 20.6909 26H6.30915C3.10084 26 0.5 23.3992 0.5 20.1909V5.80915Z" fill="black" fill-opacity="0.2"/>
<path d="M0.5 5.80915C0.5 2.60084 3.10084 0 6.30915 0H20.6909C23.8992 0 26.5 2.60084 26.5 5.80915V20.1909C26.5 23.3992 23.8992 26 20.6909 26H6.30915C3.10084 26 0.5 23.3992 0.5 20.1909V5.80915Z" fill="black" fill-opacity="0.2"/>
<g clip-path="url(#clip0_287_2486)">
<path d="M15.8596 16.6667H17.1032C17.7709 16.6667 18.3962 16.3121 18.7763 15.7178L21.3503 11.6936C21.5253 11.42 21.5486 11.065 21.4111 10.7675C21.1473 10.1962 20.4363 10.0884 20.0376 10.5592L17.9944 12.9717C17.173 13.9417 15.8828 14.26 14.7542 13.7714L11.9642 12.5635C11.2699 12.2629 10.4835 12.3515 9.86134 12.8004L6.90728 14.932C6.52358 15.2089 6.39041 15.7517 6.59664 16.1981C6.82248 16.687 7.37173 16.8852 7.82342 16.6408L10.2759 15.3135C10.7537 15.0549 11.2753 15.5676 11.0836 16.1072L9.70029 20M10.0852 6.25H7.77549M9.31533 8.75H7.77549M18.5543 8.33333C18.5543 10.1743 17.1756 11.6667 15.4747 11.6667C13.7738 11.6667 12.395 10.1743 12.395 8.33333C12.395 6.49238 13.7738 5 15.4747 5C17.1756 5 18.5543 6.49238 18.5543 8.33333Z" stroke="white" stroke-width="1.4" stroke-linecap="round" stroke-linejoin="round"/>
</g>
<defs>
<clipPath id="clip0_287_2486">
<rect width="18" height="18" fill="white" transform="translate(4.5 4)"/>
</clipPath>
</defs>
</svg>
