<svg width="24" height="24" viewBox="0 0 24 24" fill="none" xmlns="http://www.w3.org/2000/svg">
<path d="M12.3137 4C7.74117 4 4 7.74117 4 12.3137C4 16.8863 7.74117 20.6274 12.3137 20.6274C16.8863 20.6274 20.6274 16.8863 20.6274 12.3137C20.6274 7.74117 16.8863 4 12.3137 4ZM12.3137 18.9647C8.65568 18.9647 5.66274 15.9718 5.66274 12.3137C5.66274 8.65568 8.65568 5.66274 12.3137 5.66274C15.9718 5.66274 18.9647 8.65568 18.9647 12.3137C18.9647 15.9718 15.9718 18.9647 12.3137 18.9647Z" fill="white"/>
<path d="M13.1452 11.9811V8.43389C13.1452 8.12905 12.8958 7.87964 12.5909 7.87964H12.0367C11.7318 7.87964 11.4824 8.12905 11.4824 8.43389V12.3136C11.4824 12.5353 11.5656 12.757 11.7318 12.8956L14.3922 15.556C14.6139 15.7777 14.9465 15.7777 15.1682 15.556L15.5561 15.168C15.7778 14.9463 15.7778 14.6138 15.5561 14.3921L13.1452 11.9811Z" fill="white"/>
</svg>
