<svg width="23" height="23" viewBox="0 0 23 23" fill="none" xmlns="http://www.w3.org/2000/svg">
<path d="M15.0698 12.9614L14.0157 11.9073C14.4309 10.7732 14.2153 9.83086 13.3688 9.08017C12.5223 8.32947 11.6039 8.13781 10.6136 8.50517L9.55942 7.451C9.83094 7.27531 10.1344 7.14753 10.4698 7.06767C10.8052 6.98781 11.1487 6.94788 11.5 6.94788C12.6341 6.94788 13.5964 7.34319 14.387 8.13381C15.1776 8.92444 15.573 9.88676 15.573 11.0208C15.573 11.3722 15.529 11.7196 15.4412 12.063C15.3533 12.4064 15.2296 12.7059 15.0698 12.9614ZM18.1605 16.052L17.2021 15.0937C17.9848 14.5187 18.6676 13.8758 19.2506 13.1651C19.8335 12.4543 20.2608 11.7395 20.5323 11.0208C19.7337 9.24788 18.5358 7.84631 16.9386 6.81611C15.3414 5.7859 13.6084 5.27079 11.7396 5.27079C11.0688 5.27079 10.382 5.33468 9.67921 5.46246C8.97643 5.59024 8.42539 5.74197 8.02608 5.91767L6.924 4.79163C7.48303 4.53607 8.19778 4.31246 9.06827 4.12079C9.93876 3.92913 10.7893 3.83329 11.6198 3.83329C13.9039 3.83329 15.9922 4.48416 17.8849 5.7859C19.7776 7.08763 21.1632 8.8326 22.0417 11.0208C21.6264 12.043 21.0914 12.9774 20.4365 13.8239C19.7816 14.6704 19.023 15.4132 18.1605 16.052ZM19.55 21.4666L15.525 17.5135C14.966 17.7371 14.3351 17.9088 13.6323 18.0286C12.9296 18.1484 12.2188 18.2083 11.5 18.2083C9.1681 18.2083 7.05178 17.5574 5.15108 16.2557C3.25039 14.954 1.85282 13.209 0.958374 11.0208C1.27782 10.1902 1.72105 9.37965 2.28806 8.58902C2.85508 7.7984 3.54587 7.04371 4.36046 6.32496L1.34171 3.30621L2.34796 2.276L20.4844 20.4125L19.55 21.4666ZM5.34275 7.33121C4.75178 7.76246 4.18077 8.32947 3.62973 9.03225C3.07869 9.73503 2.68337 10.3979 2.44379 11.0208C3.25837 12.7937 4.48424 14.1953 6.1214 15.2255C7.75855 16.2557 9.61532 16.7708 11.6917 16.7708C12.2188 16.7708 12.7379 16.7388 13.249 16.675C13.7601 16.6111 14.1434 16.5152 14.399 16.3875L12.8657 14.8541C12.69 14.934 12.4743 14.9939 12.2188 15.0338C11.9632 15.0737 11.7237 15.0937 11.5 15.0937C10.382 15.0937 9.42365 14.7024 8.62504 13.9198C7.82643 13.1371 7.42712 12.1708 7.42712 11.0208C7.42712 10.7812 7.44709 10.5416 7.48702 10.302C7.52695 10.0625 7.58685 9.84683 7.66671 9.65517L5.34275 7.33121Z" fill="black"/>
<path d="M15.0698 12.9614L14.0157 11.9073C14.4309 10.7732 14.2153 9.83086 13.3688 9.08017C12.5223 8.32947 11.6039 8.13781 10.6136 8.50517L9.55942 7.451C9.83094 7.27531 10.1344 7.14753 10.4698 7.06767C10.8052 6.98781 11.1487 6.94788 11.5 6.94788C12.6341 6.94788 13.5964 7.34319 14.387 8.13381C15.1776 8.92444 15.573 9.88676 15.573 11.0208C15.573 11.3722 15.529 11.7196 15.4412 12.063C15.3533 12.4064 15.2296 12.7059 15.0698 12.9614ZM18.1605 16.052L17.2021 15.0937C17.9848 14.5187 18.6676 13.8758 19.2506 13.1651C19.8335 12.4543 20.2608 11.7395 20.5323 11.0208C19.7337 9.24788 18.5358 7.84631 16.9386 6.81611C15.3414 5.7859 13.6084 5.27079 11.7396 5.27079C11.0688 5.27079 10.382 5.33468 9.67921 5.46246C8.97643 5.59024 8.42539 5.74197 8.02608 5.91767L6.924 4.79163C7.48303 4.53607 8.19778 4.31246 9.06827 4.12079C9.93876 3.92913 10.7893 3.83329 11.6198 3.83329C13.9039 3.83329 15.9922 4.48416 17.8849 5.7859C19.7776 7.08763 21.1632 8.8326 22.0417 11.0208C21.6264 12.043 21.0914 12.9774 20.4365 13.8239C19.7816 14.6704 19.023 15.4132 18.1605 16.052ZM19.55 21.4666L15.525 17.5135C14.966 17.7371 14.3351 17.9088 13.6323 18.0286C12.9296 18.1484 12.2188 18.2083 11.5 18.2083C9.1681 18.2083 7.05178 17.5574 5.15108 16.2557C3.25039 14.954 1.85282 13.209 0.958374 11.0208C1.27782 10.1902 1.72105 9.37965 2.28806 8.58902C2.85508 7.7984 3.54587 7.04371 4.36046 6.32496L1.34171 3.30621L2.34796 2.276L20.4844 20.4125L19.55 21.4666ZM5.34275 7.33121C4.75178 7.76246 4.18077 8.32947 3.62973 9.03225C3.07869 9.73503 2.68337 10.3979 2.44379 11.0208C3.25837 12.7937 4.48424 14.1953 6.1214 15.2255C7.75855 16.2557 9.61532 16.7708 11.6917 16.7708C12.2188 16.7708 12.7379 16.7388 13.249 16.675C13.7601 16.6111 14.1434 16.5152 14.399 16.3875L12.8657 14.8541C12.69 14.934 12.4743 14.9939 12.2188 15.0338C11.9632 15.0737 11.7237 15.0937 11.5 15.0937C10.382 15.0937 9.42365 14.7024 8.62504 13.9198C7.82643 13.1371 7.42712 12.1708 7.42712 11.0208C7.42712 10.7812 7.44709 10.5416 7.48702 10.302C7.52695 10.0625 7.58685 9.84683 7.66671 9.65517L5.34275 7.33121Z" fill="black" fill-opacity="0.2"/>
<path d="M15.0698 12.9614L14.0157 11.9073C14.4309 10.7732 14.2153 9.83086 13.3688 9.08017C12.5223 8.32947 11.6039 8.13781 10.6136 8.50517L9.55942 7.451C9.83094 7.27531 10.1344 7.14753 10.4698 7.06767C10.8052 6.98781 11.1487 6.94788 11.5 6.94788C12.6341 6.94788 13.5964 7.34319 14.387 8.13381C15.1776 8.92444 15.573 9.88676 15.573 11.0208C15.573 11.3722 15.529 11.7196 15.4412 12.063C15.3533 12.4064 15.2296 12.7059 15.0698 12.9614ZM18.1605 16.052L17.2021 15.0937C17.9848 14.5187 18.6676 13.8758 19.2506 13.1651C19.8335 12.4543 20.2608 11.7395 20.5323 11.0208C19.7337 9.24788 18.5358 7.84631 16.9386 6.81611C15.3414 5.7859 13.6084 5.27079 11.7396 5.27079C11.0688 5.27079 10.382 5.33468 9.67921 5.46246C8.97643 5.59024 8.42539 5.74197 8.02608 5.91767L6.924 4.79163C7.48303 4.53607 8.19778 4.31246 9.06827 4.12079C9.93876 3.92913 10.7893 3.83329 11.6198 3.83329C13.9039 3.83329 15.9922 4.48416 17.8849 5.7859C19.7776 7.08763 21.1632 8.8326 22.0417 11.0208C21.6264 12.043 21.0914 12.9774 20.4365 13.8239C19.7816 14.6704 19.023 15.4132 18.1605 16.052ZM19.55 21.4666L15.525 17.5135C14.966 17.7371 14.3351 17.9088 13.6323 18.0286C12.9296 18.1484 12.2188 18.2083 11.5 18.2083C9.1681 18.2083 7.05178 17.5574 5.15108 16.2557C3.25039 14.954 1.85282 13.209 0.958374 11.0208C1.27782 10.1902 1.72105 9.37965 2.28806 8.58902C2.85508 7.7984 3.54587 7.04371 4.36046 6.32496L1.34171 3.30621L2.34796 2.276L20.4844 20.4125L19.55 21.4666ZM5.34275 7.33121C4.75178 7.76246 4.18077 8.32947 3.62973 9.03225C3.07869 9.73503 2.68337 10.3979 2.44379 11.0208C3.25837 12.7937 4.48424 14.1953 6.1214 15.2255C7.75855 16.2557 9.61532 16.7708 11.6917 16.7708C12.2188 16.7708 12.7379 16.7388 13.249 16.675C13.7601 16.6111 14.1434 16.5152 14.399 16.3875L12.8657 14.8541C12.69 14.934 12.4743 14.9939 12.2188 15.0338C11.9632 15.0737 11.7237 15.0937 11.5 15.0937C10.382 15.0937 9.42365 14.7024 8.62504 13.9198C7.82643 13.1371 7.42712 12.1708 7.42712 11.0208C7.42712 10.7812 7.44709 10.5416 7.48702 10.302C7.52695 10.0625 7.58685 9.84683 7.66671 9.65517L5.34275 7.33121Z" fill="black" fill-opacity="0.2"/>
<path d="M15.0698 12.9614L14.0157 11.9073C14.4309 10.7732 14.2153 9.83086 13.3688 9.08017C12.5223 8.32947 11.6039 8.13781 10.6136 8.50517L9.55942 7.451C9.83094 7.27531 10.1344 7.14753 10.4698 7.06767C10.8052 6.98781 11.1487 6.94788 11.5 6.94788C12.6341 6.94788 13.5964 7.34319 14.387 8.13381C15.1776 8.92444 15.573 9.88676 15.573 11.0208C15.573 11.3722 15.529 11.7196 15.4412 12.063C15.3533 12.4064 15.2296 12.7059 15.0698 12.9614ZM18.1605 16.052L17.2021 15.0937C17.9848 14.5187 18.6676 13.8758 19.2506 13.1651C19.8335 12.4543 20.2608 11.7395 20.5323 11.0208C19.7337 9.24788 18.5358 7.84631 16.9386 6.81611C15.3414 5.7859 13.6084 5.27079 11.7396 5.27079C11.0688 5.27079 10.382 5.33468 9.67921 5.46246C8.97643 5.59024 8.42539 5.74197 8.02608 5.91767L6.924 4.79163C7.48303 4.53607 8.19778 4.31246 9.06827 4.12079C9.93876 3.92913 10.7893 3.83329 11.6198 3.83329C13.9039 3.83329 15.9922 4.48416 17.8849 5.7859C19.7776 7.08763 21.1632 8.8326 22.0417 11.0208C21.6264 12.043 21.0914 12.9774 20.4365 13.8239C19.7816 14.6704 19.023 15.4132 18.1605 16.052ZM19.55 21.4666L15.525 17.5135C14.966 17.7371 14.3351 17.9088 13.6323 18.0286C12.9296 18.1484 12.2188 18.2083 11.5 18.2083C9.1681 18.2083 7.05178 17.5574 5.15108 16.2557C3.25039 14.954 1.85282 13.209 0.958374 11.0208C1.27782 10.1902 1.72105 9.37965 2.28806 8.58902C2.85508 7.7984 3.54587 7.04371 4.36046 6.32496L1.34171 3.30621L2.34796 2.276L20.4844 20.4125L19.55 21.4666ZM5.34275 7.33121C4.75178 7.76246 4.18077 8.32947 3.62973 9.03225C3.07869 9.73503 2.68337 10.3979 2.44379 11.0208C3.25837 12.7937 4.48424 14.1953 6.1214 15.2255C7.75855 16.2557 9.61532 16.7708 11.6917 16.7708C12.2188 16.7708 12.7379 16.7388 13.249 16.675C13.7601 16.6111 14.1434 16.5152 14.399 16.3875L12.8657 14.8541C12.69 14.934 12.4743 14.9939 12.2188 15.0338C11.9632 15.0737 11.7237 15.0937 11.5 15.0937C10.382 15.0937 9.42365 14.7024 8.62504 13.9198C7.82643 13.1371 7.42712 12.1708 7.42712 11.0208C7.42712 10.7812 7.44709 10.5416 7.48702 10.302C7.52695 10.0625 7.58685 9.84683 7.66671 9.65517L5.34275 7.33121Z" fill="black" fill-opacity="0.2"/>
<path d="M15.0698 12.9614L14.0157 11.9073C14.4309 10.7732 14.2153 9.83086 13.3688 9.08017C12.5223 8.32947 11.6039 8.13781 10.6136 8.50517L9.55942 7.451C9.83094 7.27531 10.1344 7.14753 10.4698 7.06767C10.8052 6.98781 11.1487 6.94788 11.5 6.94788C12.6341 6.94788 13.5964 7.34319 14.387 8.13381C15.1776 8.92444 15.573 9.88676 15.573 11.0208C15.573 11.3722 15.529 11.7196 15.4412 12.063C15.3533 12.4064 15.2296 12.7059 15.0698 12.9614ZM18.1605 16.052L17.2021 15.0937C17.9848 14.5187 18.6676 13.8758 19.2506 13.1651C19.8335 12.4543 20.2608 11.7395 20.5323 11.0208C19.7337 9.24788 18.5358 7.84631 16.9386 6.81611C15.3414 5.7859 13.6084 5.27079 11.7396 5.27079C11.0688 5.27079 10.382 5.33468 9.67921 5.46246C8.97643 5.59024 8.42539 5.74197 8.02608 5.91767L6.924 4.79163C7.48303 4.53607 8.19778 4.31246 9.06827 4.12079C9.93876 3.92913 10.7893 3.83329 11.6198 3.83329C13.9039 3.83329 15.9922 4.48416 17.8849 5.7859C19.7776 7.08763 21.1632 8.8326 22.0417 11.0208C21.6264 12.043 21.0914 12.9774 20.4365 13.8239C19.7816 14.6704 19.023 15.4132 18.1605 16.052ZM19.55 21.4666L15.525 17.5135C14.966 17.7371 14.3351 17.9088 13.6323 18.0286C12.9296 18.1484 12.2188 18.2083 11.5 18.2083C9.1681 18.2083 7.05178 17.5574 5.15108 16.2557C3.25039 14.954 1.85282 13.209 0.958374 11.0208C1.27782 10.1902 1.72105 9.37965 2.28806 8.58902C2.85508 7.7984 3.54587 7.04371 4.36046 6.32496L1.34171 3.30621L2.34796 2.276L20.4844 20.4125L19.55 21.4666ZM5.34275 7.33121C4.75178 7.76246 4.18077 8.32947 3.62973 9.03225C3.07869 9.73503 2.68337 10.3979 2.44379 11.0208C3.25837 12.7937 4.48424 14.1953 6.1214 15.2255C7.75855 16.2557 9.61532 16.7708 11.6917 16.7708C12.2188 16.7708 12.7379 16.7388 13.249 16.675C13.7601 16.6111 14.1434 16.5152 14.399 16.3875L12.8657 14.8541C12.69 14.934 12.4743 14.9939 12.2188 15.0338C11.9632 15.0737 11.7237 15.0937 11.5 15.0937C10.382 15.0937 9.42365 14.7024 8.62504 13.9198C7.82643 13.1371 7.42712 12.1708 7.42712 11.0208C7.42712 10.7812 7.44709 10.5416 7.48702 10.302C7.52695 10.0625 7.58685 9.84683 7.66671 9.65517L5.34275 7.33121Z" fill="black" fill-opacity="0.2"/>
<path d="M15.0698 12.9614L14.0157 11.9073C14.4309 10.7732 14.2153 9.83086 13.3688 9.08017C12.5223 8.32947 11.6039 8.13781 10.6136 8.50517L9.55942 7.451C9.83094 7.27531 10.1344 7.14753 10.4698 7.06767C10.8052 6.98781 11.1487 6.94788 11.5 6.94788C12.6341 6.94788 13.5964 7.34319 14.387 8.13381C15.1776 8.92444 15.573 9.88676 15.573 11.0208C15.573 11.3722 15.529 11.7196 15.4412 12.063C15.3533 12.4064 15.2296 12.7059 15.0698 12.9614ZM18.1605 16.052L17.2021 15.0937C17.9848 14.5187 18.6676 13.8758 19.2506 13.1651C19.8335 12.4543 20.2608 11.7395 20.5323 11.0208C19.7337 9.24788 18.5358 7.84631 16.9386 6.81611C15.3414 5.7859 13.6084 5.27079 11.7396 5.27079C11.0688 5.27079 10.382 5.33468 9.67921 5.46246C8.97643 5.59024 8.42539 5.74197 8.02608 5.91767L6.924 4.79163C7.48303 4.53607 8.19778 4.31246 9.06827 4.12079C9.93876 3.92913 10.7893 3.83329 11.6198 3.83329C13.9039 3.83329 15.9922 4.48416 17.8849 5.7859C19.7776 7.08763 21.1632 8.8326 22.0417 11.0208C21.6264 12.043 21.0914 12.9774 20.4365 13.8239C19.7816 14.6704 19.023 15.4132 18.1605 16.052ZM19.55 21.4666L15.525 17.5135C14.966 17.7371 14.3351 17.9088 13.6323 18.0286C12.9296 18.1484 12.2188 18.2083 11.5 18.2083C9.1681 18.2083 7.05178 17.5574 5.15108 16.2557C3.25039 14.954 1.85282 13.209 0.958374 11.0208C1.27782 10.1902 1.72105 9.37965 2.28806 8.58902C2.85508 7.7984 3.54587 7.04371 4.36046 6.32496L1.34171 3.30621L2.34796 2.276L20.4844 20.4125L19.55 21.4666ZM5.34275 7.33121C4.75178 7.76246 4.18077 8.32947 3.62973 9.03225C3.07869 9.73503 2.68337 10.3979 2.44379 11.0208C3.25837 12.7937 4.48424 14.1953 6.1214 15.2255C7.75855 16.2557 9.61532 16.7708 11.6917 16.7708C12.2188 16.7708 12.7379 16.7388 13.249 16.675C13.7601 16.6111 14.1434 16.5152 14.399 16.3875L12.8657 14.8541C12.69 14.934 12.4743 14.9939 12.2188 15.0338C11.9632 15.0737 11.7237 15.0937 11.5 15.0937C10.382 15.0937 9.42365 14.7024 8.62504 13.9198C7.82643 13.1371 7.42712 12.1708 7.42712 11.0208C7.42712 10.7812 7.44709 10.5416 7.48702 10.302C7.52695 10.0625 7.58685 9.84683 7.66671 9.65517L5.34275 7.33121Z" fill="black" fill-opacity="0.2"/>
</svg>
