<svg width="20" height="20" viewBox="0 0 20 20" fill="none" xmlns="http://www.w3.org/2000/svg">
<g clip-path="url(#clip0_23_408)">
<path d="M10 3.27539C14.1796 3.27539 17.997 5.74333 19.9678 9.70801V9.70898L20.0898 9.95508L20.1113 9.99902L20.0898 10.043L19.9678 10.2891V10.29C17.997 14.2547 14.1796 16.7227 10 16.7227C5.82044 16.7227 2.00305 14.2547 0.0322266 10.29V10.2891L-0.0898438 10.043L-0.111328 9.99902L-0.0898438 9.95508L0.0322266 9.70898V9.70801C2.00304 5.74333 5.82041 3.27539 10 3.27539ZM10 4.5791C6.42685 4.5791 3.13997 6.64431 1.35059 9.99902C3.13998 13.3537 6.42687 15.4189 10 15.4189C13.573 15.4189 16.859 13.3534 18.6484 9.99902C16.859 6.64455 13.573 4.5791 10 4.5791ZM10 6.58691C11.8812 6.58691 13.4121 8.11778 13.4121 9.99902C13.4121 11.8802 11.8812 13.4111 10 13.4111C8.11878 13.4111 6.58792 11.8802 6.58789 9.99902C6.58789 8.11778 8.11876 6.58691 10 6.58691ZM10 7.89062C8.83752 7.89062 7.8916 8.83654 7.8916 9.99902C7.89163 11.1615 8.83754 12.1074 10 12.1074C11.1625 12.1074 12.1084 11.1615 12.1084 9.99902C12.1084 8.83654 11.1625 7.89062 10 7.89062Z" fill="black"/>
<path d="M10 3.27539C14.1796 3.27539 17.997 5.74333 19.9678 9.70801V9.70898L20.0898 9.95508L20.1113 9.99902L20.0898 10.043L19.9678 10.2891V10.29C17.997 14.2547 14.1796 16.7227 10 16.7227C5.82044 16.7227 2.00305 14.2547 0.0322266 10.29V10.2891L-0.0898438 10.043L-0.111328 9.99902L-0.0898438 9.95508L0.0322266 9.70898V9.70801C2.00304 5.74333 5.82041 3.27539 10 3.27539ZM10 4.5791C6.42685 4.5791 3.13997 6.64431 1.35059 9.99902C3.13998 13.3537 6.42687 15.4189 10 15.4189C13.573 15.4189 16.859 13.3534 18.6484 9.99902C16.859 6.64455 13.573 4.5791 10 4.5791ZM10 6.58691C11.8812 6.58691 13.4121 8.11778 13.4121 9.99902C13.4121 11.8802 11.8812 13.4111 10 13.4111C8.11878 13.4111 6.58792 11.8802 6.58789 9.99902C6.58789 8.11778 8.11876 6.58691 10 6.58691ZM10 7.89062C8.83752 7.89062 7.8916 8.83654 7.8916 9.99902C7.89163 11.1615 8.83754 12.1074 10 12.1074C11.1625 12.1074 12.1084 11.1615 12.1084 9.99902C12.1084 8.83654 11.1625 7.89062 10 7.89062Z" fill="black" fill-opacity="0.2"/>
<path d="M10 3.27539C14.1796 3.27539 17.997 5.74333 19.9678 9.70801V9.70898L20.0898 9.95508L20.1113 9.99902L20.0898 10.043L19.9678 10.2891V10.29C17.997 14.2547 14.1796 16.7227 10 16.7227C5.82044 16.7227 2.00305 14.2547 0.0322266 10.29V10.2891L-0.0898438 10.043L-0.111328 9.99902L-0.0898438 9.95508L0.0322266 9.70898V9.70801C2.00304 5.74333 5.82041 3.27539 10 3.27539ZM10 4.5791C6.42685 4.5791 3.13997 6.64431 1.35059 9.99902C3.13998 13.3537 6.42687 15.4189 10 15.4189C13.573 15.4189 16.859 13.3534 18.6484 9.99902C16.859 6.64455 13.573 4.5791 10 4.5791ZM10 6.58691C11.8812 6.58691 13.4121 8.11778 13.4121 9.99902C13.4121 11.8802 11.8812 13.4111 10 13.4111C8.11878 13.4111 6.58792 11.8802 6.58789 9.99902C6.58789 8.11778 8.11876 6.58691 10 6.58691ZM10 7.89062C8.83752 7.89062 7.8916 8.83654 7.8916 9.99902C7.89163 11.1615 8.83754 12.1074 10 12.1074C11.1625 12.1074 12.1084 11.1615 12.1084 9.99902C12.1084 8.83654 11.1625 7.89062 10 7.89062Z" fill="black" fill-opacity="0.2"/>
<path d="M10 3.27539C14.1796 3.27539 17.997 5.74333 19.9678 9.70801V9.70898L20.0898 9.95508L20.1113 9.99902L20.0898 10.043L19.9678 10.2891V10.29C17.997 14.2547 14.1796 16.7227 10 16.7227C5.82044 16.7227 2.00305 14.2547 0.0322266 10.29V10.2891L-0.0898438 10.043L-0.111328 9.99902L-0.0898438 9.95508L0.0322266 9.70898V9.70801C2.00304 5.74333 5.82041 3.27539 10 3.27539ZM10 4.5791C6.42685 4.5791 3.13997 6.64431 1.35059 9.99902C3.13998 13.3537 6.42687 15.4189 10 15.4189C13.573 15.4189 16.859 13.3534 18.6484 9.99902C16.859 6.64455 13.573 4.5791 10 4.5791ZM10 6.58691C11.8812 6.58691 13.4121 8.11778 13.4121 9.99902C13.4121 11.8802 11.8812 13.4111 10 13.4111C8.11878 13.4111 6.58792 11.8802 6.58789 9.99902C6.58789 8.11778 8.11876 6.58691 10 6.58691ZM10 7.89062C8.83752 7.89062 7.8916 8.83654 7.8916 9.99902C7.89163 11.1615 8.83754 12.1074 10 12.1074C11.1625 12.1074 12.1084 11.1615 12.1084 9.99902C12.1084 8.83654 11.1625 7.89062 10 7.89062Z" fill="black" fill-opacity="0.2"/>
<path d="M10 3.27539C14.1796 3.27539 17.997 5.74333 19.9678 9.70801V9.70898L20.0898 9.95508L20.1113 9.99902L20.0898 10.043L19.9678 10.2891V10.29C17.997 14.2547 14.1796 16.7227 10 16.7227C5.82044 16.7227 2.00305 14.2547 0.0322266 10.29V10.2891L-0.0898438 10.043L-0.111328 9.99902L-0.0898438 9.95508L0.0322266 9.70898V9.70801C2.00304 5.74333 5.82041 3.27539 10 3.27539ZM10 4.5791C6.42685 4.5791 3.13997 6.64431 1.35059 9.99902C3.13998 13.3537 6.42687 15.4189 10 15.4189C13.573 15.4189 16.859 13.3534 18.6484 9.99902C16.859 6.64455 13.573 4.5791 10 4.5791ZM10 6.58691C11.8812 6.58691 13.4121 8.11778 13.4121 9.99902C13.4121 11.8802 11.8812 13.4111 10 13.4111C8.11878 13.4111 6.58792 11.8802 6.58789 9.99902C6.58789 8.11778 8.11876 6.58691 10 6.58691ZM10 7.89062C8.83752 7.89062 7.8916 8.83654 7.8916 9.99902C7.89163 11.1615 8.83754 12.1074 10 12.1074C11.1625 12.1074 12.1084 11.1615 12.1084 9.99902C12.1084 8.83654 11.1625 7.89062 10 7.89062Z" fill="black" fill-opacity="0.2"/>
<path d="M10 3.27539C14.1796 3.27539 17.997 5.74333 19.9678 9.70801V9.70898L20.0898 9.95508L20.1113 9.99902L20.0898 10.043L19.9678 10.2891V10.29C17.997 14.2547 14.1796 16.7227 10 16.7227C5.82044 16.7227 2.00305 14.2547 0.0322266 10.29V10.2891L-0.0898438 10.043L-0.111328 9.99902L-0.0898438 9.95508L0.0322266 9.70898V9.70801C2.00304 5.74333 5.82041 3.27539 10 3.27539ZM10 4.5791C6.42685 4.5791 3.13997 6.64431 1.35059 9.99902C3.13998 13.3537 6.42687 15.4189 10 15.4189C13.573 15.4189 16.859 13.3534 18.6484 9.99902C16.859 6.64455 13.573 4.5791 10 4.5791ZM10 6.58691C11.8812 6.58691 13.4121 8.11778 13.4121 9.99902C13.4121 11.8802 11.8812 13.4111 10 13.4111C8.11878 13.4111 6.58792 11.8802 6.58789 9.99902C6.58789 8.11778 8.11876 6.58691 10 6.58691ZM10 7.89062C8.83752 7.89062 7.8916 8.83654 7.8916 9.99902C7.89163 11.1615 8.83754 12.1074 10 12.1074C11.1625 12.1074 12.1084 11.1615 12.1084 9.99902C12.1084 8.83654 11.1625 7.89062 10 7.89062Z" fill="black" fill-opacity="0.2"/>
<path d="M10 3.27539C14.1796 3.27539 17.997 5.74333 19.9678 9.70801V9.70898L20.0898 9.95508L20.1113 9.99902L20.0898 10.043L19.9678 10.2891V10.29C17.997 14.2547 14.1796 16.7227 10 16.7227C5.82044 16.7227 2.00305 14.2547 0.0322266 10.29V10.2891L-0.0898438 10.043L-0.111328 9.99902L-0.0898438 9.95508L0.0322266 9.70898V9.70801C2.00304 5.74333 5.82041 3.27539 10 3.27539ZM10 4.5791C6.42685 4.5791 3.13997 6.64431 1.35059 9.99902C3.13998 13.3537 6.42687 15.4189 10 15.4189C13.573 15.4189 16.859 13.3534 18.6484 9.99902C16.859 6.64455 13.573 4.5791 10 4.5791ZM10 6.58691C11.8812 6.58691 13.4121 8.11778 13.4121 9.99902C13.4121 11.8802 11.8812 13.4111 10 13.4111C8.11878 13.4111 6.58792 11.8802 6.58789 9.99902C6.58789 8.11778 8.11876 6.58691 10 6.58691ZM10 7.89062C8.83752 7.89062 7.8916 8.83654 7.8916 9.99902C7.89163 11.1615 8.83754 12.1074 10 12.1074C11.1625 12.1074 12.1084 11.1615 12.1084 9.99902C12.1084 8.83654 11.1625 7.89062 10 7.89062Z" stroke="black" stroke-width="0.2"/>
<path d="M10 3.27539C14.1796 3.27539 17.997 5.74333 19.9678 9.70801V9.70898L20.0898 9.95508L20.1113 9.99902L20.0898 10.043L19.9678 10.2891V10.29C17.997 14.2547 14.1796 16.7227 10 16.7227C5.82044 16.7227 2.00305 14.2547 0.0322266 10.29V10.2891L-0.0898438 10.043L-0.111328 9.99902L-0.0898438 9.95508L0.0322266 9.70898V9.70801C2.00304 5.74333 5.82041 3.27539 10 3.27539ZM10 4.5791C6.42685 4.5791 3.13997 6.64431 1.35059 9.99902C3.13998 13.3537 6.42687 15.4189 10 15.4189C13.573 15.4189 16.859 13.3534 18.6484 9.99902C16.859 6.64455 13.573 4.5791 10 4.5791ZM10 6.58691C11.8812 6.58691 13.4121 8.11778 13.4121 9.99902C13.4121 11.8802 11.8812 13.4111 10 13.4111C8.11878 13.4111 6.58792 11.8802 6.58789 9.99902C6.58789 8.11778 8.11876 6.58691 10 6.58691ZM10 7.89062C8.83752 7.89062 7.8916 8.83654 7.8916 9.99902C7.89163 11.1615 8.83754 12.1074 10 12.1074C11.1625 12.1074 12.1084 11.1615 12.1084 9.99902C12.1084 8.83654 11.1625 7.89062 10 7.89062Z" stroke="black" stroke-opacity="0.2" stroke-width="0.2"/>
<path d="M10 3.27539C14.1796 3.27539 17.997 5.74333 19.9678 9.70801V9.70898L20.0898 9.95508L20.1113 9.99902L20.0898 10.043L19.9678 10.2891V10.29C17.997 14.2547 14.1796 16.7227 10 16.7227C5.82044 16.7227 2.00305 14.2547 0.0322266 10.29V10.2891L-0.0898438 10.043L-0.111328 9.99902L-0.0898438 9.95508L0.0322266 9.70898V9.70801C2.00304 5.74333 5.82041 3.27539 10 3.27539ZM10 4.5791C6.42685 4.5791 3.13997 6.64431 1.35059 9.99902C3.13998 13.3537 6.42687 15.4189 10 15.4189C13.573 15.4189 16.859 13.3534 18.6484 9.99902C16.859 6.64455 13.573 4.5791 10 4.5791ZM10 6.58691C11.8812 6.58691 13.4121 8.11778 13.4121 9.99902C13.4121 11.8802 11.8812 13.4111 10 13.4111C8.11878 13.4111 6.58792 11.8802 6.58789 9.99902C6.58789 8.11778 8.11876 6.58691 10 6.58691ZM10 7.89062C8.83752 7.89062 7.8916 8.83654 7.8916 9.99902C7.89163 11.1615 8.83754 12.1074 10 12.1074C11.1625 12.1074 12.1084 11.1615 12.1084 9.99902C12.1084 8.83654 11.1625 7.89062 10 7.89062Z" stroke="black" stroke-opacity="0.2" stroke-width="0.2"/>
<path d="M10 3.27539C14.1796 3.27539 17.997 5.74333 19.9678 9.70801V9.70898L20.0898 9.95508L20.1113 9.99902L20.0898 10.043L19.9678 10.2891V10.29C17.997 14.2547 14.1796 16.7227 10 16.7227C5.82044 16.7227 2.00305 14.2547 0.0322266 10.29V10.2891L-0.0898438 10.043L-0.111328 9.99902L-0.0898438 9.95508L0.0322266 9.70898V9.70801C2.00304 5.74333 5.82041 3.27539 10 3.27539ZM10 4.5791C6.42685 4.5791 3.13997 6.64431 1.35059 9.99902C3.13998 13.3537 6.42687 15.4189 10 15.4189C13.573 15.4189 16.859 13.3534 18.6484 9.99902C16.859 6.64455 13.573 4.5791 10 4.5791ZM10 6.58691C11.8812 6.58691 13.4121 8.11778 13.4121 9.99902C13.4121 11.8802 11.8812 13.4111 10 13.4111C8.11878 13.4111 6.58792 11.8802 6.58789 9.99902C6.58789 8.11778 8.11876 6.58691 10 6.58691ZM10 7.89062C8.83752 7.89062 7.8916 8.83654 7.8916 9.99902C7.89163 11.1615 8.83754 12.1074 10 12.1074C11.1625 12.1074 12.1084 11.1615 12.1084 9.99902C12.1084 8.83654 11.1625 7.89062 10 7.89062Z" stroke="black" stroke-opacity="0.2" stroke-width="0.2"/>
<path d="M10 3.27539C14.1796 3.27539 17.997 5.74333 19.9678 9.70801V9.70898L20.0898 9.95508L20.1113 9.99902L20.0898 10.043L19.9678 10.2891V10.29C17.997 14.2547 14.1796 16.7227 10 16.7227C5.82044 16.7227 2.00305 14.2547 0.0322266 10.29V10.2891L-0.0898438 10.043L-0.111328 9.99902L-0.0898438 9.95508L0.0322266 9.70898V9.70801C2.00304 5.74333 5.82041 3.27539 10 3.27539ZM10 4.5791C6.42685 4.5791 3.13997 6.64431 1.35059 9.99902C3.13998 13.3537 6.42687 15.4189 10 15.4189C13.573 15.4189 16.859 13.3534 18.6484 9.99902C16.859 6.64455 13.573 4.5791 10 4.5791ZM10 6.58691C11.8812 6.58691 13.4121 8.11778 13.4121 9.99902C13.4121 11.8802 11.8812 13.4111 10 13.4111C8.11878 13.4111 6.58792 11.8802 6.58789 9.99902C6.58789 8.11778 8.11876 6.58691 10 6.58691ZM10 7.89062C8.83752 7.89062 7.8916 8.83654 7.8916 9.99902C7.89163 11.1615 8.83754 12.1074 10 12.1074C11.1625 12.1074 12.1084 11.1615 12.1084 9.99902C12.1084 8.83654 11.1625 7.89062 10 7.89062Z" stroke="black" stroke-opacity="0.2" stroke-width="0.2"/>
<path d="M10 3.27539C14.1796 3.27539 17.997 5.74333 19.9678 9.70801V9.70898L20.0898 9.95508L20.1113 9.99902L20.0898 10.043L19.9678 10.2891V10.29C17.997 14.2547 14.1796 16.7227 10 16.7227C5.82044 16.7227 2.00305 14.2547 0.0322266 10.29V10.2891L-0.0898438 10.043L-0.111328 9.99902L-0.0898438 9.95508L0.0322266 9.70898V9.70801C2.00304 5.74333 5.82041 3.27539 10 3.27539ZM10 4.5791C6.42685 4.5791 3.13997 6.64431 1.35059 9.99902C3.13998 13.3537 6.42687 15.4189 10 15.4189C13.573 15.4189 16.859 13.3534 18.6484 9.99902C16.859 6.64455 13.573 4.5791 10 4.5791ZM10 6.58691C11.8812 6.58691 13.4121 8.11778 13.4121 9.99902C13.4121 11.8802 11.8812 13.4111 10 13.4111C8.11878 13.4111 6.58792 11.8802 6.58789 9.99902C6.58789 8.11778 8.11876 6.58691 10 6.58691ZM10 7.89062C8.83752 7.89062 7.8916 8.83654 7.8916 9.99902C7.89163 11.1615 8.83754 12.1074 10 12.1074C11.1625 12.1074 12.1084 11.1615 12.1084 9.99902C12.1084 8.83654 11.1625 7.89062 10 7.89062Z" stroke="black" stroke-opacity="0.2" stroke-width="0.2"/>
</g>
<defs>
<clipPath id="clip0_23_408">
<rect width="20" height="20" fill="white"/>
</clipPath>
</defs>
</svg>
