<svg width="15" height="15" viewBox="0 0 15 15" fill="none" xmlns="http://www.w3.org/2000/svg">
<path d="M5.27693 0.833313C5.00673 0.834395 4.78796 1.05316 4.78688 1.32336L4.78304 5.75397C4.76816 6.42464 5.78186 6.42464 5.76698 5.75397V1.81725H12.6565V13.6245H5.76697V10.1817C5.78186 9.51101 4.76815 9.51101 4.78303 10.1817L4.78687 14.1184C4.78796 14.3886 5.00673 14.6074 5.27693 14.6084H13.1504C13.4206 14.6074 13.6393 14.3886 13.6404 14.1184V1.32336C13.6393 1.05316 13.4206 0.834393 13.1504 0.833313H5.27693ZM7.38989 5.11883L8.97822 6.70716C5.47995 6.88593 2.40527 8.27012 0.885717 11.4741C0.599776 12.099 1.57085 12.4899 1.79759 11.8411C3.31894 9.1149 6.51002 7.64141 9.16752 7.69206L7.35722 9.86556C6.93636 10.3697 7.69257 11.001 8.11344 10.4969L10.5752 7.54504C10.7397 7.34953 10.7272 7.06065 10.5464 6.88011L8.08365 4.42123C7.55678 3.89436 6.88073 4.60966 7.38989 5.11883Z" fill="black"/>
</svg>
