<svg width="80" height="80" viewBox="0 0 80 80" fill="none" xmlns="http://www.w3.org/2000/svg">
<g clip-path="url(#clip0_808_10639)">
<path d="M33.1663 45.5L32.833 42.6667C28.0179 44.1374 23.7334 46.9744 20.4997 50.8334C20.0556 51.4043 19.8203 52.1101 19.833 52.8334C19.7953 53.6113 20.0312 54.3779 20.4997 55C20.8123 55.3834 21.2063 55.6923 21.6531 55.9045C22.0999 56.1167 22.5884 56.2268 23.083 56.2268C23.5777 56.2268 24.0661 56.1167 24.5129 55.9045C24.9598 55.6923 25.3538 55.3834 25.6663 55C27.9862 52.2439 31.054 50.218 34.4997 49.1667C33.6476 48.1337 33.1768 46.839 33.1663 45.5Z" fill="#A6A6A6"/>
<path d="M47.1667 42.6667L46.8333 45.5C46.8229 46.839 46.3521 48.1337 45.5 49.1667C48.9456 50.218 52.0135 52.2439 54.3333 55C54.6459 55.3834 55.0399 55.6923 55.4867 55.9045C55.9336 56.1167 56.422 56.2268 56.9167 56.2268C57.4113 56.2268 57.8998 56.1167 58.3466 55.9045C58.7934 55.6923 59.1874 55.3834 59.5 55C59.9465 54.3972 60.1876 53.6669 60.1876 52.9167C60.1876 52.1665 59.9465 51.4362 59.5 50.8334C56.2663 46.9744 51.9818 44.1374 47.1667 42.6667Z" fill="#A6A6A6"/>
<path d="M31.8333 29.1667C24.4822 30.7491 17.7588 34.4585 12.5 39.8334C11.872 40.4488 11.5125 41.2875 11.5 42.1667C11.5668 42.8755 11.7948 43.5596 12.1667 44.1667C12.4364 44.5684 12.7947 44.9029 13.2139 45.1446C13.633 45.3862 14.102 45.5286 14.5848 45.5608C15.0676 45.593 15.5514 45.5141 15.9989 45.3302C16.4465 45.1463 16.846 44.8623 17.1667 44.5C21.3192 40.2927 26.5772 37.3459 32.3333 36L31.8333 29.1667Z" fill="#A6A6A6"/>
<path d="M48.167 29.1667L47.667 36C53.4231 37.3459 58.6811 40.2927 62.8337 44.5C63.1544 44.8623 63.5538 45.1463 64.0014 45.3302C64.4489 45.5141 64.9327 45.593 65.4155 45.5608C65.8983 45.5286 66.3673 45.3862 66.7865 45.1446C67.2057 44.9029 67.5639 44.5684 67.8337 44.1667C68.3056 43.5239 68.5315 42.7333 68.4703 41.9382C68.4092 41.1432 68.065 40.3964 67.5003 39.8334C62.2416 34.4585 55.5181 30.7491 48.167 29.1667Z" fill="#A6A6A6"/>
<path d="M30.8332 15.8333C20.9348 17.6348 11.7478 22.1994 4.33318 29C3.75571 29.5902 3.40553 30.3656 3.34453 31.1891C3.28353 32.0126 3.51565 32.8311 3.99984 33.5C4.28828 33.8765 4.65376 34.1872 5.07187 34.4112C5.48997 34.6352 5.95107 34.7674 6.42435 34.799C6.89764 34.8305 7.37221 34.7607 7.81635 34.5942C8.26049 34.4277 8.66397 34.1683 8.99984 33.8333C15.2578 28.0699 22.9867 24.1478 31.3332 22.5L30.8332 15.8333Z" fill="#A6A6A6"/>
<path d="M75.667 29C68.2524 22.1994 59.0654 17.6348 49.167 15.8333L48.667 22.5C57.0135 24.1478 64.7423 28.0699 71.0003 33.8333C71.3362 34.1683 71.7397 34.4277 72.1838 34.5942C72.628 34.7607 73.1025 34.8305 73.5758 34.799C74.0491 34.7674 74.5102 34.6352 74.9283 34.4112C75.3464 34.1872 75.7119 33.8765 76.0003 33.5C76.4845 32.8311 76.7166 32.0126 76.6556 31.1891C76.5946 30.3656 76.2445 29.5902 75.667 29Z" fill="#A6A6A6"/>
<path d="M40.0003 71.6667C44.6027 71.6667 48.3337 67.9357 48.3337 63.3333C48.3337 58.731 44.6027 55 40.0003 55C35.398 55 31.667 58.731 31.667 63.3333C31.667 67.9357 35.398 71.6667 40.0003 71.6667Z" fill="#A6A6A6"/>
<path d="M39.833 48.3333H40.1663C40.596 48.356 41.0258 48.2908 41.4294 48.1419C41.8331 47.9929 42.2021 47.7632 42.514 47.4669C42.826 47.1705 43.0743 46.8138 43.2437 46.4183C43.4132 46.0228 43.5003 45.5969 43.4997 45.1667L46.1663 11.6667C46.1663 10.8568 46.0068 10.055 45.6969 9.30679C45.387 8.55861 44.9328 7.8788 44.3602 7.30617C43.7875 6.73355 43.1077 6.27931 42.3596 5.96941C41.6114 5.65951 40.8095 5.5 39.9997 5.5C39.1899 5.5 38.388 5.65951 37.6398 5.96941C36.8916 6.27931 36.2118 6.73355 35.6392 7.30617C35.0666 7.8788 34.6123 8.55861 34.3024 9.30679C33.9925 10.055 33.833 10.8568 33.833 11.6667L36.4997 45.1667C36.4991 45.5969 36.5862 46.0228 36.7556 46.4183C36.9251 46.8138 37.1734 47.1705 37.4853 47.4669C37.7972 47.7632 38.1663 47.9929 38.5699 48.1419C38.9736 48.2908 39.4033 48.356 39.833 48.3333Z" fill="#A6A6A6"/>
</g>
<defs>
<clipPath id="clip0_808_10639">
<rect width="80" height="80" fill="white"/>
</clipPath>
</defs>
</svg>
